<svg width="119" height="35" viewBox="0 0 119 35" fill="none" xmlns="http://www.w3.org/2000/svg">
    <path d="M53.9891 18.7749C54.9129 17.7042 55.3819 16.2711 55.3819 14.5158C55.3819 13.3433 55.1593 12.2845 54.721 11.3677C54.2852 10.4558 53.6646 9.73802 52.8781 9.23347C52.0941 8.72893 51.175 8.4731 50.1446 8.4731H44.2795V29.1999H47.5176V20.3809H50.3246C51.8359 20.3809 53.07 19.8408 53.9891 18.7773V18.7749ZM47.7829 17.8913C47.6195 17.8913 47.5176 17.7895 47.5176 17.626V11.4957C47.5176 11.3322 47.6195 11.2303 47.7829 11.2303H49.5761C50.3483 11.2303 50.9784 11.543 51.4474 12.1565C51.9093 12.7629 52.1438 13.5849 52.1438 14.6035C52.1438 15.6221 51.9093 16.4061 51.4474 16.9936C50.9784 17.5881 50.3483 17.889 49.5784 17.889H47.7853L47.7829 17.8913Z" fill="white"/>
    <path d="M62.5072 17.4507C62.9004 17.3299 63.4476 17.3228 63.9924 17.4839C64.0777 17.51 64.1606 17.536 64.2316 17.5597L64.7978 14.2671C64.7528 14.2482 64.703 14.2245 64.6391 14.1984C64.2553 14.0373 63.9142 13.9734 63.4215 13.9734C62.2466 13.9734 61.4199 14.5869 60.8964 15.8447C60.8798 15.9134 60.8467 15.9703 60.7945 16.0011C60.7566 16.0224 60.7116 16.0295 60.669 16.0176C60.6169 16.0058 60.5245 15.956 60.5245 15.7713V14.1534H57.2888V29.1714H60.5245V20.4662C60.5245 19.6916 60.7069 19.0118 61.0669 18.4456C61.4317 17.87 61.9173 17.536 62.5072 17.4507Z" fill="white"/>
    <path d="M70.985 13.9142C69.3885 13.9142 68.1069 14.3524 67.176 15.2146C66.2475 16.0745 65.7784 17.2375 65.7784 18.673V24.6826C65.7784 26.137 66.2427 27.3048 67.1618 28.1552C68.0809 29.008 69.3671 29.4391 70.985 29.4391C72.6029 29.4391 73.9175 29.0056 74.839 28.1552C75.7581 27.3048 76.2224 26.137 76.2224 24.6826V18.673C76.2224 17.2399 75.751 16.0745 74.8248 15.2146C73.8939 14.3524 72.6029 13.9142 70.9874 13.9142H70.985ZM72.9842 24.4126C72.9842 25.0758 72.7995 25.6206 72.4323 26.0304C72.0628 26.4426 71.5748 26.6511 70.985 26.6511C70.3952 26.6511 69.9119 26.4426 69.5519 26.0281C69.1966 25.6206 69.0142 25.0758 69.0142 24.4126V18.9123C69.0142 18.249 69.1942 17.7042 69.5519 17.2968C69.9119 16.8846 70.3952 16.6738 70.985 16.6738C71.5748 16.6738 72.0628 16.8893 72.4323 17.311C72.7971 17.7303 72.9842 18.268 72.9842 18.9123V24.4126Z" fill="white"/>
    <path d="M85.2522 24.5381L86.0007 29.2022H89.2886L85.3872 8.51099H81.2158L77.3737 29.2022H80.4838L81.23 24.5381H85.2522ZM83.2411 11.7444L84.84 21.8993H81.6398L83.2387 11.7444H83.2411Z" fill="white"/>
    <path d="M104.389 8.50863L102.577 24.1283L99.7656 8.50863H96.852L94.0402 24.1283L92.2281 8.50863H89.0587L92.311 29.1999H95.4923L98.278 14.3405L101.064 29.1999H104.126L107.379 8.50863H104.389Z" fill="white"/>
    <path d="M113.886 29.4391H113.945C117.394 29.4391 119 28.0889 119 25.1919V22.1717C119 19.9166 117.756 19.0449 115.861 17.9671L113.41 16.5933C112.346 15.9821 112.005 15.442 112.005 14.3713V12.9359C112.005 11.6875 112.654 11.0266 113.883 11.0266C115.113 11.0266 115.762 11.6875 115.762 12.9359V15.75H118.938V12.4574C118.938 8.8142 115.79 8.26939 113.914 8.26939H113.855C111.979 8.26939 108.828 8.8142 108.828 12.4574V15.2075C108.828 17.2494 109.842 18.1898 111.969 19.4121L114.39 20.786C115.461 21.3687 115.823 21.9443 115.823 23.0695V24.7134C115.823 25.9641 115.127 26.6819 113.914 26.6819C112.701 26.6819 112.005 25.9641 112.005 24.7134V21.6601H108.828V25.1919C108.828 28.0913 110.435 29.4391 113.883 29.4391H113.886Z" fill="white"/>
    <path d="M26.111 14.2458V5.30368L16.9272 0L7.74352 5.30368V14.2458L0 18.718V29.3207L9.10556 34.5793L9.18373 34.6243L16.9296 30.1521L24.6731 34.6243L33.8569 29.323V18.7204L26.111 14.2482V14.2458ZM30.9812 22.0367V27.6602L24.6731 31.301L19.8029 28.4892L30.9788 22.0367H30.9812ZM12.0571 6.13275L16.9272 3.32102L23.2353 6.96182V12.5853L12.0594 6.13275H12.0571ZM10.6192 10.8253C10.6192 10.3657 10.8561 9.95358 11.254 9.72381C11.453 9.61011 11.6709 9.55089 11.8889 9.55089C12.1068 9.55089 12.3247 9.60774 12.5237 9.72381L27.6317 18.4456C28.0297 18.6754 28.2666 19.0876 28.2666 19.5471C28.2666 20.0067 28.0297 20.4164 27.6317 20.6462L12.5237 29.3704C12.1257 29.6002 11.6496 29.6002 11.254 29.3704C10.8561 29.1406 10.6192 28.7285 10.6192 28.2689V10.8253ZM7.74589 17.5668V30.4719L2.87569 27.6602V20.3762L7.74589 17.5644V17.5668Z" fill="white"/>
    </svg>
    