<svg width="120" height="39" viewBox="0 0 120 39" fill="none" xmlns="http://www.w3.org/2000/svg">
<path d="M18.1182 6.69343H22.25C21.8598 2.88299 19.4725 0.220264 14.9964 0.220264C9.80869 0.220264 7.0312 3.84707 7.0312 8.78229C7.0312 13.7405 9.80869 17.3673 14.9964 17.3673C19.4955 17.3673 21.8828 14.7046 22.25 10.8482H18.1182C17.8428 12.6846 17.0164 13.993 14.8128 13.993C12.0812 13.993 11.163 11.8811 11.163 8.78229C11.163 5.70639 12.0812 3.59457 14.8128 3.59457C16.9934 3.59457 17.8198 4.90298 18.1182 6.69343ZM29.4585 17.3673C25.5332 17.3673 23.1689 14.7734 23.1689 11.1236C23.1689 7.47388 25.5332 4.88003 29.4585 4.88003C33.3607 4.88003 35.725 7.47388 35.725 11.1236C35.725 14.7734 33.3607 17.3673 29.4585 17.3673ZM29.4585 14.6127C31.0653 14.6127 32.0523 13.3961 32.0523 11.1236C32.0523 8.85115 31.0653 7.63457 29.4585 7.63457C27.8287 7.63457 26.8416 8.85115 26.8416 11.1236C26.8416 13.3961 27.8287 14.6127 29.4585 14.6127ZM51.4512 4.88003C49.546 4.88003 48.513 5.77525 47.503 6.94593H47.4571C46.998 5.72934 45.9192 4.88003 44.3812 4.88003C42.6137 4.88003 41.3283 5.86707 40.7085 6.94593H40.6626V5.2473H36.9899V17H40.6626V10.2055C40.6626 8.5757 41.4201 7.86411 42.5678 7.86411C43.8762 7.86411 44.2435 8.46093 44.2435 10.2284V17H47.9162V10.2055C47.9162 8.5757 48.6507 7.86411 49.8214 7.86411C51.1298 7.86411 51.4971 8.46093 51.4971 10.2284V17H55.2157V9.05774C55.2157 6.37207 53.8155 4.88003 51.4512 4.88003ZM64.034 4.88003C62.3354 4.88003 61.0958 5.79821 60.6368 6.41798H60.5908V5.2473H56.9181V21.0629H60.5908V15.8293H60.6368C61.0958 16.4491 62.3354 17.3673 64.034 17.3673C67.1558 17.3673 69.1529 14.98 69.1529 11.1236C69.1529 7.26729 67.1558 4.88003 64.034 4.88003ZM63.0699 14.6127C61.5779 14.6127 60.6597 13.4191 60.6597 11.1236C60.6597 8.8282 61.5779 7.63457 63.0699 7.63457C64.562 7.63457 65.4802 8.8282 65.4802 11.1236C65.4802 13.4191 64.562 14.6127 63.0699 14.6127ZM72.3389 3.84707C73.3718 3.84707 74.1752 3.29617 74.1752 2.2173C74.1752 1.1614 73.3718 0.587536 72.3389 0.587536C71.3059 0.587536 70.5025 1.1614 70.5025 2.2173C70.5025 3.29617 71.3059 3.84707 72.3389 3.84707ZM70.5025 5.2473V17H74.1752V5.2473H70.5025ZM75.883 0.587536V17H79.5557V0.587536H75.883ZM87.0443 14.6127C85.7359 14.6127 84.5193 13.7405 84.5193 12.0877H92.9665C92.9665 7.8182 90.9236 4.88003 86.9066 4.88003C83.165 4.88003 80.8466 7.54275 80.8466 11.1236C80.8466 14.7964 83.2109 17.3673 87.1132 17.3673C90.3038 17.3673 92.1402 15.8064 92.7829 13.4421H89.1331C88.9036 14.0159 88.3068 14.6127 87.0443 14.6127ZM86.9066 7.40502C88.3068 7.40502 89.2938 8.23138 89.2938 9.86115H84.5193C84.5193 8.23138 85.5063 7.40502 86.9066 7.40502ZM100.807 5.04071C99.5217 5.04071 98.5117 5.86707 97.9378 7.17548H97.8919V5.2473H94.2192V17H97.8919V11.5368C97.8919 9.03479 99.8889 8.00184 101.771 8.34616H101.817V5.13253C101.404 5.04071 101.128 5.04071 100.807 5.04071ZM108.745 9.5857C106.932 9.19547 106.197 9.17252 106.197 8.34616C106.197 7.77229 106.725 7.40502 107.758 7.40502C108.952 7.40502 109.457 7.91002 109.571 8.85115H113.015C112.9 6.78525 111.431 4.88003 107.666 4.88003C104.361 4.88003 102.524 6.5098 102.524 8.64456C102.524 11.1007 104.728 11.8352 106.725 12.2714C108.584 12.6846 109.686 12.8223 109.686 13.8323C109.686 14.498 109.112 14.8423 108.079 14.8423C106.633 14.8423 105.853 14.2684 105.738 13.0977H102.295C102.41 15.485 104.016 17.3673 108.217 17.3673C111.477 17.3673 113.359 16.013 113.359 13.5339C113.359 10.8711 111.063 10.0907 108.745 9.5857ZM7.76162 24.365V21.6105C7.09593 21.4728 6.52207 21.3809 5.48912 21.3809C2.80344 21.3809 2.04595 22.8041 2.04595 25.4439V26.2473H0.301404V29.0018H2.04595V38H5.71866V29.0018H7.76162V26.2473H5.71866V25.7423C5.71866 24.365 6.20071 24.365 7.76162 24.365ZM14.3722 38.3673C10.4469 38.3673 8.08262 35.7734 8.08262 32.1236C8.08262 28.4739 10.4469 25.88 14.3722 25.88C18.2744 25.88 20.6387 28.4739 20.6387 32.1236C20.6387 35.7734 18.2744 38.3673 14.3722 38.3673ZM14.3722 35.6127C15.979 35.6127 16.966 34.3961 16.966 32.1236C16.966 29.8512 15.979 28.6346 14.3722 28.6346C12.7424 28.6346 11.7553 29.8512 11.7553 32.1236C11.7553 34.3961 12.7424 35.6127 14.3722 35.6127ZM28.4915 26.0407C27.206 26.0407 26.196 26.8671 25.6222 28.1755H25.5763V26.2473H21.9036V38H25.5763V32.5368C25.5763 30.0348 27.5733 29.0018 29.4556 29.3462H29.5015V26.1325C29.0883 26.0407 28.8129 26.0407 28.4915 26.0407ZM34.8208 21.5875V38H38.9526V31.3891H44.5765V38H48.7083V21.5875H44.5765V28.0148H38.9526V21.5875H34.8208ZM58.3521 26.2473V33.0418C58.3521 34.6716 57.5487 35.3832 56.1484 35.3832C54.9318 35.3832 54.3121 34.7864 54.3121 33.0189V26.2473H50.6394V34.1896C50.6394 36.8752 52.1773 38.3673 54.4498 38.3673C56.5387 38.3673 57.6864 37.3802 58.3062 36.3014H58.3521V38H62.0248V26.2473H58.3521ZM78.2837 25.88C76.3785 25.88 75.3456 26.7753 74.3356 27.9459H74.2897C73.8306 26.7293 72.7517 25.88 71.2138 25.88C69.4463 25.88 68.1608 26.8671 67.541 27.9459H67.4951V26.2473H63.8224V38H67.4951V31.2055C67.4951 29.5757 68.2526 28.8641 69.4004 28.8641C70.7088 28.8641 71.076 29.4609 71.076 31.2284V38H74.7488V31.2055C74.7488 29.5757 75.4833 28.8641 76.654 28.8641C77.9624 28.8641 78.3297 29.4609 78.3297 31.2284V38H82.0483V30.0577C82.0483 27.3721 80.6481 25.88 78.2837 25.88ZM90.6829 29.5068C90.6829 30.4939 89.1909 30.7234 87.6759 31.0218C84.9214 31.5727 83.1998 32.6516 83.1998 34.993C83.1998 36.967 84.577 38.3673 87.0561 38.3673C88.617 38.3673 89.9943 37.6327 90.7518 36.7605H90.7977C90.7977 37.5868 91.2568 38.3673 92.9095 38.3673C93.6441 38.3673 94.3097 38.2755 95.0443 38V37.1277C94.5852 37.1277 94.3557 36.8752 94.3557 36.2555V30.8612C94.3557 27.1655 92.5193 25.88 89.2138 25.88C85.3804 25.88 83.7736 27.7852 83.6589 30.0348H87.102C87.2168 28.91 87.8595 28.405 89.1909 28.405C90.2009 28.405 90.6829 28.8182 90.6829 29.5068ZM88.3416 35.8423C87.4464 35.8423 86.8725 35.4291 86.8725 34.465C86.8725 33.7305 87.3545 33.1336 88.8007 32.8123C89.65 32.6286 90.2238 32.468 90.6829 32.2843V33.7075C90.6829 34.8323 89.9254 35.8423 88.3416 35.8423ZM104.013 25.88C101.925 25.88 100.777 26.8671 100.157 27.9459H100.111V26.2473H96.4384V38H100.111V31.2055C100.111 29.5757 100.915 28.8641 102.315 28.8641C103.531 28.8641 104.151 29.4609 104.151 31.2284V38H107.824V30.0577C107.824 27.3721 106.286 25.88 104.013 25.88ZM115.268 30.5857C113.455 30.1955 112.72 30.1725 112.72 29.3462C112.72 28.7723 113.248 28.405 114.281 28.405C115.475 28.405 115.98 28.91 116.095 29.8512H119.538C119.423 27.7852 117.954 25.88 114.189 25.88C110.884 25.88 109.048 27.5098 109.048 29.6446C109.048 32.1007 111.251 32.8352 113.248 33.2714C115.108 33.6846 116.209 33.8223 116.209 34.8323C116.209 35.498 115.636 35.8423 114.603 35.8423C113.156 35.8423 112.376 35.2684 112.261 34.0977H108.818C108.933 36.485 110.54 38.3673 114.74 38.3673C118 38.3673 119.882 37.013 119.882 34.5339C119.882 31.8711 117.587 31.0907 115.268 30.5857Z" fill="white"/>
</svg>
