<svg xmlns="http://www.w3.org/2000/svg" width="188" height="24" fill="none" viewBox="0 0 188 24">
  <g opacity=".9">
    <path fill="#fff" d="M14.819 2.177H.302v1.49h6.09v15.91h2.361V3.666h6.066v-1.49ZM19.56 6.9c-3.306 0-6.388 2.56-6.388 6.412 0 3.903 3.082 6.513 6.388 6.513s6.388-2.61 6.388-6.513c0-3.852-3.082-6.413-6.388-6.413Zm0 11.732c-2.411 0-4.027-1.84-4.027-5.32 0-3.43 1.616-5.244 4.027-5.244 2.436 0 4.027 1.814 4.027 5.244 0 3.48-1.591 5.32-4.027 5.32Zm15.907-3.356c-.05 2.386-.746 3.107-1.939 3.107-1.243 0-1.988-.795-1.988-2.361V8.49h5.195V7.148H31.54V3.917h-1.168l-1.07 3.23h-2.311V8.49h2.312v7.233c0 2.884 1.69 4.077 3.753 4.077 2.038 0 3.927-.945 3.927-4.524h-1.516ZM44.161 6.9c-3.306 0-5.32 1.938-5.32 5.244h1.442c0-2.436 1.293-3.828 3.505-3.828 2.386 0 3.232 1.442 3.232 3.555v.323c-5.892.348-8.725 1.963-8.725 4.623 0 1.815 1.441 3.008 3.778 3.008 2.113 0 4.275-1.119 5.27-3.58l.72 3.43h1.194V12.22c0-3.43-1.79-5.32-5.096-5.32Zm-1.367 11.483c-1.492 0-2.262-.77-2.262-1.864 0-2.038 2.386-2.933 6.488-3.157-.1 2.958-1.94 5.021-4.226 5.021Zm9.696 1.193h2.238V.686H52.49v18.89ZM72.516 2.177H57.005v2.237h5.518v15.162h4.474V4.414h5.519V2.177Z"/>
    <path fill="#fff" d="m81.911 7.148-3.082 7.208-3.157-7.208h-4.574l5.593 11.931-2.163 4.474h2.859l7.01-16.405H81.91ZM94.135 6.9c-1.541 0-2.759.646-3.58 1.839V7.148H86.33v16.405h4.226v-5.568c.82 1.194 2.013 1.84 3.53 1.84 3.082 0 5.294-2.337 5.294-6.513 0-4.076-2.188-6.413-5.245-6.413Zm-1.442 10.688c-1.392 0-2.137-1.541-2.137-4.276 0-2.684.745-4.176 2.137-4.176 1.293 0 2.213 1.094 2.213 4.176 0 3.157-.92 4.276-2.213 4.276Zm18.761-2.238c-.198 1.417-1.093 2.287-2.734 2.287-2.013 0-2.958-1.292-3.107-4.225h7.855c.124-4.624-2.635-6.513-5.866-6.513-3.803 0-6.488 2.61-6.488 6.388 0 3.953 2.933 6.538 7.034 6.538 3.008 0 5.196-1.392 5.494-4.474h-2.188Zm-3.753-6.785c1.243 0 1.665.92 1.69 3.256h-3.778c.124-2.585.994-3.256 2.088-3.256Zm14.204 11.26c3.953 0 6.662-2.287 6.662-5.792 0-6.438-9.122-4.822-9.122-8.103 0-1.069.919-1.79 2.411-1.79 1.988 0 3.306 1.193 3.306 3.182h2.535c0-3.455-2.461-5.394-5.941-5.394-3.803 0-6.338 2.262-6.338 5.667 0 6.438 9.097 4.847 9.097 8.228 0 1.118-.969 1.79-2.684 1.79-2.262 0-3.878-1.392-3.878-3.654h-2.535c0 3.53 2.51 5.866 6.487 5.866Zm21.14-5.22h-2.188c0 1.814-.944 3.032-2.759 3.032-2.287 0-3.405-1.665-3.405-4.598 0-2.784 1.069-4.325 3.206-4.325 1.865 0 2.586 1.193 2.784 3.33h2.188c-.249-3.678-2.859-5.145-5.692-5.145-3.505 0-6.96 2.237-6.96 6.438 0 4.176 3.38 6.488 7.034 6.488 2.859 0 5.792-1.417 5.792-5.22Zm6.715-5.046V7.148h-4.225v12.428h4.225v-4.499c0-3.48.97-5.692 4.077-5.443V6.899c-1.765 0-3.157 1.094-4.077 2.66Zm8.398-8.973c-1.417 0-2.312 1.019-2.312 2.287 0 1.267.895 2.286 2.312 2.286 1.441 0 2.336-1.019 2.336-2.286 0-1.268-.895-2.287-2.336-2.287Zm-2.088 18.99h4.225V7.148h-4.225v12.428ZM171.57 6.9c-1.541 0-2.759.646-3.58 1.839V7.148h-4.225v16.405h4.225v-5.568c.821 1.194 2.014 1.84 3.53 1.84 3.082 0 5.294-2.337 5.294-6.513 0-4.076-2.187-6.413-5.244-6.413Zm-1.442 10.688c-1.392 0-2.138-1.541-2.138-4.276 0-2.684.746-4.176 2.138-4.176 1.293 0 2.212 1.094 2.212 4.176 0 3.157-.919 4.276-2.212 4.276Zm15.56-2.238c-.074 2.039-.596 2.163-1.143 2.163-.497 0-.82-.273-.82-1.044V9.136h4.002V7.148h-4.002V3.917h-1.74l-2.486 3.23h-1.69v1.99h1.69v6.586c0 3.182 2.113 4.077 4.002 4.077 1.988 0 4.499-.522 4.499-4.45h-2.312Z"/>
  </g>
</svg>
