<svg width="161" height="44" viewBox="0 0 161 44" fill="none" xmlns="http://www.w3.org/2000/svg">
<path d="M69.7159 7.89702H73.7621V19H76.1143V7.89702H80.1605V5.90909H69.7159V7.89702ZM84.9945 19.1918C87.2828 19.1918 88.8553 18.0732 89.2644 16.3665L87.1039 16.1236C86.7907 16.9545 86.0236 17.3892 85.0265 17.3892C83.5307 17.3892 82.54 16.4048 82.5208 14.7237H89.3603V14.0142C89.3603 10.5689 87.2892 9.05398 84.873 9.05398C82.0605 9.05398 80.226 11.1186 80.226 14.1484C80.226 17.2294 82.035 19.1918 84.9945 19.1918ZM82.5272 13.1641C82.5975 11.9112 83.5243 10.8565 84.905 10.8565C86.2346 10.8565 87.1294 11.8281 87.1422 13.1641H82.5272ZM95.6005 19.1918C98.0678 19.1918 99.6403 17.728 99.8065 15.6442H97.5948C97.3967 16.6989 96.636 17.3061 95.6197 17.3061C94.1751 17.3061 93.2418 16.098 93.2418 14.0909C93.2418 12.1094 94.1942 10.9205 95.6197 10.9205C96.7319 10.9205 97.4158 11.6364 97.5948 12.5824H99.8065C99.6467 10.4538 97.9847 9.05398 95.5877 9.05398C92.7113 9.05398 90.896 11.1314 90.896 14.1293C90.896 17.1016 92.6665 19.1918 95.6005 19.1918ZM104.02 13.2472C104.02 11.8281 104.903 11.0099 106.143 11.0099C107.357 11.0099 108.073 11.7834 108.073 13.1065V19H110.387V12.7486C110.387 10.3771 109.045 9.05398 107.006 9.05398C105.497 9.05398 104.538 9.73793 104.084 10.8501H103.969V5.90909H101.706V19H104.02V13.2472ZM115.059 13.2472C115.059 11.8281 115.916 11.0099 117.137 11.0099C118.332 11.0099 119.048 11.7962 119.048 13.1065V19H121.362V12.7486C121.368 10.3963 120.026 9.05398 118 9.05398C116.53 9.05398 115.52 9.7571 115.072 10.8501H114.957V9.18182H112.746V19H115.059V13.2472ZM123.714 19H126.028V9.18182H123.714V19ZM124.878 7.78835C125.613 7.78835 126.214 7.22585 126.214 6.53551C126.214 5.83878 125.613 5.27628 124.878 5.27628C124.136 5.27628 123.535 5.83878 123.535 6.53551C123.535 7.22585 124.136 7.78835 124.878 7.78835ZM132.69 19.1918C135.158 19.1918 136.73 17.728 136.896 15.6442H134.685C134.487 16.6989 133.726 17.3061 132.71 17.3061C131.265 17.3061 130.332 16.098 130.332 14.0909C130.332 12.1094 131.284 10.9205 132.71 10.9205C133.822 10.9205 134.506 11.6364 134.685 12.5824H136.896C136.737 10.4538 135.075 9.05398 132.678 9.05398C129.801 9.05398 127.986 11.1314 127.986 14.1293C127.986 17.1016 129.756 19.1918 132.69 19.1918ZM141.622 19.1982C143.162 19.1982 144.083 18.4759 144.504 17.6513H144.581V19H146.806V12.429C146.806 9.83381 144.69 9.05398 142.817 9.05398C140.752 9.05398 139.167 9.97443 138.656 11.7642L140.816 12.071C141.046 11.3999 141.698 10.8246 142.83 10.8246C143.904 10.8246 144.492 11.3743 144.492 12.3395V12.3778C144.492 13.0426 143.795 13.0746 142.063 13.2599C140.158 13.4645 138.336 14.0334 138.336 16.245C138.336 18.1754 139.749 19.1982 141.622 19.1982ZM142.222 17.4979C141.257 17.4979 140.567 17.0568 140.567 16.2067C140.567 15.3182 141.34 14.9474 142.376 14.8004C142.983 14.7173 144.198 14.5639 144.498 14.321V15.478C144.498 16.571 143.616 17.4979 142.222 17.4979ZM151.446 5.90909H149.132V19H151.446V5.90909ZM72.6626 25.9091H70.2912V39H72.6626V25.9091ZM77.4423 33.2472C77.4423 31.8281 78.2988 31.0099 79.5197 31.0099C80.715 31.0099 81.4309 31.7962 81.4309 33.1065V39H83.7449V32.7486C83.7512 30.3963 82.4089 29.054 80.3826 29.054C78.9125 29.054 77.9025 29.7571 77.4551 30.8501H77.34V29.1818H75.1284V39H77.4423V33.2472ZM90.9998 29.1818H89.063V26.8295H86.7491V29.1818H85.3556V30.9716H86.7491V36.4304C86.7363 38.2777 88.0787 39.1854 89.8173 39.1342C90.4757 39.1151 90.9295 38.9872 91.1788 38.9041L90.7889 37.0952C90.661 37.1271 90.399 37.1847 90.1113 37.1847C89.5297 37.1847 89.063 36.9801 89.063 36.0469V30.9716H90.9998V29.1818ZM97.1761 39.1918C99.4645 39.1918 101.037 38.0732 101.446 36.3665L99.2855 36.1236C98.9723 36.9545 98.2053 37.3892 97.2081 37.3892C95.7124 37.3892 94.7216 36.4048 94.7024 34.7237H101.542V34.0142C101.542 30.5689 99.4709 29.054 97.0547 29.054C94.2422 29.054 92.4077 31.1186 92.4077 34.1484C92.4077 37.2294 94.2166 39.1918 97.1761 39.1918ZM94.7088 33.1641C94.7791 31.9112 95.706 30.8565 97.0866 30.8565C98.4162 30.8565 99.3111 31.8281 99.3239 33.1641H94.7088ZM103.499 39H105.813V33.228C105.813 31.9815 106.753 31.0994 108.025 31.0994C108.415 31.0994 108.901 31.1697 109.099 31.2337V29.1051C108.888 29.0668 108.524 29.0412 108.268 29.0412C107.143 29.0412 106.203 29.6804 105.845 30.8182H105.743V29.1818H103.499V39ZM119.705 29.1818H117.244L114.981 36.4751H114.879L112.623 29.1818H110.155L113.652 39H116.208L119.705 29.1818ZM121.306 39H123.62V29.1818H121.306V39ZM122.469 27.7884C123.205 27.7884 123.805 27.2259 123.805 26.5355C123.805 25.8388 123.205 25.2763 122.469 25.2763C121.728 25.2763 121.127 25.8388 121.127 26.5355C121.127 27.2259 121.728 27.7884 122.469 27.7884ZM130.346 39.1918C132.634 39.1918 134.207 38.0732 134.616 36.3665L132.455 36.1236C132.142 36.9545 131.375 37.3892 130.378 37.3892C128.882 37.3892 127.892 36.4048 127.872 34.7237H134.712V34.0142C134.712 30.5689 132.641 29.054 130.225 29.054C127.412 29.054 125.578 31.1186 125.578 34.1484C125.578 37.2294 127.387 39.1918 130.346 39.1918ZM127.879 33.1641C127.949 31.9112 128.876 30.8565 130.257 30.8565C131.586 30.8565 132.481 31.8281 132.494 33.1641H127.879ZM138.643 39H141.059L142.9 32.3651H143.034L144.875 39H147.285L150.066 29.1818H147.7L146 36.0469H145.904L144.14 29.1818H141.807L140.043 36.0852H139.953L138.227 29.1818H135.869L138.643 39ZM159.441 31.777C159.121 30.1151 157.792 29.054 155.491 29.054C153.126 29.054 151.515 30.2173 151.521 32.0327C151.515 33.4645 152.397 34.4105 154.283 34.8004L155.957 35.152C156.859 35.3501 157.281 35.7145 157.281 36.2706C157.281 36.9418 156.552 37.4467 155.452 37.4467C154.391 37.4467 153.701 36.9865 153.503 36.1044L151.246 36.3217C151.534 38.1243 153.049 39.1918 155.459 39.1918C157.913 39.1918 159.646 37.9197 159.652 36.0597C159.646 34.6598 158.744 33.8033 156.891 33.4006L155.216 33.0426C154.219 32.8189 153.822 32.4737 153.829 31.9048C153.822 31.2401 154.558 30.7798 155.523 30.7798C156.59 30.7798 157.153 31.3615 157.332 32.0071L159.441 31.777Z" fill="white"/>
<path d="M6.89301 17.538L21.318 28.117" stroke="black" stroke-width="3.11"/>
<path fill-rule="evenodd" clip-rule="evenodd" d="M6.89301 17.538L21.359 6.92999L6.89301 17.538ZM6.89301 17.538L35.825 38.754Z" fill="white"/>
<path d="M6.89301 17.538L35.825 38.754M6.89301 17.538L21.359 6.92999L6.89301 17.538Z" stroke="#9A9A9A" stroke-width="3.11"/>
<path d="M6.89301 17.537L22.426 28.957" stroke="white" stroke-width="3.11"/>
<path d="M11.341 17.538C11.341 15.0815 9.34957 13.09 6.89301 13.09C4.43644 13.09 2.44501 15.0815 2.44501 17.538C2.44501 19.9946 4.43644 21.986 6.89301 21.986C9.34957 21.986 11.341 19.9946 11.341 17.538Z" fill="#111111" stroke="white" stroke-width="3.11"/>
<path fill-rule="evenodd" clip-rule="evenodd" d="M50.291 6.92999L21.359 28.146Z" fill="white"/>
<path d="M50.291 6.92999L21.359 28.146" stroke="white" stroke-width="3.11"/>
<path d="M25.807 28.146C25.807 25.6894 23.8156 23.698 21.359 23.698C18.9024 23.698 16.911 25.6894 16.911 28.146C16.911 30.6026 18.9024 32.594 21.359 32.594C23.8156 32.594 25.807 30.6026 25.807 28.146Z" fill="#111111" stroke="white" stroke-width="3.11"/>
<path d="M39.311 37.587C39.311 35.1305 37.3196 33.139 34.863 33.139C32.4064 33.139 30.415 35.1305 30.415 37.587C30.415 40.0436 32.4064 42.035 34.863 42.035C37.3196 42.035 39.311 40.0436 39.311 37.587Z" fill="#111111" stroke="#9A9A9A" stroke-width="3.11"/>
<path fill-rule="evenodd" clip-rule="evenodd" d="M35.825 17.538L50.291 28.146Z" fill="white"/>
<path d="M35.825 17.538L50.291 28.146" stroke="#9A9A9A" stroke-width="3.11"/>
<path d="M53.777 26.978C53.777 24.5215 51.7856 22.53 49.329 22.53C46.8724 22.53 44.881 24.5215 44.881 26.978C44.881 29.4346 46.8724 31.426 49.329 31.426C51.7856 31.426 53.777 29.4346 53.777 26.978Z" fill="#111111" stroke="#9A9A9A" stroke-width="3.11"/>
<path d="M25.806 6.92999C25.806 4.47343 23.8146 2.48199 21.358 2.48199C18.9014 2.48199 16.91 4.47343 16.91 6.92999C16.91 9.38655 18.9014 11.378 21.358 11.378C23.8146 11.378 25.806 9.38655 25.806 6.92999Z" fill="#111111" stroke="#9A9A9A" stroke-width="3.11"/>
<path d="M40.273 17.538C40.273 15.0815 38.2816 13.09 35.825 13.09C33.3685 13.09 31.377 15.0815 31.377 17.538C31.377 19.9946 33.3685 21.986 35.825 21.986C38.2816 21.986 40.273 19.9946 40.273 17.538Z" fill="#111111" stroke="white" stroke-width="3.11"/>
<path d="M54.737 6.92901C54.737 4.47245 52.7456 2.48101 50.289 2.48101C47.8324 2.48101 45.841 4.47245 45.841 6.92901C45.841 9.38557 47.8324 11.377 50.289 11.377C52.7456 11.377 54.737 9.38557 54.737 6.92901Z" fill="#111111" stroke="white" stroke-width="3.11"/>
</svg>
