<svg width="146" height="44" viewBox="0 0 146 44" fill="none" xmlns="http://www.w3.org/2000/svg">
<path fill-rule="evenodd" clip-rule="evenodd" d="M20 0C22.1553 0 23.9025 1.75106 23.9025 3.91111C23.9025 3.96111 23.9015 4.01089 23.8997 4.06043L33.0151 9.33461C33.7291 8.41431 34.8443 7.82222 36.0976 7.82222C38.2529 7.82222 40 9.57329 40 11.7333C40 13.5717 38.7345 15.1138 37.029 15.5324V26.5121C38.7345 26.9307 40 28.4728 40 30.3111C40 32.4712 38.2529 34.2222 36.0976 34.2222C35.1583 34.2222 34.2965 33.8896 33.6231 33.3355L23.7611 39.0418C23.8532 39.3751 23.9025 39.7262 23.9025 40.0889C23.9025 42.2489 22.1553 44 20 44C17.8448 44 16.0976 42.2489 16.0976 40.0889C16.0976 39.7266 16.1467 39.3758 16.2387 39.0428L6.37601 33.3363C5.70272 33.89 4.84131 34.2222 3.90247 34.2222C1.74721 34.2222 3.05176e-05 32.4712 3.05176e-05 30.3111C3.05176e-05 28.4728 1.26553 26.9307 2.97106 26.5121V15.5324C1.26553 15.1138 3.05176e-05 13.5717 3.05176e-05 11.7333C3.05176e-05 9.57329 1.74721 7.82222 3.90247 7.82222C5.15573 7.82222 6.27101 8.41431 6.98501 9.33461L16.1005 4.05876L16.0976 3.91111C16.0976 1.81652 17.7405 0.106501 19.8053 0.00478652L20 0ZM7.63736 31.4481L7.58184 31.6177C7.56657 31.6609 7.55056 31.7037 7.53383 31.7462L17.2164 37.3478C17.9244 36.6256 18.91 36.1778 20 36.1778C21.09 36.1778 22.0757 36.6256 22.7837 37.3478L32.4662 31.7462C32.4279 31.6489 32.3933 31.5496 32.3628 31.4486C27.0459 32.3197 22.9251 32.7556 20 32.7556C17.075 32.7556 12.9541 32.3197 7.63736 31.4481ZM20 10.2667L18.5366 22.2817L17.4332 31.3409C18.1688 31.4692 19.0244 31.5333 20 31.5333C20.9756 31.5333 21.8314 31.4702 22.5672 31.344L21.4634 22.2817L20 10.2667ZM16.6871 5.97908L7.76098 11.1445C7.78991 11.3366 7.80491 11.5332 7.80491 11.7333C7.80491 13.5399 6.58275 15.0604 4.92186 15.5097V26.5348C5.49538 26.6899 6.01659 26.9728 6.45323 27.351C8.74824 24.1659 10.9055 20.915 12.9269 17.6C15.0163 14.1732 16.8771 10.815 18.5091 7.52516C17.7524 7.2128 17.1159 6.66762 16.6871 5.97908ZM23.3124 5.98005C22.8862 6.66394 22.255 7.20632 21.505 7.52077C23.2107 10.9506 25.0674 14.3105 27.0732 17.6C29.0135 20.7821 31.1736 24.03 33.5535 27.3437C33.9901 26.9693 34.5079 26.6892 35.0772 26.535V15.5094C33.4168 15.0598 32.1952 13.5396 32.1952 11.7333C32.1952 11.5335 32.2101 11.3372 32.2389 11.1455L23.3124 5.98005Z" fill="white"/>
<path d="M58.579 19.1833C56.8197 19.1833 55.4453 18.7557 54.4557 17.9004C53.4661 17.033 52.9408 15.8052 52.8797 14.2169C52.8675 13.8626 52.8613 13.3006 52.8613 12.531C52.8613 11.7613 52.8675 11.1993 52.8797 10.845C52.9408 9.29337 53.4722 8.09608 54.474 7.25309C55.4881 6.4101 56.8564 5.9886 58.579 5.9886C59.7397 5.9886 60.7476 6.17797 61.6028 6.5567C62.4702 6.93544 63.13 7.41802 63.582 8.00445C64.0463 8.59088 64.2906 9.19563 64.315 9.81872C64.315 9.92867 64.2723 10.0203 64.1868 10.0936C64.1135 10.1669 64.0218 10.2036 63.9119 10.2036H61.2363C61.1141 10.2036 61.0164 10.1852 60.9431 10.1486C60.8698 10.1119 60.8087 10.0447 60.7598 9.947C60.601 9.5927 60.3505 9.28727 60.0085 9.0307C59.6664 8.76192 59.1899 8.62753 58.579 8.62753C57.1252 8.62753 56.3616 9.39722 56.2883 10.9366C56.2761 11.2787 56.27 11.8101 56.27 12.531C56.27 13.2396 56.2761 13.771 56.2883 14.1253C56.3616 15.738 57.1435 16.5443 58.634 16.5443C59.3548 16.5443 59.929 16.3611 60.3566 15.9945C60.7965 15.6158 61.0164 15.0416 61.0164 14.2719V13.9237H59.2937C59.1594 13.9237 59.0494 13.881 58.9639 13.7954C58.8784 13.6977 58.8356 13.5816 58.8356 13.4472V12.0911C58.8356 11.9567 58.8784 11.8468 58.9639 11.7613C59.0494 11.6635 59.1594 11.6147 59.2937 11.6147H63.9119C64.0463 11.6147 64.1562 11.6635 64.2417 11.7613C64.3273 11.8468 64.37 11.9567 64.37 12.0911V14.1803C64.37 15.2188 64.1318 16.1167 63.6553 16.8742C63.1788 17.6194 62.5008 18.1937 61.6211 18.5968C60.7537 18.9878 59.7397 19.1833 58.579 19.1833ZM67.2788 19C67.1444 19 67.0345 18.9572 66.949 18.8717C66.8634 18.7862 66.8207 18.6762 66.8207 18.5419V9.92867C66.8207 9.79428 66.8634 9.68433 66.949 9.59881C67.0345 9.51328 67.1444 9.47052 67.2788 9.47052H69.3863C69.5207 9.47052 69.6307 9.51939 69.7162 9.61713C69.8139 9.70265 69.8628 9.8065 69.8628 9.92867V10.6617C70.5347 9.86759 71.4388 9.47052 72.575 9.47052H73.3814C73.5158 9.47052 73.6257 9.51328 73.7112 9.59881C73.7967 9.68433 73.8395 9.79428 73.8395 9.92867V11.8162C73.8395 11.9384 73.7967 12.0484 73.7112 12.1461C73.6257 12.2316 73.5158 12.2744 73.3814 12.2744H71.6037C71.1028 12.2744 70.7119 12.4149 70.4309 12.6959C70.1621 12.9647 70.0277 13.3495 70.0277 13.8504V18.5419C70.0277 18.6762 69.9789 18.7862 69.8811 18.8717C69.7956 18.9572 69.6856 19 69.5512 19H67.2788ZM78.3901 19.1833C77.7425 19.1833 77.15 19.0611 76.6124 18.8167C76.0871 18.5602 75.6717 18.2181 75.3663 17.7905C75.0731 17.3507 74.9265 16.8681 74.9265 16.3427C74.9265 15.4998 75.2685 14.8217 75.9527 14.3086C76.6491 13.7954 77.602 13.4411 78.8116 13.2457L81.1023 12.8975V12.6409C81.1023 12.1767 81.0046 11.8346 80.8091 11.6147C80.6136 11.3947 80.2837 11.2848 79.8195 11.2848C79.5385 11.2848 79.3064 11.3337 79.1231 11.4314C78.9398 11.5291 78.7505 11.6635 78.555 11.8346C78.384 11.9812 78.2557 12.0789 78.1702 12.1278C78.1335 12.2255 78.0663 12.2744 77.9686 12.2744H75.971C75.8489 12.2744 75.745 12.2377 75.6595 12.1644C75.5862 12.0789 75.5557 11.9812 75.5679 11.8712C75.5801 11.5414 75.7389 11.1748 76.0443 10.7717C76.362 10.3685 76.8385 10.0203 77.4738 9.72709C78.1213 9.43387 78.9154 9.28726 79.8561 9.28726C81.3589 9.28726 82.4706 9.62324 83.1915 10.2952C83.9123 10.9549 84.2727 11.8468 84.2727 12.9708V18.5419C84.2727 18.664 84.2299 18.774 84.1444 18.8717C84.0589 18.9572 83.9489 19 83.8145 19H81.6887C81.5666 19 81.4566 18.9572 81.3589 18.8717C81.2733 18.774 81.2306 18.664 81.2306 18.5419V17.9004C80.9618 18.2792 80.5831 18.5907 80.0944 18.8351C79.6179 19.0672 79.0498 19.1833 78.3901 19.1833ZM79.2514 17.0941C79.8134 17.0941 80.2654 16.9108 80.6075 16.5443C80.9618 16.1778 81.139 15.6402 81.139 14.9316V14.6751L79.5812 14.95C78.4817 15.1454 77.9319 15.5303 77.9319 16.1045C77.9319 16.4099 78.0602 16.6543 78.3168 16.8375C78.5733 17.0086 78.8849 17.0941 79.2514 17.0941ZM87.3486 22.4819C87.2264 22.4819 87.1164 22.4392 87.0187 22.3536C86.9332 22.2681 86.8904 22.1582 86.8904 22.0238V9.92867C86.8904 9.79428 86.9332 9.68433 87.0187 9.59881C87.1164 9.51328 87.2264 9.47052 87.3486 9.47052H89.4194C89.5538 9.47052 89.6637 9.51328 89.7493 9.59881C89.8348 9.68433 89.8775 9.79428 89.8775 9.92867V10.5884C90.5373 9.72098 91.4841 9.28726 92.7181 9.28726C93.9154 9.28726 94.85 9.65989 95.5219 10.4051C96.1939 11.1504 96.5604 12.2011 96.6215 13.5572C96.6337 13.716 96.6398 13.942 96.6398 14.2353C96.6398 14.5285 96.6337 14.7545 96.6215 14.9133C96.5726 16.2328 96.2061 17.2774 95.5219 18.0471C94.8378 18.8045 93.9031 19.1833 92.7181 19.1833C91.5208 19.1833 90.6289 18.774 90.0425 17.9554V22.0238C90.0425 22.1582 89.9997 22.2681 89.9142 22.3536C89.8287 22.4392 89.7187 22.4819 89.5843 22.4819H87.3486ZM91.7285 16.7276C92.3027 16.7276 92.712 16.5565 92.9563 16.2145C93.2129 15.8724 93.3595 15.402 93.3961 14.8034C93.4206 14.559 93.4328 14.3697 93.4328 14.2353C93.4328 14.1009 93.4206 13.9115 93.3961 13.6672C93.3595 13.0685 93.2129 12.5981 92.9563 12.2561C92.712 11.914 92.3027 11.7429 91.7285 11.7429C91.1665 11.7429 90.7511 11.9201 90.4823 12.2744C90.2257 12.6165 90.0791 13.0624 90.0425 13.6122L90.0242 14.2902L90.0425 14.9866C90.0669 15.4875 90.2196 15.9029 90.5006 16.2328C90.7816 16.5627 91.1909 16.7276 91.7285 16.7276ZM99.4594 19C99.3373 19 99.2273 18.9572 99.1296 18.8717C99.044 18.774 99.0013 18.664 99.0013 18.5419V6.44675C99.0013 6.31236 99.044 6.2024 99.1296 6.11688C99.2273 6.03136 99.3373 5.9886 99.4594 5.9886H101.805C101.94 5.9886 102.049 6.03136 102.135 6.11688C102.221 6.2024 102.263 6.31236 102.263 6.44675V10.5334C102.996 9.70265 103.961 9.28726 105.159 9.28726C105.867 9.28726 106.497 9.44609 107.046 9.76374C107.608 10.0814 108.048 10.5518 108.366 11.1748C108.683 11.7979 108.842 12.5493 108.842 13.4289V18.5419C108.842 18.664 108.8 18.774 108.714 18.8717C108.628 18.9572 108.519 19 108.384 19H106.02C105.898 19 105.788 18.9572 105.69 18.8717C105.605 18.774 105.562 18.664 105.562 18.5419V13.5389C105.562 12.9647 105.421 12.5248 105.14 12.2194C104.872 11.9018 104.475 11.7429 103.949 11.7429C103.424 11.7429 103.009 11.9018 102.703 12.2194C102.41 12.5248 102.263 12.9647 102.263 13.5389V18.5419C102.263 18.6762 102.221 18.7862 102.135 18.8717C102.049 18.9572 101.94 19 101.805 19H99.4594ZM119.845 20.1912C119.674 20.1912 119.533 20.1484 119.424 20.0629C119.326 19.9896 119.234 19.8919 119.149 19.7697L118.526 18.945C118.061 19.1038 117.518 19.1833 116.895 19.1833C115.172 19.1833 113.816 18.7618 112.826 17.9188C111.849 17.0758 111.33 15.8357 111.268 14.1986C111.256 13.8443 111.25 13.319 111.25 12.6226C111.25 11.914 111.256 11.3825 111.268 11.0282C111.317 9.41555 111.843 8.17549 112.845 7.30807C113.859 6.42842 115.209 5.9886 116.895 5.9886C118.581 5.9886 119.931 6.42842 120.945 7.30807C121.959 8.17549 122.49 9.41555 122.539 11.0282C122.563 11.7368 122.576 12.2683 122.576 12.6226C122.576 12.9647 122.563 13.49 122.539 14.1986C122.49 15.7013 122.05 16.8742 121.219 17.7172L122.557 19.6231C122.594 19.6964 122.612 19.7575 122.612 19.8063V19.843C122.612 19.9407 122.576 20.0201 122.502 20.0812C122.429 20.1545 122.343 20.1912 122.246 20.1912H119.845ZM116.895 16.5443C117.566 16.5443 118.098 16.3427 118.489 15.9396C118.892 15.5364 119.106 14.9194 119.13 14.0887C119.155 13.3801 119.167 12.8791 119.167 12.5859C119.167 12.2683 119.155 11.7674 119.13 11.0832C119.106 10.2524 118.892 9.63546 118.489 9.23229C118.098 8.82912 117.566 8.62753 116.895 8.62753C116.235 8.62753 115.703 8.82912 115.3 9.23229C114.909 9.63546 114.702 10.2524 114.677 11.0832C114.665 11.4253 114.659 11.9262 114.659 12.5859C114.659 13.2334 114.665 13.7344 114.677 14.0887C114.702 14.9194 114.909 15.5364 115.3 15.9396C115.691 16.3427 116.223 16.5443 116.895 16.5443ZM125.726 19C125.604 19 125.494 18.9572 125.396 18.8717C125.311 18.774 125.268 18.664 125.268 18.5419V6.63001C125.268 6.49562 125.311 6.38566 125.396 6.30014C125.494 6.21462 125.604 6.17186 125.726 6.17186H128.145C128.279 6.17186 128.389 6.21462 128.475 6.30014C128.56 6.38566 128.603 6.49562 128.603 6.63001V16.2328H134.156C134.29 16.2328 134.4 16.2817 134.486 16.3794C134.571 16.4649 134.614 16.5749 134.614 16.7093V18.5419C134.614 18.664 134.571 18.774 134.486 18.8717C134.4 18.9572 134.29 19 134.156 19H125.726ZM55.3353 37C55.1277 37 54.9627 36.945 54.8405 36.8351C54.7184 36.7129 54.6451 36.5663 54.6206 36.3952L52.6231 24.685C52.6109 24.6483 52.6048 24.6056 52.6048 24.5567C52.6048 24.459 52.6414 24.3734 52.7147 24.3001C52.8003 24.2146 52.8919 24.1719 52.9896 24.1719H55.262C55.6041 24.1719 55.7935 24.3062 55.8301 24.575L57.0213 31.7221L58.3408 27.5072C58.4752 27.1773 58.6768 27.0124 58.9456 27.0124H60.265C60.5705 27.0124 60.772 27.1773 60.8698 27.5072L62.1892 31.7221L63.3804 24.575C63.4171 24.3062 63.6064 24.1719 63.9485 24.1719H66.2209C66.3309 24.1719 66.4225 24.2146 66.4958 24.3001C66.5814 24.3734 66.6241 24.459 66.6241 24.5567L66.6058 24.685L64.6083 36.3952C64.5838 36.5663 64.5044 36.7129 64.37 36.8351C64.2479 36.945 64.089 37 63.8935 37H62.1526C61.9571 37 61.8044 36.9511 61.6944 36.8534C61.5845 36.7557 61.5051 36.6457 61.4562 36.5235L59.6053 31.2823L57.7544 36.5235C57.6444 36.8412 57.4184 37 57.0763 37H55.3353ZM73.0469 37.1833C71.532 37.1833 70.3652 36.8228 69.5467 36.102C68.7281 35.3812 68.2822 34.3672 68.2089 33.0599C68.1967 32.9011 68.1905 32.6262 68.1905 32.2353C68.1905 31.8443 68.1967 31.5694 68.2089 31.4106C68.2822 30.1156 68.7403 29.1076 69.5833 28.3868C70.4263 27.6538 71.5808 27.2873 73.0469 27.2873C74.5252 27.2873 75.6858 27.6538 76.5288 28.3868C77.3718 29.1076 77.83 30.1156 77.9033 31.4106C77.9155 31.5694 77.9216 31.8443 77.9216 32.2353C77.9216 32.6262 77.9155 32.9011 77.9033 33.0599C77.83 34.3672 77.384 35.3812 76.5655 36.102C75.7469 36.8228 74.5741 37.1833 73.0469 37.1833ZM73.0469 34.9475C73.5845 34.9475 73.9815 34.7887 74.2381 34.471C74.4947 34.1412 74.6413 33.6402 74.6779 32.9683C74.6901 32.8461 74.6962 32.6018 74.6962 32.2353C74.6962 31.8687 74.6901 31.6244 74.6779 31.5022C74.6413 30.8425 74.4886 30.3477 74.2198 30.0178C73.9632 29.688 73.5723 29.523 73.0469 29.523C72.0329 29.523 71.4953 30.1828 71.4342 31.5022L71.4159 32.2353L71.4342 32.9683C71.4587 33.6402 71.5992 34.1412 71.8557 34.471C72.1245 34.7887 72.5216 34.9475 73.0469 34.9475ZM80.7498 37C80.6154 37 80.5055 36.9572 80.4199 36.8717C80.3344 36.7862 80.2917 36.6762 80.2917 36.5419V27.9287C80.2917 27.7943 80.3344 27.6843 80.4199 27.5988C80.5055 27.5133 80.6154 27.4705 80.7498 27.4705H82.8573C82.9917 27.4705 83.1016 27.5194 83.1872 27.6171C83.2849 27.7027 83.3338 27.8065 83.3338 27.9287V28.6617C84.0057 27.8676 84.9098 27.4705 86.046 27.4705H86.8523C86.9867 27.4705 87.0967 27.5133 87.1822 27.5988C87.2677 27.6843 87.3105 27.7943 87.3105 27.9287V29.8162C87.3105 29.9384 87.2677 30.0484 87.1822 30.1461C87.0967 30.2316 86.9867 30.2744 86.8523 30.2744H85.0747C84.5738 30.2744 84.1829 30.4149 83.9019 30.6959C83.6331 30.9647 83.4987 31.3495 83.4987 31.8504V36.5419C83.4987 36.6762 83.4498 36.7862 83.3521 36.8717C83.2666 36.9572 83.1566 37 83.0222 37H80.7498ZM89.6214 37C89.4992 37 89.3893 36.9572 89.2915 36.8717C89.206 36.774 89.1633 36.664 89.1633 36.5419V24.4467C89.1633 24.3124 89.206 24.2024 89.2915 24.1169C89.3893 24.0314 89.4992 23.9886 89.6214 23.9886H91.7472C91.8816 23.9886 91.9916 24.0314 92.0771 24.1169C92.1626 24.2024 92.2054 24.3124 92.2054 24.4467V30.5859L94.7527 27.7821C94.7771 27.7576 94.8199 27.7149 94.881 27.6538C94.9543 27.5927 95.0276 27.5499 95.1009 27.5255C95.1742 27.4888 95.2597 27.4705 95.3574 27.4705H97.8131C97.9231 27.4705 98.0147 27.5133 98.088 27.5988C98.1735 27.6721 98.2163 27.7637 98.2163 27.8737C98.2163 28.0081 98.1674 28.1119 98.0697 28.1852L94.771 31.7405L98.5278 36.3036C98.6255 36.4014 98.6744 36.493 98.6744 36.5785C98.6744 36.7007 98.6317 36.8045 98.5461 36.89C98.4728 36.9633 98.3751 37 98.2529 37H95.7423C95.5834 37 95.4613 36.9756 95.3758 36.9267C95.3024 36.8778 95.2108 36.7984 95.1009 36.6885L92.2054 33.2065V36.5419C92.2054 36.664 92.1626 36.774 92.0771 36.8717C91.9916 36.9572 91.8816 37 91.7472 37H89.6214ZM104.158 37.1833C103.168 37.1833 102.338 37.0428 101.666 36.7618C101.006 36.4808 100.517 36.1448 100.199 35.7538C99.8818 35.3629 99.723 35.0147 99.723 34.7093C99.723 34.5871 99.7658 34.4893 99.8513 34.416C99.949 34.3305 100.053 34.2878 100.163 34.2878H102.252C102.325 34.2878 102.392 34.3183 102.454 34.3794C102.6 34.4771 102.71 34.5565 102.783 34.6176C103.052 34.8131 103.284 34.9597 103.48 35.0575C103.688 35.143 103.938 35.1857 104.231 35.1857C104.585 35.1857 104.873 35.1185 105.092 34.9841C105.325 34.8375 105.441 34.636 105.441 34.3794C105.441 34.1717 105.38 34.0068 105.257 33.8846C105.147 33.7624 104.928 33.6464 104.598 33.5364C104.268 33.4142 103.767 33.2859 103.095 33.1516C102.081 32.9439 101.299 32.6079 100.749 32.1436C100.212 31.6672 99.9429 31.0319 99.9429 30.2377C99.9429 29.7368 100.102 29.2604 100.419 28.8083C100.737 28.3563 101.207 27.9898 101.83 27.7088C102.466 27.4278 103.217 27.2873 104.085 27.2873C104.952 27.2873 105.709 27.4217 106.357 27.6904C107.004 27.9592 107.493 28.2891 107.823 28.68C108.165 29.0588 108.336 29.407 108.336 29.7246C108.336 29.8346 108.293 29.9323 108.208 30.0178C108.135 30.1033 108.043 30.1461 107.933 30.1461H106.027C105.929 30.1461 105.838 30.1156 105.752 30.0545C105.593 29.969 105.453 29.8773 105.331 29.7796C105.123 29.6208 104.928 29.4986 104.744 29.4131C104.561 29.3275 104.335 29.2848 104.066 29.2848C103.749 29.2848 103.492 29.3581 103.297 29.5047C103.113 29.6513 103.022 29.8407 103.022 30.0728C103.022 30.2561 103.071 30.4088 103.168 30.531C103.278 30.6531 103.498 30.7753 103.828 30.8975C104.17 31.0074 104.671 31.1235 105.331 31.2457C106.516 31.4534 107.377 31.8199 107.915 32.3452C108.464 32.8706 108.739 33.4875 108.739 34.1961C108.739 35.1002 108.336 35.8271 107.53 36.3769C106.724 36.9145 105.6 37.1833 104.158 37.1833ZM111.373 37C111.251 37 111.141 36.9572 111.044 36.8717C110.958 36.774 110.915 36.664 110.915 36.5419V24.4467C110.915 24.3124 110.958 24.2024 111.044 24.1169C111.141 24.0314 111.251 23.9886 111.373 23.9886H113.719C113.854 23.9886 113.963 24.0314 114.049 24.1169C114.135 24.2024 114.177 24.3124 114.177 24.4467V28.5334C114.91 27.7027 115.875 27.2873 117.073 27.2873C117.781 27.2873 118.411 27.4461 118.96 27.7637C119.522 28.0814 119.962 28.5518 120.28 29.1748C120.597 29.7979 120.756 30.5493 120.756 31.4289V36.5419C120.756 36.664 120.714 36.774 120.628 36.8717C120.542 36.9572 120.433 37 120.298 37H117.934C117.812 37 117.702 36.9572 117.604 36.8717C117.519 36.774 117.476 36.664 117.476 36.5419V31.5389C117.476 30.9647 117.335 30.5248 117.054 30.2194C116.786 29.9018 116.389 29.7429 115.863 29.7429C115.338 29.7429 114.923 29.9018 114.617 30.2194C114.324 30.5248 114.177 30.9647 114.177 31.5389V36.5419C114.177 36.6762 114.135 36.7862 114.049 36.8717C113.963 36.9572 113.854 37 113.719 37H111.373ZM127.892 37.1833C126.377 37.1833 125.211 36.8228 124.392 36.102C123.573 35.3812 123.127 34.3672 123.054 33.0599C123.042 32.9011 123.036 32.6262 123.036 32.2353C123.036 31.8443 123.042 31.5694 123.054 31.4106C123.127 30.1156 123.586 29.1076 124.429 28.3868C125.272 27.6538 126.426 27.2873 127.892 27.2873C129.371 27.2873 130.531 27.6538 131.374 28.3868C132.217 29.1076 132.675 30.1156 132.749 31.4106C132.761 31.5694 132.767 31.8443 132.767 32.2353C132.767 32.6262 132.761 32.9011 132.749 33.0599C132.675 34.3672 132.229 35.3812 131.411 36.102C130.592 36.8228 129.419 37.1833 127.892 37.1833ZM127.892 34.9475C128.43 34.9475 128.827 34.7887 129.083 34.471C129.34 34.1412 129.487 33.6402 129.523 32.9683C129.535 32.8461 129.542 32.6018 129.542 32.2353C129.542 31.8687 129.535 31.6244 129.523 31.5022C129.487 30.8425 129.334 30.3477 129.065 30.0178C128.809 29.688 128.418 29.523 127.892 29.523C126.878 29.523 126.341 30.1828 126.28 31.5022L126.261 32.2353L126.28 32.9683C126.304 33.6402 126.444 34.1412 126.701 34.471C126.97 34.7887 127.367 34.9475 127.892 34.9475ZM135.595 40.4819C135.473 40.4819 135.363 40.4392 135.265 40.3536C135.18 40.2681 135.137 40.1582 135.137 40.0238V27.9287C135.137 27.7943 135.18 27.6843 135.265 27.5988C135.363 27.5133 135.473 27.4705 135.595 27.4705H137.666C137.8 27.4705 137.91 27.5133 137.996 27.5988C138.081 27.6843 138.124 27.7943 138.124 27.9287V28.5884C138.784 27.721 139.731 27.2873 140.965 27.2873C142.162 27.2873 143.097 27.6599 143.768 28.4051C144.44 29.1504 144.807 30.2011 144.868 31.5572C144.88 31.716 144.886 31.942 144.886 32.2353C144.886 32.5285 144.88 32.7545 144.868 32.9133C144.819 34.2328 144.453 35.2774 143.768 36.0471C143.084 36.8045 142.15 37.1833 140.965 37.1833C139.767 37.1833 138.875 36.774 138.289 35.9554V40.0238C138.289 40.1582 138.246 40.2681 138.161 40.3536C138.075 40.4392 137.965 40.4819 137.831 40.4819H135.595ZM139.975 34.7276C140.549 34.7276 140.959 34.5565 141.203 34.2145C141.459 33.8724 141.606 33.402 141.643 32.8034C141.667 32.559 141.679 32.3697 141.679 32.2353C141.679 32.1009 141.667 31.9115 141.643 31.6672C141.606 31.0685 141.459 30.5981 141.203 30.2561C140.959 29.914 140.549 29.7429 139.975 29.7429C139.413 29.7429 138.998 29.9201 138.729 30.2744C138.472 30.6165 138.326 31.0624 138.289 31.6122L138.271 32.2902L138.289 32.9866C138.313 33.4875 138.466 33.9029 138.747 34.2328C139.028 34.5627 139.437 34.7276 139.975 34.7276Z" fill="white"/>
</svg>
