<svg width="175" height="96" viewBox="0 0 175 96" fill="none" xmlns="http://www.w3.org/2000/svg">
<g filter="url(#filter0_d)">
<path d="M26.6959 46V26.8444H34.8748V29.4271H29.4402V35.0501H34.1753V37.6329H29.4402V43.2558H34.8748V46H26.6959ZM37.7566 46V26.8444H40.3932L44.5364 38.3862H44.5903V26.8444H47.3345V46H44.7517L40.5547 34.4851H40.5009V46H37.7566ZM50.8679 31.3642C50.8679 30.593 51.0024 29.9114 51.2715 29.3195C51.5405 28.7276 51.8992 28.2344 52.3476 27.8398C52.7781 27.4631 53.2624 27.1762 53.8005 26.9789C54.3565 26.7816 54.9125 26.6829 55.4685 26.6829C56.0245 26.6829 56.5716 26.7816 57.1097 26.9789C57.6657 27.1762 58.1679 27.4631 58.6163 27.8398C59.0467 28.2344 59.3965 28.7276 59.6655 29.3195C59.9346 29.9114 60.0691 30.593 60.0691 31.3642V32.3328H57.3249V31.3642C57.3249 30.7006 57.1366 30.2163 56.7599 29.9114C56.4012 29.5886 55.9707 29.4271 55.4685 29.4271C54.9663 29.4271 54.5269 29.5886 54.1502 29.9114C53.7915 30.2163 53.6121 30.7006 53.6121 31.3642V41.4801C53.6121 42.1438 53.7915 42.637 54.1502 42.9598C54.5269 43.2648 54.9663 43.4172 55.4685 43.4172C55.9707 43.4172 56.4012 43.2648 56.7599 42.9598C57.1366 42.637 57.3249 42.1438 57.3249 41.4801V37.875H55.1457V35.4536H60.0691V41.4801C60.0691 42.2872 59.9346 42.9778 59.6655 43.5517C59.3965 44.1257 59.0467 44.601 58.6163 44.9776C58.1679 45.3722 57.6657 45.6682 57.1097 45.8655C56.5716 46.0628 56.0245 46.1614 55.4685 46.1614C54.9125 46.1614 54.3565 46.0628 53.8005 45.8655C53.2624 45.6682 52.7781 45.3722 52.3476 44.9776C51.8992 44.601 51.5405 44.1257 51.2715 43.5517C51.0024 42.9778 50.8679 42.2872 50.8679 41.4801V31.3642ZM63.776 46V26.8444H66.5202V46H63.776ZM70.2895 46V26.8444H72.9261L77.0693 38.3862H77.1231V26.8444H79.8673V46H77.2845L73.0875 34.4851H73.0337V46H70.2895ZM83.5622 46V26.8444H91.741V29.4271H86.3064V35.0501H91.0415V37.6329H86.3064V43.2558H91.741V46H83.5622ZM94.7305 46V26.8444H102.909V29.4271H97.4747V35.0501H102.21V37.6329H97.4747V43.2558H102.909V46H94.7305ZM108.643 29.4271V35.3998H110.203C110.688 35.3998 111.073 35.337 111.36 35.2115C111.647 35.068 111.871 34.8707 112.033 34.6196C112.176 34.3685 112.275 34.0636 112.329 33.7049C112.383 33.3282 112.41 32.8978 112.41 32.4135C112.41 31.9292 112.383 31.5077 112.329 31.149C112.275 30.7723 112.167 30.4495 112.006 30.1804C111.665 29.6782 111.02 29.4271 110.069 29.4271H108.643ZM105.899 46V26.8444H110.311C113.54 26.8444 115.154 28.7187 115.154 32.4673C115.154 33.5973 114.974 34.5568 114.616 35.346C114.275 36.1352 113.665 36.7719 112.786 37.2562L115.746 46H112.84L110.284 37.8212H108.643V46H105.899ZM118.645 46V26.8444H121.39V46H118.645ZM125.159 46V26.8444H127.796L131.939 38.3862H131.993V26.8444H134.737V46H132.154L127.957 34.4851H127.903V46H125.159ZM138.27 31.3642C138.27 30.593 138.405 29.9114 138.674 29.3195C138.943 28.7276 139.302 28.2344 139.75 27.8398C140.18 27.4631 140.665 27.1762 141.203 26.9789C141.759 26.7816 142.315 26.6829 142.871 26.6829C143.427 26.6829 143.974 26.7816 144.512 26.9789C145.068 27.1762 145.57 27.4631 146.019 27.8398C146.449 28.2344 146.799 28.7276 147.068 29.3195C147.337 29.9114 147.471 30.593 147.471 31.3642V32.3328H144.727V31.3642C144.727 30.7006 144.539 30.2163 144.162 29.9114C143.803 29.5886 143.373 29.4271 142.871 29.4271C142.369 29.4271 141.929 29.5886 141.552 29.9114C141.194 30.2163 141.014 30.7006 141.014 31.3642V41.4801C141.014 42.1438 141.194 42.637 141.552 42.9598C141.929 43.2648 142.369 43.4172 142.871 43.4172C143.373 43.4172 143.803 43.2648 144.162 42.9598C144.539 42.637 144.727 42.1438 144.727 41.4801V37.875H142.548V35.4536H147.471V41.4801C147.471 42.2872 147.337 42.9778 147.068 43.5517C146.799 44.1257 146.449 44.601 146.019 44.9776C145.57 45.3722 145.068 45.6682 144.512 45.8655C143.974 46.0628 143.427 46.1614 142.871 46.1614C142.315 46.1614 141.759 46.0628 141.203 45.8655C140.665 45.6682 140.18 45.3722 139.75 44.9776C139.302 44.601 138.943 44.1257 138.674 43.5517C138.405 42.9778 138.27 42.2872 138.27 41.4801V31.3642ZM26.6476 70V50.8444H29.2842L32.8086 60.9872H32.8624L36.3599 50.8444H39.0234V70H36.2792V58.3506H36.2254L33.5081 66.5832H32.136L29.4456 58.3506H29.3918V70H26.6476ZM47.9465 63.3009L46.6013 56.3597H46.5475L45.2023 63.3009H47.9465ZM41.1667 70L45.4445 50.8444H47.7313L52.009 70H49.2648L48.4577 65.8837H44.7181L43.9109 70H41.1667ZM54.0598 70V50.8444H56.6964L60.8396 62.3862H60.8935V50.8444H63.6377V70H61.0549L56.8579 58.4851H56.804V70H54.0598ZM72.4712 63.3009L71.126 56.3597H71.0722L69.727 63.3009H72.4712ZM65.6914 70L69.9691 50.8444H72.256L76.5337 70H73.7895L72.9824 65.8837H69.2427L68.4356 70H65.6914ZM78.5307 55.3642C78.5307 54.593 78.6652 53.9114 78.9343 53.3195C79.2033 52.7276 79.562 52.2344 80.0104 51.8398C80.4409 51.4631 80.9252 51.1762 81.4632 50.9789C82.0193 50.7816 82.5753 50.6829 83.1313 50.6829C83.6873 50.6829 84.2344 50.7816 84.7724 50.9789C85.3285 51.1762 85.8307 51.4631 86.2791 51.8398C86.7095 52.2344 87.0593 52.7276 87.3283 53.3195C87.5974 53.9114 87.7319 54.593 87.7319 55.3642V56.3328H84.9877V55.3642C84.9877 54.7006 84.7993 54.2163 84.4227 53.9114C84.064 53.5886 83.6335 53.4271 83.1313 53.4271C82.6291 53.4271 82.1897 53.5886 81.813 53.9114C81.4543 54.2163 81.2749 54.7006 81.2749 55.3642V65.4801C81.2749 66.1438 81.4543 66.637 81.813 66.9598C82.1897 67.2648 82.6291 67.4172 83.1313 67.4172C83.6335 67.4172 84.064 67.2648 84.4227 66.9598C84.7993 66.637 84.9877 66.1438 84.9877 65.4801V61.875H82.8084V59.4536H87.7319V65.4801C87.7319 66.2872 87.5974 66.9778 87.3283 67.5517C87.0593 68.1257 86.7095 68.601 86.2791 68.9776C85.8307 69.3722 85.3285 69.6682 84.7724 69.8655C84.2344 70.0628 83.6873 70.1614 83.1313 70.1614C82.5753 70.1614 82.0193 70.0628 81.4632 69.8655C80.9252 69.6682 80.4409 69.3722 80.0104 68.9776C79.562 68.601 79.2033 68.1257 78.9343 67.5517C78.6652 66.9778 78.5307 66.2872 78.5307 65.4801V55.3642ZM90.9545 70V50.8444H99.1333V53.4271H93.6987V59.0501H98.4338V61.6329H93.6987V67.2558H99.1333V70H90.9545ZM101.719 70V50.8444H104.356L107.88 60.9872H107.934L111.432 50.8444H114.095V70H111.351V58.3506H111.297L108.58 66.5832H107.208L104.517 58.3506H104.463V70H101.719ZM117.476 70V50.8444H125.655V53.4271H120.22V59.0501H124.955V61.6329H120.22V67.2558H125.655V70H117.476ZM128.133 70V50.8444H130.77L134.913 62.3862H134.967V50.8444H137.711V70H135.128L130.931 58.4851H130.877V70H128.133ZM142.805 70V53.4271H139.63V50.8444H148.724V53.4271H145.549V70H142.805Z" fill="white"/>
</g>
<defs>
<filter id="filter0_d" x="0.856426" y="0.891735" width="173.658" height="95.0609" filterUnits="userSpaceOnUse" color-interpolation-filters="sRGB">
<feFlood flood-opacity="0" result="BackgroundImageFix"/>
<feColorMatrix in="SourceAlpha" type="matrix" values="0 0 0 0 0 0 0 0 0 0 0 0 0 0 0 0 0 0 127 0" result="hardAlpha"/>
<feOffset/>
<feGaussianBlur stdDeviation="12.8956"/>
<feColorMatrix type="matrix" values="0 0 0 0 0 0 0 0 0 0 0 0 0 0 0 0 0 0 0.85 0"/>
<feBlend mode="normal" in2="BackgroundImageFix" result="effect1_dropShadow"/>
<feBlend mode="normal" in="SourceGraphic" in2="effect1_dropShadow" result="shape"/>
</filter>
</defs>
</svg>
