<svg width="133" height="34" viewBox="0 0 133 34" fill="none" xmlns="http://www.w3.org/2000/svg">
<path d="M50.3195 24.565C53.8467 24.565 55.8018 23.013 55.8018 20.3323C55.8018 17.9137 54.4312 16.7447 51.2467 16.1602C48.4652 15.6765 47.921 15.3338 47.921 14.3865C47.921 13.5601 48.6869 12.9958 50.1583 12.9958C51.6095 12.9958 52.4963 13.4795 52.7785 14.8501L55.4994 14.326C54.9956 11.7865 53.2622 10.5368 50.2994 10.5368C47.135 10.5368 45.0791 12.0686 45.0791 14.6888C45.0791 17.309 46.8528 18.216 49.5738 18.6594C52.3552 19.123 52.98 19.5463 52.98 20.5742C52.98 21.6223 52.1134 22.106 50.4405 22.106C48.6063 22.106 47.8807 21.5215 47.5784 20.1711L44.8776 20.6951C45.3613 23.3758 46.9737 24.565 50.3195 24.565ZM61.8588 24.5448C64.2371 24.5448 65.9705 23.396 66.3937 21.1386L63.834 20.7556C63.6324 21.6424 63.0278 22.0859 62.02 22.0859C60.7301 22.0859 59.9037 21.2595 59.9037 19.244C59.9037 17.4703 60.7099 16.4424 62.0603 16.4424C62.9472 16.4424 63.5518 16.8858 63.7735 17.7928L66.3534 17.4098C65.9503 15.0718 64.4387 13.9834 61.9797 13.9834C59.1781 13.9834 57.0618 15.9788 57.0618 19.3447C57.0618 22.8114 59.0169 24.5448 61.8588 24.5448ZM73.6215 14.0036C72.2106 14.0036 71.3036 14.7493 70.7997 15.7571L70.6586 14.2857H68.0989V24.2626H70.9207V18.9013C71.2028 17.6114 72.1098 16.9462 73.2788 16.9462C73.6618 16.9462 73.9036 16.9866 74.2261 17.0873L74.6494 14.1446C74.3068 14.0439 74.0246 14.0036 73.6215 14.0036ZM77.4036 12.9756C78.4315 12.9756 79.1974 12.3105 79.1974 11.2221C79.1974 10.0934 78.4315 9.44845 77.4036 9.44845C76.4361 9.44845 75.6098 10.0934 75.6098 11.2221C75.6098 12.3105 76.4361 12.9756 77.4036 12.9756ZM76.0129 24.2626H78.8346V14.2857H76.0129V24.2626ZM87.2285 13.9834C85.7975 13.9834 84.7293 14.5881 84.0843 15.6765L83.9634 14.2857H81.444V28.2937H84.2657V23.3758C84.9107 24.1417 85.858 24.5448 87.0471 24.5448C89.4658 24.5448 91.5015 22.7308 91.5015 19.1633C91.5015 15.6765 89.7077 13.9834 87.2285 13.9834ZM88.6394 19.2641C88.6193 21.2192 87.7324 22.0859 86.3619 22.0859C85.3138 22.0859 84.5479 21.582 84.2657 20.6548V18.0749C84.568 17.0873 85.3339 16.4424 86.4223 16.4424C87.7727 16.4424 88.6596 17.309 88.6394 19.2641ZM99.2989 21.1789C99.0369 21.7835 98.6741 22.0052 98.1098 22.0052C97.4446 22.0052 97.0214 21.6827 97.0214 20.7758V16.6842H100.448V14.2857H97.0214V11.4841H94.3004V14.326H92.305V16.6842H94.1996V21.0176C94.1996 23.4967 95.4694 24.5448 97.5656 24.5448C99.3997 24.5448 100.549 23.8595 101.073 22.5897L99.2989 21.1789ZM115.072 24.2828L118.397 24.2626L112.834 16.7044L118.256 10.8392H114.89L109.388 16.8455V10.8392H106.526V24.2626H109.388V20.292L110.94 18.6998L115.072 24.2828ZM121.001 12.9756C122.029 12.9756 122.795 12.3105 122.795 11.2221C122.795 10.0934 122.029 9.44845 121.001 9.44845C120.034 9.44845 119.208 10.0934 119.208 11.2221C119.208 12.3105 120.034 12.9756 121.001 12.9756ZM119.611 24.2626H122.432V14.2857H119.611V24.2626ZM131.028 21.1789C130.766 21.7835 130.403 22.0052 129.839 22.0052C129.174 22.0052 128.75 21.6827 128.75 20.7758V16.6842H132.177V14.2857H128.75V11.4841H126.029V14.326H124.034V16.6842H125.929V21.0176C125.929 23.4967 127.198 24.5448 129.294 24.5448C131.129 24.5448 132.277 23.8595 132.802 22.5897L131.028 21.1789Z" fill="white"/>
<rect x="6.10352e-05" width="34" height="34" rx="4.25" fill="white"/>
<path d="M8.57372 11.3284L15.8578 15.8812C15.9789 15.9569 16.0788 16.0621 16.148 16.187C16.2173 16.3119 16.2536 16.4524 16.2536 16.5952C16.2536 16.738 16.2173 16.8785 16.148 17.0034C16.0788 17.1283 15.9789 17.2335 15.8578 17.3092L8.57291 21.862C8.44548 21.9414 8.29914 21.9852 8.14905 21.989C7.99895 21.9929 7.85057 21.9565 7.71928 21.8836C7.58798 21.8108 7.47856 21.7042 7.40233 21.5748C7.32611 21.4455 7.28586 21.2981 7.28577 21.148V12.0424C7.28577 11.8922 7.326 11.7446 7.40226 11.6152C7.47853 11.4857 7.58805 11.379 7.71947 11.3061C7.8509 11.2333 7.99942 11.1969 8.14964 11.2008C8.29985 11.2048 8.44628 11.2488 8.57372 11.3284V11.3284Z" fill="#111111"/>
<path d="M25.5 19.4285H17.4048C16.7342 19.4285 16.1905 19.9722 16.1905 20.6428C16.1905 21.3134 16.7342 21.8571 17.4048 21.8571H25.5C26.1707 21.8571 26.7143 21.3134 26.7143 20.6428C26.7143 19.9722 26.1707 19.4285 25.5 19.4285Z" fill="#111111"/>
</svg>
