<svg width="198" height="36" viewBox="0 0 198 36" fill="none" xmlns="http://www.w3.org/2000/svg">
<path d="M51.0492 24H54.4001V19.2547H56.1195L58.6512 24H62.3066L59.4296 18.7199C60.9527 18.0295 61.8328 16.6688 61.8328 14.7531C61.8328 11.9032 59.89 10.1365 56.7761 10.1365H51.0492V24ZM54.4001 16.6147V12.8374H56.0518C57.5546 12.8374 58.3601 13.467 58.3601 14.7531C58.3601 16.0393 57.5546 16.6147 56.0518 16.6147H54.4001ZM70.379 19.5119C70.379 20.7237 69.6073 21.4006 68.6258 21.4006C67.6104 21.4006 66.9876 20.7101 66.9808 19.5796V13.6023H63.6706V20.2295C63.6774 22.5784 65.1057 24.1354 67.2448 24.1354C68.8018 24.1354 69.9593 23.3366 70.4196 22.064H70.5279V24H73.6824V13.6023H70.379V19.5119ZM84.867 16.7771C84.691 14.7193 83.0055 13.467 80.1894 13.467C77.3734 13.467 75.5795 14.6922 75.5931 16.7771C75.5795 18.3747 76.6017 19.4036 78.6799 19.7895L80.4941 20.1347C81.3538 20.304 81.7464 20.5747 81.7599 21.035C81.7464 21.5563 81.1642 21.9015 80.318 21.9015C79.3771 21.9015 78.7408 21.4954 78.5986 20.7372L75.3291 20.8184C75.566 22.8763 77.3328 24.1963 80.3045 24.1963C83.0867 24.1963 85.1107 22.8086 85.1243 20.6695C85.1107 19.1532 84.1089 18.2529 82.0375 17.8535L80.0337 17.4744C79.1537 17.2984 78.8694 16.987 78.8762 16.5876C78.8694 16.0596 79.4854 15.7347 80.2504 15.7347C81.1236 15.7347 81.7328 16.2018 81.8276 16.8584L84.867 16.7771ZM92.623 13.6023H90.7479V11.1112H87.4377V13.6023H86.0635V16.0393H87.4377V21.096C87.4174 23.2012 88.7848 24.2572 91.1202 24.1489C91.919 24.1083 92.4943 23.9458 92.8125 23.8511L92.3116 21.4615C92.1694 21.4954 91.8377 21.563 91.5873 21.563C91.0525 21.563 90.7479 21.3464 90.7479 20.7304V16.0393H92.623V13.6023ZM101.406 24L102.32 21.0892H107.106L108.02 24H111.621L106.943 10.1365H102.482L97.8049 24H101.406ZM103.119 18.5439L104.655 13.6294H104.764L106.307 18.5439H103.119ZM116.26 24.1489C117.83 24.1489 118.764 23.2757 119.184 22.3144H119.286V24H122.562V10.1365H119.252V15.3827H119.184C118.791 14.4282 117.884 13.467 116.246 13.467C114.073 13.467 112.103 15.139 112.103 18.8079C112.103 22.3483 113.965 24.1489 116.26 24.1489ZM117.41 21.5698C116.185 21.5698 115.502 20.48 115.502 18.8012C115.502 17.1291 116.178 16.0528 117.41 16.0528C118.622 16.0528 119.326 17.1021 119.326 18.8012C119.326 20.4867 118.615 21.5698 117.41 21.5698ZM134.742 13.6023H131.255L129.333 20.7643H129.225L127.309 13.6023H123.823L127.383 24H131.174L134.742 13.6023ZM140.536 24.1963C143.264 24.1963 145.058 22.8763 145.437 20.832L142.398 20.744C142.14 21.4344 141.464 21.8067 140.597 21.8067C139.324 21.8067 138.539 20.9606 138.539 19.6879V19.5999H145.471V18.7741C145.471 15.3488 143.386 13.467 140.435 13.467C137.294 13.467 135.276 15.6196 135.276 18.8418C135.276 22.1723 137.267 24.1963 140.536 24.1963ZM138.539 17.6775C138.587 16.6418 139.406 15.8565 140.502 15.8565C141.592 15.8565 142.377 16.6147 142.391 17.6775H138.539ZM150.472 18.0701C150.479 16.8855 151.169 16.1814 152.218 16.1814C153.268 16.1814 153.89 16.8719 153.884 18.0227V24H157.194V17.3728C157.2 15.0307 155.772 13.467 153.586 13.467C152.049 13.467 150.885 14.2454 150.424 15.5113H150.309V13.6023H147.162V24H150.472V18.0701ZM165.112 13.6023H163.237V11.1112H159.927V13.6023H158.553V16.0393H159.927V21.096C159.907 23.2012 161.274 24.2572 163.609 24.1489C164.408 24.1083 164.984 23.9458 165.302 23.8511L164.801 21.4615C164.659 21.4954 164.327 21.563 164.076 21.563C163.542 21.563 163.237 21.3464 163.237 20.7304V16.0393H165.112V13.6023ZM173.509 19.5119C173.509 20.7237 172.738 21.4006 171.756 21.4006C170.741 21.4006 170.118 20.7101 170.111 19.5796V13.6023H166.801V20.2295C166.808 22.5784 168.236 24.1354 170.375 24.1354C171.932 24.1354 173.09 23.3366 173.55 22.064H173.658V24H176.813V13.6023H173.509V19.5119ZM178.92 24H182.23V18.3544C182.23 17.1156 183.11 16.283 184.295 16.283C184.687 16.283 185.276 16.3507 185.594 16.459V13.582C185.317 13.5076 184.972 13.4602 184.667 13.4602C183.53 13.4602 182.623 14.1236 182.244 15.4977H182.135V13.6023H178.92V24ZM191.264 24.1963C193.992 24.1963 195.786 22.8763 196.165 20.832L193.125 20.744C192.868 21.4344 192.191 21.8067 191.325 21.8067C190.052 21.8067 189.267 20.9606 189.267 19.6879V19.5999H196.198V18.7741C196.198 15.3488 194.114 13.467 191.162 13.467C188.021 13.467 186.004 15.6196 186.004 18.8418C186.004 22.1723 187.994 24.1963 191.264 24.1963ZM189.267 17.6775C189.314 16.6418 190.133 15.8565 191.23 15.8565C192.32 15.8565 193.105 16.6147 193.118 17.6775H189.267Z" fill="white"/>
<path d="M5.98216 20.4599C13.1157 24.3168 29.8843 24.3168 37.0169 20.4599L32.8088 14.8201L15.2641 13.2244L5.98216 20.4599Z" fill="#D8D8D8"/>
<path d="M34.4064 26.4775L34.6121 17.7597L34.4383 16.8514L35.7609 15.0134C36.7925 15.3203 38.9018 15.4312 39.2895 18.1482C39.6044 20.3543 36.5601 24.7238 35.0805 26.6966C34.8614 26.9893 34.3993 26.8438 34.4064 26.4775Z" fill="#D8D8D8"/>
<path d="M8.59455 26.4775L8.38873 17.7597L8.56258 16.8514L7.24002 15.0134C6.20839 15.3203 4.09902 15.4312 3.71138 18.1482C3.39648 20.3543 6.44081 24.7238 7.92039 26.6966C8.13949 26.9893 8.60076 26.8438 8.59455 26.4775Z" fill="#D8D8D8"/>
<path d="M36.8032 19.0619C37.1136 18.8606 37.511 19.1959 37.4525 19.5613L35.5693 29.5458C35.4983 29.984 36.027 30.2386 36.3419 29.9246C38.4557 27.8108 43 23.5317 43 20.8298C43 16.2225 38.1825 17.0457 38.7414 15.6468C38.7893 15.5271 38.8656 15.4215 38.9534 15.3275L40.1633 14.0342C40.2395 13.9526 40.2901 13.8462 40.291 13.7335C40.2928 13.5126 40.1384 13.3352 39.9362 13.2971L38.3803 12.9973C38.1284 12.9485 37.9164 12.7799 37.8126 12.5458L37.7292 12.3586C37.6246 12.1244 37.6414 11.8539 37.7745 11.6348L38.5852 10.29C38.6429 10.1942 38.6704 10.0789 38.6482 9.9689C38.6038 9.75247 38.4167 9.61143 38.2109 9.61498L36.6267 9.64513C36.3703 9.65046 36.1281 9.52894 35.9773 9.32226L35.8567 9.15638C35.7059 8.94881 35.666 8.68093 35.7502 8.43877L36.2638 6.95475C36.3002 6.84831 36.3029 6.73122 36.2585 6.62832C36.1707 6.42607 35.9578 6.32673 35.7573 6.37374L34.2139 6.73299C33.9647 6.79065 33.7021 6.72323 33.5114 6.55204L33.3597 6.41544C33.169 6.24424 33.0749 5.98966 33.106 5.73597L33.3003 4.17745C33.3145 4.06568 33.2923 3.95036 33.2266 3.85899C33.0989 3.67981 32.87 3.62659 32.6829 3.7144L31.2477 4.38678C31.0153 4.49589 30.7447 4.48346 30.523 4.35573L30.3456 4.25373C30.1238 4.12511 29.9783 3.89714 29.9561 3.64167L29.8222 2.07694C29.8124 1.96517 29.7672 1.85607 29.6847 1.78067C29.5224 1.63165 29.2873 1.6272 29.1232 1.75139L27.8592 2.70673C27.6543 2.86108 27.3873 2.90631 27.1433 2.82737L26.9491 2.76439C26.7051 2.68544 26.5153 2.49207 26.4408 2.24636L25.984 0.743717C25.9511 0.636385 25.8846 0.539703 25.7879 0.482933C25.5981 0.371166 25.3675 0.415518 25.2327 0.571637L24.1948 1.76914C24.0272 1.96251 23.7753 2.06275 23.5198 2.03525L23.3167 2.01396C23.0621 1.98735 22.8359 1.83744 22.7117 1.61302L21.9524 0.237222C21.8992 0.140535 21.8149 0.0606993 21.7093 0.0243308C21.6499 0.00392893 21.5896 -0.00316823 21.5311 0.00126695C21.5213 0.000379917 21.5106 0.00037905 21.5 0.00037905C21.4894 0.00037905 21.4796 0.000379917 21.4689 0.00126695C21.4113 -0.00316823 21.3501 0.00392893 21.2907 0.0243308C21.186 0.0598123 21.1017 0.139648 21.0476 0.237222L20.2883 1.61302C20.1641 1.83744 19.9388 1.98735 19.6833 2.01396L19.4802 2.03525C19.2256 2.06186 18.9737 1.96251 18.8052 1.76914L17.7673 0.571637C17.6325 0.416405 17.4019 0.371166 17.2121 0.482933C17.1154 0.539703 17.048 0.636385 17.016 0.743717L16.5592 2.24636C16.4847 2.49207 16.2948 2.68544 16.0509 2.76439L15.8567 2.82737C15.6127 2.90631 15.3457 2.86196 15.1408 2.70673L13.8768 1.75139C13.7127 1.6272 13.4776 1.63165 13.3153 1.78067C13.2328 1.85607 13.1867 1.96517 13.1778 2.07694L13.0439 3.64167C13.0217 3.89714 12.8762 4.126 12.6545 4.25373L12.4771 4.35573C12.2553 4.48346 11.9847 4.49589 11.7523 4.38678L10.3171 3.7144C10.1309 3.62747 9.90197 3.67981 9.77335 3.85899C9.70771 3.95036 9.68646 4.06568 9.69976 4.17745L9.89402 5.73597C9.92595 5.99054 9.83101 6.24424 9.64029 6.41544L9.48861 6.55204C9.2979 6.72323 9.03623 6.79154 8.78609 6.73299L7.24265 6.37374C7.04218 6.32673 6.8293 6.42607 6.74148 6.62832C6.69713 6.73122 6.6989 6.8492 6.73616 6.95475L7.24975 8.43877C7.33402 8.68093 7.29411 8.94881 7.14331 9.15638L7.02267 9.32226C6.87187 9.52983 6.6297 9.65046 6.37335 9.64513L4.78911 9.61498C4.58332 9.61143 4.39525 9.75247 4.35179 9.9689C4.32961 10.0789 4.35624 10.1933 4.41479 10.29L5.22553 11.6348C5.3577 11.8539 5.37455 12.1244 5.27077 12.3586L5.18739 12.5458C5.08272 12.7799 4.87071 12.9485 4.61968 12.9973L3.06383 13.2971C2.86159 13.3361 2.70724 13.5135 2.70902 13.7335C2.7099 13.8462 2.76046 13.9526 2.83674 14.0342L4.04665 15.3275C4.13447 15.4215 4.21077 15.5271 4.25867 15.6468C4.8175 17.0448 0 16.2216 0 20.8298C0 23.5317 4.54516 27.8108 6.65809 29.9246C6.9721 30.2386 7.50079 29.9849 7.43071 29.5458L5.54753 19.5613C5.4881 19.1959 5.88548 18.8606 6.19683 19.0619C13.2319 23.6186 29.7681 23.6186 36.8032 19.0619Z" fill="white"/>
<path d="M16.7907 20.2852C18.3614 20.2852 19.6346 18.8388 19.6346 17.0546C19.6346 15.2704 18.3614 13.824 16.7907 13.824C15.2201 13.824 13.9469 15.2704 13.9469 17.0546C13.9469 18.8388 15.2201 20.2852 16.7907 20.2852Z" fill="#D8D8D8"/>
<path d="M26.2093 20.2852C27.7799 20.2852 29.0531 18.8388 29.0531 17.0546C29.0531 15.2704 27.7799 13.824 26.2093 13.824C24.6387 13.824 23.3655 15.2704 23.3655 17.0546C23.3655 18.8388 24.6387 20.2852 26.2093 20.2852Z" fill="#D8D8D8"/>
<path d="M26.2093 19.8336C27.7799 19.8336 29.0531 18.3872 29.0531 16.603C29.0531 14.8188 27.7799 13.3724 26.2093 13.3724C24.6387 13.3724 23.3655 14.8188 23.3655 16.603C23.3655 18.3872 24.6387 19.8336 26.2093 19.8336Z" fill="#D8D8D8"/>
<path d="M16.7907 19.8336C18.3614 19.8336 19.6346 18.3872 19.6346 16.603C19.6346 14.8188 18.3614 13.3724 16.7907 13.3724C15.2201 13.3724 13.9469 14.8188 13.9469 16.603C13.9469 18.3872 15.2201 19.8336 16.7907 19.8336Z" fill="#D8D8D8"/>
<path d="M16.7907 19.8337C18.2516 19.8337 19.4359 18.4882 19.4359 16.8284C19.4359 15.1686 18.2516 13.8231 16.7907 13.8231C15.3299 13.8231 14.1456 15.1686 14.1456 16.8284C14.1456 18.4882 15.3299 19.8337 16.7907 19.8337Z" fill="#111111"/>
<path d="M16.4145 15.991C16.8501 15.5387 16.9547 14.9325 16.648 14.6373C16.3414 14.342 15.7397 14.4694 15.304 14.9217C14.8684 15.3741 14.7639 15.9802 15.0705 16.2755C15.3772 16.5708 15.9789 16.4434 16.4145 15.991Z" fill="white"/>
<path d="M26.2092 19.8337C27.6701 19.8337 28.8544 18.4882 28.8544 16.8284C28.8544 15.1686 27.6701 13.8231 26.2092 13.8231C24.7484 13.8231 23.5641 15.1686 23.5641 16.8284C23.5641 18.4882 24.7484 19.8337 26.2092 19.8337Z" fill="#111111"/>
<path d="M25.7803 15.991C26.2159 15.5386 26.3204 14.9325 26.0138 14.6373C25.7071 14.342 25.1054 14.4693 24.6698 14.9217C24.2342 15.3741 24.1296 15.9802 24.4363 16.2755C24.7429 16.5708 25.3447 16.4434 25.7803 15.991Z" fill="white"/>
<path d="M32.1742 22.1594C31.9899 20.9564 31.4739 19.8862 30.7359 19.0255L27.7274 20.9099C28.2364 21.3171 28.6079 21.9012 28.737 22.5919C28.8061 22.9626 28.7981 23.3288 28.7259 23.6757C28.6956 23.8217 28.5687 23.9258 28.4204 23.9364C28.3041 23.9454 28.1868 23.959 28.0686 23.9782C27.0696 24.1402 26.2086 24.6384 25.5826 25.3384L25.5815 25.3377C23.8097 27.3172 22.3532 28.4655 22.6486 30.7747C22.6609 30.8724 22.7544 30.939 22.8516 30.9233L26.6998 30.2992C26.7961 30.2835 26.8867 30.3488 26.9023 30.4452L27.527 34.2969C27.5426 34.3932 27.6343 34.4601 27.7304 34.4427C29.772 34.0604 30.5438 32.4417 31.9733 30.3731L31.9723 30.3723C32.5056 29.5993 32.7896 28.6465 32.7131 27.6372C32.6521 26.8347 32.3724 26.1019 31.9373 25.4913C31.8722 25.4003 31.8612 25.2826 31.8981 25.1777C32.2258 24.2394 32.3348 23.2108 32.1742 22.1594Z" fill="white"/>
<path d="M17.4888 25.4236C16.8929 24.6976 16.0554 24.1625 15.0643 23.957C14.948 23.9329 14.8314 23.9142 14.7147 23.8999C14.5672 23.882 14.4449 23.7724 14.4209 23.6261C14.3639 23.2764 14.372 22.9094 14.4571 22.5429C14.6162 21.8584 15.0129 21.2912 15.5393 20.9066L12.6159 18.8926C11.8409 19.7203 11.2788 20.7669 11.0421 21.9607C10.835 23.0031 10.8997 24.0365 11.1872 24.9876C11.2193 25.0948 11.2034 25.211 11.1344 25.2991C10.673 25.8901 10.3607 26.6099 10.2656 27.4091C10.1451 28.4141 10.3871 29.3793 10.8863 30.174L10.8853 30.1747C12.2228 32.3046 12.9232 33.9555 14.9465 34.4257C15.0415 34.4481 15.1362 34.3844 15.156 34.2889L15.9482 30.4681C15.9681 30.3725 16.0614 30.3113 16.157 30.3311L19.9743 31.1226C20.0707 31.1426 20.1661 31.0799 20.1835 30.983C20.5775 28.6894 19.1724 27.4795 17.4888 25.4236Z" fill="white"/>
<path d="M16.7907 13.9127C18.2002 13.9127 19.3472 15.221 19.3472 16.8292C19.3472 18.4374 18.2002 19.7458 16.7907 19.7458C15.3812 19.7458 14.2343 18.4374 14.2343 16.8292C14.2343 15.221 15.3812 13.9127 16.7907 13.9127ZM16.7907 13.824C15.3298 13.824 14.1456 15.1696 14.1456 16.8292C14.1456 18.4889 15.3298 19.8345 16.7907 19.8345C18.2517 19.8345 19.4359 18.4889 19.4359 16.8292C19.4359 15.1696 18.2517 13.824 16.7907 13.824Z" fill="#24282D"/>
<path d="M26.2092 13.9127C27.6187 13.9127 28.7657 15.221 28.7657 16.8292C28.7657 18.4374 27.6187 19.7458 26.2092 19.7458C24.7997 19.7458 23.6528 18.4374 23.6528 16.8292C23.6528 15.221 24.7997 13.9127 26.2092 13.9127ZM26.2092 13.824C24.7483 13.824 23.5641 15.1696 23.5641 16.8292C23.5641 18.4889 24.7483 19.8345 26.2092 19.8345C27.6702 19.8345 28.8544 18.4889 28.8544 16.8292C28.8544 15.1696 27.6702 13.824 26.2092 13.824Z" fill="#24282D"/>
</svg>
