<svg width="157" height="47" viewBox="0 0 157 47" fill="none" xmlns="http://www.w3.org/2000/svg">
<mask id="path-1-outside-1" maskUnits="userSpaceOnUse" x="0" y="0" width="42" height="47" fill="black">
<rect fill="white" width="42" height="47"/>
<path fill-rule="evenodd" clip-rule="evenodd" d="M15.2355 25.8627C15.8629 25.8627 16.4119 26.3333 16.4512 27C16.6864 31.9408 17.3531 36.4507 18.3727 39.7056C19.4708 43.1958 20.608 44.137 21.0786 44.137C21.7845 44.137 23.1963 42.4508 24.3337 37.8236C24.4906 37.1961 25.118 36.8039 25.7455 36.9608C26.373 37.1176 26.7651 37.7451 26.6082 38.3726C25.3139 43.6667 23.3924 46.4903 21.0786 46.4903C19.0394 46.4903 17.3923 44.4508 16.0982 40.3724C15.0394 36.961 14.2943 32.2155 14.0982 27.0784C14.0982 26.451 14.5688 25.9019 15.2355 25.8627ZM21.0786 1C23.3925 1 25.3141 3.82353 26.6082 9.11772C26.765 9.74518 26.3729 10.3727 25.7454 10.5295C25.118 10.6863 24.4905 10.2942 24.3337 9.66672C23.1964 5.03934 21.7846 3.35305 21.0787 3.35305C19.863 3.35305 17.314 7.86267 16.5689 18.2156C16.8826 18.0195 17.2356 17.8235 17.5493 17.6274C27.3531 11.9802 38.4513 8.37231 40.765 12.3723C41.6278 13.8231 41.118 15.7839 39.3146 18.1762C38.0207 19.8624 36.0599 21.784 33.5109 23.8624C38.7659 28.0975 42.2561 32.4897 40.6874 35.2349C40.0208 36.3721 38.6874 36.9604 36.6482 36.9604C35.5894 36.9604 34.3737 36.8035 32.9619 36.4898C29.4326 35.7055 25.001 33.98 20.452 31.5878C20.452 31.5486 20.4128 31.5486 20.4128 31.5486C20.3736 31.5486 20.3736 31.5094 20.3344 31.5094C20.2559 31.4702 20.1775 31.3917 20.1383 31.3525L20.0991 31.3133C20.0599 31.2349 19.9814 31.1564 19.9422 31.078C19.903 31.0388 19.903 31.0388 19.903 30.9996C19.903 30.9211 19.8638 30.8819 19.8638 30.8427C19.8246 30.8035 19.8246 30.7643 19.8246 30.7251C19.7853 30.6858 19.7853 30.6466 19.7853 30.6074V30.3721C19.8246 30.3329 19.8246 30.2937 19.8246 30.2545C19.8638 30.2152 19.8638 30.176 19.8638 30.1368C19.8638 30.0584 19.8638 30.0192 19.903 29.98C19.9422 29.9407 19.9422 29.9407 19.9422 29.9015C19.9814 29.8623 20.0206 29.7839 20.0599 29.7447C20.0991 29.7447 20.0991 29.7054 20.0991 29.7054L20.2167 29.5878C20.2167 29.5878 20.2167 29.5486 20.2559 29.5486C20.2952 29.5486 20.2952 29.5094 20.3344 29.5094C20.3736 29.4701 20.4128 29.4701 20.452 29.4309C21.4324 28.9211 22.4128 28.3721 23.354 27.8231C24.7265 27.0388 26.0599 26.2153 27.354 25.3525C27.903 24.9604 28.6481 25.1172 29.001 25.6662C29.3932 26.2152 29.2364 26.9603 28.6873 27.3133C27.3932 28.176 25.9814 29.0388 24.5697 29.8623C24.2559 30.0584 23.903 30.2152 23.5893 30.4113C32.5302 34.725 38.0598 35.078 38.7264 33.9407C39.3147 32.9604 37.0795 29.3525 31.2362 24.8035C31.0793 24.7251 31.0009 24.6466 30.8832 24.529C29.3931 23.4309 27.746 22.2545 25.8245 21.078C25.2362 20.7643 25.0794 20.0192 25.4323 19.4702C25.746 18.8819 26.4911 18.7251 27.0401 19.078C28.648 20.0976 30.2166 21.1564 31.7068 22.2545C37.9419 17.3524 39.1576 14.2936 38.7263 13.5484C37.9417 12.1761 30.138 13.0776 18.7261 19.6664C7.3142 26.2551 2.64751 32.5686 3.43182 33.9411C3.74555 34.5294 5.94183 34.9215 10.5301 33.6274C11.1575 33.4314 11.785 33.7843 11.981 34.4117C12.1771 35.0392 11.8242 35.6666 11.1967 35.8627C8.92233 36.5294 7.00077 36.8431 5.47134 36.8431C3.43213 36.8431 2.05956 36.2548 1.39291 35.1176C-0.175725 32.4512 3.19696 28.0589 8.5303 23.7451C5.03996 20.9216 -0.528654 15.706 1.39291 12.4119C2.569 10.3726 5.94168 10.1373 11.1967 11.6667C11.8242 11.8236 12.1771 12.4903 11.981 13.1177C11.8242 13.7452 11.1575 14.0981 10.5301 13.902C5.94163 12.5687 3.78476 12.9608 3.43182 13.5491C3.00014 14.294 4.21589 17.3531 10.4904 22.2943C11.6277 21.4315 12.8826 20.5688 14.1375 19.7453C14.5686 11.0784 16.6472 1 21.0786 1Z"/>
</mask>
<path fill-rule="evenodd" clip-rule="evenodd" d="M15.2355 25.8627C15.8629 25.8627 16.4119 26.3333 16.4512 27C16.6864 31.9408 17.3531 36.4507 18.3727 39.7056C19.4708 43.1958 20.608 44.137 21.0786 44.137C21.7845 44.137 23.1963 42.4508 24.3337 37.8236C24.4906 37.1961 25.118 36.8039 25.7455 36.9608C26.373 37.1176 26.7651 37.7451 26.6082 38.3726C25.3139 43.6667 23.3924 46.4903 21.0786 46.4903C19.0394 46.4903 17.3923 44.4508 16.0982 40.3724C15.0394 36.961 14.2943 32.2155 14.0982 27.0784C14.0982 26.451 14.5688 25.9019 15.2355 25.8627ZM21.0786 1C23.3925 1 25.3141 3.82353 26.6082 9.11772C26.765 9.74518 26.3729 10.3727 25.7454 10.5295C25.118 10.6863 24.4905 10.2942 24.3337 9.66672C23.1964 5.03934 21.7846 3.35305 21.0787 3.35305C19.863 3.35305 17.314 7.86267 16.5689 18.2156C16.8826 18.0195 17.2356 17.8235 17.5493 17.6274C27.3531 11.9802 38.4513 8.37231 40.765 12.3723C41.6278 13.8231 41.118 15.7839 39.3146 18.1762C38.0207 19.8624 36.0599 21.784 33.5109 23.8624C38.7659 28.0975 42.2561 32.4897 40.6874 35.2349C40.0208 36.3721 38.6874 36.9604 36.6482 36.9604C35.5894 36.9604 34.3737 36.8035 32.9619 36.4898C29.4326 35.7055 25.001 33.98 20.452 31.5878C20.452 31.5486 20.4128 31.5486 20.4128 31.5486C20.3736 31.5486 20.3736 31.5094 20.3344 31.5094C20.2559 31.4702 20.1775 31.3917 20.1383 31.3525L20.0991 31.3133C20.0599 31.2349 19.9814 31.1564 19.9422 31.078C19.903 31.0388 19.903 31.0388 19.903 30.9996C19.903 30.9211 19.8638 30.8819 19.8638 30.8427C19.8246 30.8035 19.8246 30.7643 19.8246 30.7251C19.7853 30.6858 19.7853 30.6466 19.7853 30.6074V30.3721C19.8246 30.3329 19.8246 30.2937 19.8246 30.2545C19.8638 30.2152 19.8638 30.176 19.8638 30.1368C19.8638 30.0584 19.8638 30.0192 19.903 29.98C19.9422 29.9407 19.9422 29.9407 19.9422 29.9015C19.9814 29.8623 20.0206 29.7839 20.0599 29.7447C20.0991 29.7447 20.0991 29.7054 20.0991 29.7054L20.2167 29.5878C20.2167 29.5878 20.2167 29.5486 20.2559 29.5486C20.2952 29.5486 20.2952 29.5094 20.3344 29.5094C20.3736 29.4701 20.4128 29.4701 20.452 29.4309C21.4324 28.9211 22.4128 28.3721 23.354 27.8231C24.7265 27.0388 26.0599 26.2153 27.354 25.3525C27.903 24.9604 28.6481 25.1172 29.001 25.6662C29.3932 26.2152 29.2364 26.9603 28.6873 27.3133C27.3932 28.176 25.9814 29.0388 24.5697 29.8623C24.2559 30.0584 23.903 30.2152 23.5893 30.4113C32.5302 34.725 38.0598 35.078 38.7264 33.9407C39.3147 32.9604 37.0795 29.3525 31.2362 24.8035C31.0793 24.7251 31.0009 24.6466 30.8832 24.529C29.3931 23.4309 27.746 22.2545 25.8245 21.078C25.2362 20.7643 25.0794 20.0192 25.4323 19.4702C25.746 18.8819 26.4911 18.7251 27.0401 19.078C28.648 20.0976 30.2166 21.1564 31.7068 22.2545C37.9419 17.3524 39.1576 14.2936 38.7263 13.5484C37.9417 12.1761 30.138 13.0776 18.7261 19.6664C7.3142 26.2551 2.64751 32.5686 3.43182 33.9411C3.74555 34.5294 5.94183 34.9215 10.5301 33.6274C11.1575 33.4314 11.785 33.7843 11.981 34.4117C12.1771 35.0392 11.8242 35.6666 11.1967 35.8627C8.92233 36.5294 7.00077 36.8431 5.47134 36.8431C3.43213 36.8431 2.05956 36.2548 1.39291 35.1176C-0.175725 32.4512 3.19696 28.0589 8.5303 23.7451C5.03996 20.9216 -0.528654 15.706 1.39291 12.4119C2.569 10.3726 5.94168 10.1373 11.1967 11.6667C11.8242 11.8236 12.1771 12.4903 11.981 13.1177C11.8242 13.7452 11.1575 14.0981 10.5301 13.902C5.94163 12.5687 3.78476 12.9608 3.43182 13.5491C3.00014 14.294 4.21589 17.3531 10.4904 22.2943C11.6277 21.4315 12.8826 20.5688 14.1375 19.7453C14.5686 11.0784 16.6472 1 21.0786 1Z" fill="white"/>
<path d="M15.2355 25.8627V25.5747H15.227L15.2185 25.5752L15.2355 25.8627ZM16.4512 27L16.7388 26.9863L16.7386 26.983L16.4512 27ZM18.3727 39.7056L18.0979 39.7917L18.098 39.792L18.3727 39.7056ZM24.3337 37.8236L24.0543 37.7537L24.054 37.7548L24.3337 37.8236ZM25.7455 36.9608L25.6756 37.2402L25.6756 37.2402L25.7455 36.9608ZM26.6082 38.3726L26.3289 38.3027L26.3285 38.3042L26.6082 38.3726ZM16.0982 40.3724L15.8232 40.4577L15.8237 40.4595L16.0982 40.3724ZM14.0982 27.0784H13.81L13.8104 27.0894L14.0982 27.0784ZM26.6082 9.11772L26.3284 9.18611L26.3288 9.18755L26.6082 9.11772ZM24.3337 9.66672L24.054 9.73545L24.0543 9.73657L24.3337 9.66672ZM16.5689 18.2156L16.2817 18.195L16.241 18.7602L16.7216 18.4598L16.5689 18.2156ZM17.5493 17.6274L17.4055 17.3777L17.3967 17.3832L17.5493 17.6274ZM40.765 12.3723L40.5157 12.5165L40.5175 12.5195L40.765 12.3723ZM39.3146 18.1762L39.5431 18.3515L39.5445 18.3496L39.3146 18.1762ZM33.5109 23.8624L33.3289 23.6392L33.0536 23.8637L33.3302 24.0867L33.5109 23.8624ZM40.6874 35.2349L40.9359 35.3805L40.9375 35.3777L40.6874 35.2349ZM32.9619 36.4898L32.8994 36.7709L32.8994 36.7709L32.9619 36.4898ZM20.452 31.5878H20.164V31.7618L20.318 31.8427L20.452 31.5878ZM20.4128 31.5486L20.4128 31.8366L20.4128 31.8366L20.4128 31.5486ZM20.3344 31.5094L20.2056 31.767L20.2664 31.7974H20.3344V31.5094ZM20.1383 31.3525L19.9347 31.5562L19.9347 31.5562L20.1383 31.3525ZM20.0991 31.3133L19.8415 31.4421L19.8624 31.4839L19.8954 31.5169L20.0991 31.3133ZM19.9422 31.078L20.1998 30.9492L20.1789 30.9074L20.1458 30.8744L19.9422 31.078ZM19.8638 30.8427H20.1518V30.7234L20.0674 30.6391L19.8638 30.8427ZM19.8246 30.7251H20.1125V30.6058L20.0282 30.5214L19.8246 30.7251ZM19.7853 30.3721L19.5817 30.1685L19.4974 30.2528V30.3721H19.7853ZM19.8246 30.2545L19.6209 30.0508L19.5366 30.1352V30.2545H19.8246ZM19.9422 29.9015L19.7386 29.6979L19.6542 29.7822V29.9015H19.9422ZM20.0599 29.7447V29.4567H19.9406L19.8562 29.541L20.0599 29.7447ZM20.0991 29.7054L19.8954 29.5018L19.8111 29.5862L19.8111 29.7054L20.0991 29.7054ZM20.2167 29.5878L20.4204 29.7914L20.5047 29.7071L20.5047 29.5878L20.2167 29.5878ZM20.3344 29.5094V29.7973H20.4537L20.538 29.713L20.3344 29.5094ZM20.452 29.4309L20.3192 29.1754L20.2798 29.1959L20.2484 29.2273L20.452 29.4309ZM23.354 27.8231L23.2111 27.573L23.2089 27.5743L23.354 27.8231ZM27.354 25.3525L27.5138 25.5922L27.5214 25.5868L27.354 25.3525ZM29.001 25.6662L28.7585 25.8221L28.7667 25.8336L29.001 25.6662ZM28.6873 27.3133L28.5316 27.071L28.5276 27.0736L28.6873 27.3133ZM24.5697 29.8623L24.4245 29.6134L24.417 29.6181L24.5697 29.8623ZM23.5893 30.4113L23.4367 30.1671L22.9939 30.4438L23.4641 30.6707L23.5893 30.4113ZM38.7264 33.9407L38.4795 33.7925L38.478 33.7951L38.7264 33.9407ZM31.2362 24.8035L31.4131 24.5763L31.3905 24.5587L31.365 24.5459L31.2362 24.8035ZM30.8832 24.529L31.0869 24.3253L31.0715 24.31L31.0541 24.2971L30.8832 24.529ZM25.8245 21.078L25.9748 20.8324L25.9675 20.8279L25.96 20.8239L25.8245 21.078ZM25.4323 19.4702L25.6746 19.6259L25.6809 19.616L25.6864 19.6057L25.4323 19.4702ZM27.0401 19.078L26.8844 19.3203L26.8859 19.3212L27.0401 19.078ZM31.7068 22.2545L31.536 22.4863L31.7125 22.6164L31.8848 22.4809L31.7068 22.2545ZM38.7263 13.5484L38.4762 13.6914L38.477 13.6927L38.7263 13.5484ZM3.43182 33.9411L3.68604 33.8056L3.68186 33.7983L3.43182 33.9411ZM10.5301 33.6274L10.6083 33.9047L10.616 33.9023L10.5301 33.6274ZM11.981 34.4117L11.7062 34.4976L11.981 34.4117ZM11.1967 35.8627L11.2777 36.1391L11.2826 36.1376L11.1967 35.8627ZM1.39291 35.1176L1.64135 34.972L1.64112 34.9716L1.39291 35.1176ZM8.5303 23.7451L8.7114 23.9691L8.98822 23.7452L8.71142 23.5213L8.5303 23.7451ZM1.39291 12.4119L1.64166 12.557L1.64237 12.5557L1.39291 12.4119ZM11.1967 11.6667L11.1162 11.9435L11.1269 11.9461L11.1967 11.6667ZM11.981 13.1177L11.7062 13.0318L11.7037 13.0398L11.7016 13.0479L11.981 13.1177ZM10.5301 13.902L10.616 13.6271L10.6104 13.6255L10.5301 13.902ZM3.43182 13.5491L3.18485 13.4009L3.18266 13.4047L3.43182 13.5491ZM10.4904 22.2943L10.3122 22.5205L10.4871 22.6582L10.6645 22.5237L10.4904 22.2943ZM14.1375 19.7453L14.2955 19.986L14.4178 19.9057L14.4251 19.7596L14.1375 19.7453ZM15.2355 26.1507C15.7195 26.1507 16.1339 26.5114 16.1637 27.0169L16.7386 26.983C16.6899 26.1552 16.0063 25.5747 15.2355 25.5747V26.1507ZM16.1635 27.0137C16.3994 31.9678 17.0682 36.5046 18.0979 39.7917L18.6475 39.6195C17.638 36.3968 16.9734 31.9137 16.7388 26.9863L16.1635 27.0137ZM18.098 39.792C18.6525 41.5545 19.2227 42.6931 19.7267 43.3977C19.9787 43.7499 20.2189 44.0004 20.4386 44.1656C20.6528 44.3265 20.8726 44.425 21.0786 44.425V43.849C21.0493 43.849 20.9505 43.8298 20.7847 43.7052C20.6245 43.5848 20.4236 43.3819 20.1952 43.0626C19.7384 42.424 19.191 41.3469 18.6474 39.6192L18.098 39.792ZM21.0786 44.425C21.3627 44.425 21.6511 44.2616 21.9205 44.0128C22.1975 43.7568 22.4925 43.3759 22.7931 42.8606C23.3949 41.8289 24.0407 40.2222 24.6134 37.8923L24.054 37.7548C23.4893 40.0522 22.8604 41.6021 22.2956 42.5704C22.0128 43.055 21.7514 43.3849 21.5296 43.5897C21.3002 43.8016 21.1474 43.849 21.0786 43.849V44.425ZM24.6131 37.8934C24.7329 37.4143 25.2083 37.1234 25.6756 37.2402L25.8153 36.6814C25.0277 36.4845 24.2483 36.9779 24.0543 37.7537L24.6131 37.8934ZM25.6756 37.2402C26.1548 37.3599 26.4457 37.8354 26.3289 38.3027L26.8876 38.4424C27.0845 37.6548 26.5911 36.8753 25.8153 36.6814L25.6756 37.2402ZM26.3285 38.3042C25.6851 40.936 24.8914 42.9277 23.9877 44.2546C23.0839 45.5817 22.1018 46.2023 21.0786 46.2023V46.7783C22.3692 46.7783 23.5047 45.9871 24.4638 44.5788C25.4229 43.1705 26.2371 41.1033 26.888 38.4409L26.3285 38.3042ZM21.0786 46.2023C20.1698 46.2023 19.3235 45.7527 18.5325 44.7791C17.7368 43.7997 17.0149 42.3093 16.3727 40.2853L15.8237 40.4595C16.4756 42.5139 17.2243 44.0824 18.0855 45.1423C18.9514 46.2081 19.9482 46.7783 21.0786 46.7783V46.2023ZM16.3733 40.287C15.3239 36.9062 14.5814 32.1869 14.386 27.0674L13.8104 27.0894C14.0072 32.244 14.7549 37.0159 15.8232 40.4577L16.3733 40.287ZM14.3862 27.0784C14.3862 26.5943 14.7469 26.1799 15.2524 26.1502L15.2185 25.5752C14.3907 25.6239 13.8102 26.3076 13.8102 27.0784H14.3862ZM21.0786 1.28798C22.1019 1.28798 23.0841 1.90858 23.9878 3.23564C24.8915 4.56261 25.6851 6.5543 26.3285 9.18611L26.8879 9.04934C26.2372 6.38695 25.423 4.31978 24.4639 2.91144C23.5048 1.50319 22.3692 0.712016 21.0786 0.712016V1.28798ZM26.3288 9.18755C26.4456 9.65486 26.1547 10.1304 25.6756 10.2501L25.8153 10.8089C26.5911 10.615 27.0844 9.8355 26.8876 9.0479L26.3288 9.18755ZM25.6756 10.2501C25.2083 10.3669 24.7328 10.076 24.613 9.59687L24.0543 9.73657C24.2482 10.5124 25.0276 11.0057 25.8153 10.8089L25.6756 10.2501ZM24.6133 9.59799C24.0407 7.26806 23.395 5.66121 22.7932 4.6295C22.4926 4.11421 22.1977 3.73326 21.9206 3.4773C21.6513 3.22848 21.3629 3.06506 21.0787 3.06506V3.64103C21.1475 3.64103 21.3003 3.68839 21.5298 3.90036C21.7515 4.10519 22.0129 4.43502 22.2957 4.91972C22.8605 5.88801 23.4894 7.438 24.054 9.73545L24.6133 9.59799ZM21.0787 3.06506C20.8391 3.06506 20.6055 3.17447 20.3914 3.33836C20.1744 3.50447 19.9534 3.74456 19.7324 4.05098C19.29 4.66436 18.8233 5.57801 18.3768 6.80338C17.4828 9.25672 16.6556 13.0001 16.2817 18.195L16.8562 18.2363C17.2274 13.0782 18.0472 9.39029 18.9179 7.00057C19.3538 5.80442 19.7988 4.94361 20.1996 4.38789C20.4001 4.10977 20.5835 3.91667 20.7415 3.79571C20.9024 3.67255 21.0145 3.64103 21.0787 3.64103V3.06506ZM16.7216 18.4598C16.8746 18.3642 17.0378 18.2682 17.2051 18.1697C17.3711 18.0721 17.5412 17.972 17.7019 17.8716L17.3967 17.3832C17.2437 17.4788 17.0804 17.5748 16.9131 17.6733C16.7471 17.7709 16.577 17.871 16.4163 17.9714L16.7216 18.4598ZM17.693 17.8769C22.5809 15.0614 27.7818 12.7603 32.038 11.661C34.168 11.1108 36.0422 10.8668 37.5144 10.9986C38.9886 11.1306 40.0042 11.6322 40.5157 12.5165L41.0143 12.2281C40.369 11.1125 39.1296 10.565 37.5658 10.425C36 10.2847 34.0531 10.5456 31.8939 11.1033C27.5716 12.2197 22.3215 14.5462 17.4056 17.3778L17.693 17.8769ZM40.5175 12.5195C41.2818 13.8046 40.8786 15.623 39.0846 18.0028L39.5445 18.3496C41.3574 15.9447 41.9738 13.8415 41.0125 12.2251L40.5175 12.5195ZM39.0861 18.0009C37.8111 19.6625 35.8689 21.5682 33.3289 23.6392L33.6929 24.0856C36.2509 21.9998 38.2304 20.0623 39.5431 18.3515L39.0861 18.0009ZM33.3302 24.0867C35.9482 26.1965 38.1094 28.3325 39.4195 30.2688C40.7424 32.2239 41.1333 33.8741 40.4374 35.092L40.9375 35.3777C41.8102 33.8505 41.2404 31.932 39.8965 29.946C38.54 27.9411 36.3286 25.7634 33.6916 23.6382L33.3302 24.0867ZM40.439 35.0892C39.8469 36.0993 38.6404 36.6724 36.6482 36.6724V37.2483C38.7345 37.2483 40.1947 36.6449 40.9359 35.3805L40.439 35.0892ZM36.6482 36.6724C35.6168 36.6724 34.423 36.5194 33.0244 36.2086L32.8994 36.7709C34.3244 37.0876 35.562 37.2483 36.6482 37.2483V36.6724ZM33.0244 36.2086C29.5275 35.4315 25.1205 33.7174 20.5861 31.3329L20.318 31.8427C24.8816 34.2425 29.3378 35.9794 32.8994 36.7709L33.0244 36.2086ZM20.74 31.5878C20.74 31.5276 20.7241 31.4633 20.6855 31.4054C20.6481 31.3493 20.6003 31.3155 20.5612 31.2959C20.5233 31.277 20.4888 31.2689 20.4663 31.2651C20.4543 31.2632 20.4437 31.262 20.435 31.2614C20.4306 31.2611 20.4265 31.2609 20.4228 31.2608C20.421 31.2607 20.4192 31.2607 20.4175 31.2607C20.4167 31.2606 20.4159 31.2606 20.4151 31.2606C20.4147 31.2606 20.4143 31.2606 20.4139 31.2606C20.4137 31.2606 20.4135 31.2606 20.4134 31.2606C20.4133 31.2606 20.4131 31.2606 20.4131 31.2606C20.4129 31.2606 20.4128 31.2606 20.4128 31.5486C20.4128 31.8366 20.4127 31.8366 20.4125 31.8366C20.4125 31.8366 20.4123 31.8366 20.4122 31.8366C20.4121 31.8366 20.4119 31.8366 20.4117 31.8366C20.4113 31.8366 20.4109 31.8366 20.4106 31.8366C20.4098 31.8366 20.409 31.8366 20.4083 31.8365C20.4068 31.8365 20.4052 31.8365 20.4037 31.8364C20.4005 31.8363 20.3973 31.8362 20.394 31.8359C20.3874 31.8355 20.3799 31.8347 20.3716 31.8333C20.3564 31.8308 20.3318 31.8252 20.3036 31.8111C20.2744 31.7965 20.2363 31.77 20.2063 31.7249C20.175 31.678 20.164 31.6284 20.164 31.5878H20.74ZM20.4128 31.2606C20.4324 31.2606 20.4543 31.2631 20.4774 31.2696C20.5006 31.2761 20.5208 31.2854 20.5377 31.2955C20.5539 31.3053 20.5654 31.3148 20.5716 31.3203C20.5769 31.3249 20.5807 31.3289 20.5772 31.3254C20.5758 31.324 20.5671 31.3151 20.5566 31.3059C20.5452 31.2958 20.5282 31.282 20.5058 31.2686C20.4829 31.2548 20.4559 31.2424 20.425 31.2338C20.3943 31.2251 20.3637 31.2214 20.3344 31.2214V31.7974C20.3148 31.7974 20.2928 31.7949 20.2697 31.7884C20.2465 31.7819 20.2263 31.7726 20.2095 31.7625C20.1932 31.7527 20.1817 31.7432 20.1755 31.7377C20.1703 31.7331 20.1664 31.7291 20.1699 31.7326C20.1713 31.734 20.1801 31.7429 20.1905 31.7521C20.2019 31.7622 20.219 31.776 20.2413 31.7894C20.2643 31.8032 20.2913 31.8156 20.3221 31.8242C20.3529 31.8329 20.3834 31.8366 20.4128 31.8366V31.2606ZM20.4632 31.2518C20.4544 31.2474 20.4358 31.2352 20.409 31.2123C20.384 31.1909 20.3616 31.1686 20.3419 31.1489L19.9347 31.5562C19.9667 31.5882 20.0778 31.7031 20.2056 31.767L20.4632 31.2518ZM20.3419 31.1489L20.3027 31.1097L19.8954 31.5169L19.9347 31.5562L20.3419 31.1489ZM20.3567 31.1845C20.3232 31.1176 20.2765 31.0568 20.251 31.0229C20.2177 30.9784 20.2055 30.9607 20.1998 30.9492L19.6846 31.2068C19.7181 31.2737 19.7648 31.3345 19.7903 31.3684C19.8236 31.4129 19.8357 31.4306 19.8415 31.4421L20.3567 31.1845ZM20.1458 30.8744C20.1339 30.8624 20.1329 30.8613 20.1336 30.8621C20.1349 30.8635 20.151 30.881 20.1655 30.91C20.1824 30.9439 20.1882 30.9749 20.1902 30.9942C20.1906 30.9983 20.1908 31.0015 20.1909 31.0035C20.191 31.0055 20.191 31.0067 20.191 31.0068C20.191 31.007 20.191 31.0066 20.191 31.0052C20.191 31.0038 20.191 31.0022 20.191 30.9996H19.615C19.615 31.0041 19.6147 31.0279 19.6171 31.0515C19.6202 31.0831 19.6285 31.1239 19.6503 31.1676C19.6697 31.2064 19.6932 31.2337 19.7055 31.2474C19.7173 31.2605 19.731 31.274 19.7386 31.2816L20.1458 30.8744ZM20.191 30.9996C20.191 30.9081 20.1668 30.8396 20.1508 30.7995C20.1477 30.7918 20.1436 30.7819 20.1426 30.7794C20.1407 30.7748 20.1408 30.775 20.1415 30.7769C20.1425 30.7797 20.1518 30.8054 20.1518 30.8427H19.5758C19.5758 30.8997 19.59 30.9449 19.5983 30.9686C19.6027 30.9809 19.6071 30.9918 19.6098 30.9984C19.6134 31.0071 19.6142 31.0088 19.616 31.0134C19.6195 31.0223 19.615 31.0126 19.615 30.9996H20.191ZM20.0674 30.6391C20.0749 30.6466 20.0839 30.6575 20.0921 30.6721C20.1004 30.6868 20.1057 30.7013 20.1089 30.714C20.1119 30.7261 20.1125 30.7346 20.1126 30.7365C20.1126 30.7372 20.1125 30.7364 20.1125 30.7251H19.5366C19.5366 30.7686 19.5314 30.9176 19.6601 31.0463L20.0674 30.6391ZM20.0282 30.5214C20.0357 30.5289 20.0447 30.5399 20.0529 30.5545C20.0611 30.5691 20.0665 30.5837 20.0696 30.5964C20.0726 30.6084 20.0733 30.617 20.0734 30.6189C20.0734 30.6195 20.0733 30.6187 20.0733 30.6074H19.4974C19.4974 30.6509 19.4922 30.7999 19.6209 30.9287L20.0282 30.5214ZM20.0733 30.6074V30.3721H19.4974V30.6074H20.0733ZM19.989 30.5757C20.1177 30.447 20.1125 30.298 20.1125 30.2545H19.5366C19.5366 30.2658 19.5365 30.2666 19.5365 30.2659C19.5366 30.264 19.5373 30.2555 19.5403 30.2434C19.5435 30.2307 19.5488 30.2162 19.557 30.2015C19.5652 30.1869 19.5742 30.176 19.5817 30.1685L19.989 30.5757ZM20.0282 30.4581C20.157 30.3293 20.1518 30.1803 20.1518 30.1368H19.5758C19.5758 30.1481 19.5757 30.1489 19.5757 30.1483C19.5759 30.1464 19.5765 30.1378 19.5795 30.1258C19.5827 30.1131 19.588 30.0985 19.5962 30.0839C19.6044 30.0693 19.6134 30.0583 19.6209 30.0508L20.0282 30.4581ZM20.1518 30.1368C20.1518 30.1156 20.1518 30.1046 20.1521 30.0962C20.1525 30.0884 20.1528 30.0916 20.1511 30.1002C20.149 30.1104 20.1445 30.1265 20.1348 30.1447C20.1252 30.1629 20.1143 30.1759 20.1066 30.1836L19.6994 29.7763C19.5626 29.9131 19.5758 30.0817 19.5758 30.1368H20.1518ZM20.1066 30.1836C20.1143 30.176 20.128 30.1624 20.1397 30.1493C20.152 30.1356 20.1755 30.1083 20.1949 30.0695C20.2168 30.0258 20.225 29.985 20.2282 29.9535C20.2305 29.9298 20.2302 29.906 20.2302 29.9015H19.6542C19.6542 29.9041 19.6542 29.9058 19.6542 29.9072C19.6542 29.9085 19.6542 29.9089 19.6542 29.9088C19.6542 29.9086 19.6542 29.9074 19.6543 29.9054C19.6544 29.9034 19.6546 29.9002 19.655 29.8962C19.657 29.8769 19.6628 29.8459 19.6797 29.8119C19.6942 29.7829 19.7103 29.7655 19.7116 29.764C19.7124 29.7632 19.7113 29.7643 19.6994 29.7763L20.1066 30.1836ZM20.1458 30.1052C20.171 30.08 20.191 30.054 20.2045 30.0354C20.2184 30.0163 20.2315 29.9965 20.2407 29.9828C20.2511 29.9671 20.2576 29.9575 20.2634 29.9496C20.2694 29.9413 20.2691 29.9427 20.2635 29.9483L19.8562 29.541C19.831 29.5662 19.8111 29.5922 19.7975 29.6108C19.7837 29.6299 19.7705 29.6497 19.7614 29.6633C19.7509 29.6791 19.7444 29.6887 19.7387 29.6966C19.7327 29.7049 19.733 29.7035 19.7386 29.6979L20.1458 30.1052ZM20.0599 30.0326C20.1201 30.0326 20.1844 30.0168 20.2423 29.9781C20.2984 29.9407 20.3322 29.8929 20.3518 29.8538C20.3707 29.8159 20.3788 29.7815 20.3825 29.7589C20.3845 29.747 20.3856 29.7364 20.3863 29.7276C20.3866 29.7232 20.3868 29.7192 20.3869 29.7155C20.387 29.7136 20.387 29.7119 20.387 29.7102C20.387 29.7094 20.387 29.7085 20.3871 29.7078C20.3871 29.7074 20.3871 29.707 20.3871 29.7066C20.3871 29.7064 20.3871 29.7062 20.3871 29.706C20.3871 29.7059 20.3871 29.7058 20.3871 29.7057C20.3871 29.7056 20.3871 29.7054 20.0991 29.7054C19.8111 29.7054 19.8111 29.7053 19.8111 29.7052C19.8111 29.7051 19.8111 29.705 19.8111 29.7049C19.8111 29.7047 19.8111 29.7045 19.8111 29.7043C19.8111 29.7039 19.8111 29.7036 19.8111 29.7032C19.8111 29.7024 19.8111 29.7017 19.8111 29.7009C19.8112 29.6994 19.8112 29.6979 19.8112 29.6963C19.8113 29.6932 19.8115 29.69 19.8117 29.6866C19.8122 29.68 19.813 29.6725 19.8144 29.6642C19.8169 29.649 19.8225 29.6244 19.8366 29.5963C19.8512 29.567 19.8777 29.529 19.9228 29.4989C19.9697 29.4677 20.0193 29.4567 20.0599 29.4567V30.0326ZM20.3027 29.9091L20.4204 29.7914L20.0131 29.3842L19.8954 29.5018L20.3027 29.9091ZM20.2167 29.5878C20.5047 29.5878 20.5047 29.5879 20.5047 29.5881C20.5047 29.5881 20.5047 29.5883 20.5047 29.5884C20.5047 29.5885 20.5047 29.5887 20.5047 29.5889C20.5047 29.5893 20.5047 29.5897 20.5047 29.5901C20.5047 29.5908 20.5047 29.5916 20.5047 29.5923C20.5047 29.5938 20.5046 29.5954 20.5046 29.5969C20.5045 29.6001 20.5043 29.6033 20.5041 29.6066C20.5036 29.6132 20.5028 29.6207 20.5014 29.629C20.4989 29.6442 20.4933 29.6688 20.4792 29.697C20.4646 29.7262 20.4381 29.7643 20.393 29.7943C20.3461 29.8256 20.2965 29.8366 20.2559 29.8366V29.2606C20.1957 29.2606 20.1315 29.2765 20.0735 29.3151C20.0174 29.3525 19.9836 29.4003 19.964 29.4394C19.9451 29.4773 19.937 29.5118 19.9333 29.5343C19.9313 29.5463 19.9302 29.5569 19.9296 29.5656C19.9292 29.57 19.929 29.5741 19.9289 29.5778C19.9289 29.5796 19.9288 29.5814 19.9288 29.583C19.9288 29.5839 19.9288 29.5847 19.9288 29.5855C19.9287 29.5859 19.9287 29.5863 19.9287 29.5867C19.9287 29.5868 19.9287 29.587 19.9287 29.5872C19.9287 29.5873 19.9287 29.5875 19.9287 29.5875C19.9287 29.5877 19.9287 29.5878 20.2167 29.5878ZM20.2559 29.8366C20.2853 29.8366 20.3158 29.8328 20.3466 29.8242C20.3775 29.8156 20.4044 29.8032 20.4274 29.7894C20.4498 29.776 20.4668 29.7622 20.4782 29.7521C20.4887 29.7429 20.4974 29.734 20.4988 29.7326C20.5023 29.7291 20.4985 29.7331 20.4932 29.7377C20.487 29.7432 20.4755 29.7527 20.4593 29.7624C20.4424 29.7725 20.4222 29.7819 20.399 29.7884C20.3759 29.7948 20.3539 29.7973 20.3344 29.7973V29.2214C20.305 29.2214 20.2745 29.2251 20.2437 29.2337C20.2128 29.2424 20.1859 29.2548 20.1629 29.2685C20.1406 29.282 20.1235 29.2958 20.1121 29.3058C20.1017 29.3151 20.0929 29.3239 20.0915 29.3253C20.088 29.3288 20.0919 29.3249 20.0971 29.3202C20.1033 29.3148 20.1148 29.3053 20.1311 29.2955C20.1479 29.2854 20.1681 29.2761 20.1913 29.2696C20.2144 29.2631 20.2364 29.2606 20.2559 29.2606V29.8366ZM20.538 29.713C20.5213 29.7297 20.5025 29.7375 20.522 29.7277C20.5417 29.7179 20.5997 29.6905 20.6557 29.6346L20.2484 29.2273C20.2651 29.2106 20.2839 29.2028 20.2644 29.2126C20.2447 29.2224 20.1867 29.2498 20.1307 29.3057L20.538 29.713ZM20.5849 29.6864C21.5704 29.174 22.555 28.6226 23.4991 28.0719L23.2089 27.5743C22.2705 28.1217 21.2944 28.6683 20.3192 29.1754L20.5849 29.6864ZM23.4968 28.0731C24.8751 27.2856 26.214 26.4586 27.5137 25.5921L27.1942 25.1129C25.9057 25.9719 24.578 26.792 23.2111 27.5731L23.4968 28.0731ZM27.5214 25.5868C27.9344 25.2918 28.4935 25.4092 28.7588 25.8219L29.2433 25.5105C28.8027 24.8252 27.8716 24.6289 27.1866 25.1181L27.5214 25.5868ZM28.7667 25.8336C29.0617 26.2466 28.9443 26.8057 28.5316 27.071L28.843 27.5555C29.5284 27.115 29.7247 26.1838 29.2354 25.4988L28.7667 25.8336ZM28.5276 27.0736C27.2398 27.9322 25.8332 28.7918 24.4246 29.6135L24.7148 30.111C26.1296 29.2857 27.5466 28.4198 28.8471 27.5529L28.5276 27.0736ZM24.417 29.6181C24.2704 29.7097 24.113 29.7932 23.9447 29.8823C23.7797 29.9696 23.6038 30.0627 23.4367 30.1671L23.7419 30.6555C23.8885 30.5639 24.0459 30.4804 24.2142 30.3913C24.3792 30.304 24.5552 30.2109 24.7223 30.1065L24.417 29.6181ZM23.4641 30.6707C27.951 32.8354 31.5931 34.012 34.2076 34.5032C35.5133 34.7484 36.5737 34.8249 37.36 34.7627C37.7528 34.7317 38.0886 34.6652 38.3561 34.5608C38.6206 34.4575 38.8462 34.3059 38.9749 34.0863L38.478 33.7951C38.44 33.8598 38.347 33.946 38.1466 34.0242C37.9492 34.1013 37.6737 34.1602 37.3146 34.1885C36.5973 34.2453 35.5915 34.1771 34.3139 33.9371C31.7617 33.4576 28.1685 32.3009 23.7144 30.1519L23.4641 30.6707ZM38.9734 34.0889C39.088 33.8979 39.1194 33.668 39.1002 33.4301C39.0809 33.191 39.0092 32.9227 38.8935 32.6325C38.6621 32.052 38.2386 31.3436 37.6221 30.5357C36.3872 28.9174 34.348 26.8611 31.4131 24.5763L31.0593 25.0307C33.9677 27.2949 35.9677 29.3171 37.1642 30.8851C37.7634 31.6703 38.1537 32.332 38.3585 32.8458C38.4609 33.1027 38.5129 33.3127 38.5261 33.4763C38.5394 33.6411 38.512 33.7385 38.4795 33.7925L38.9734 34.0889ZM31.365 24.5459C31.2531 24.49 31.2026 24.4411 31.0869 24.3253L30.6796 24.7326C30.7991 24.8522 30.9056 24.9602 31.1074 25.0611L31.365 24.5459ZM31.0541 24.2971C29.5615 23.1973 27.9067 22.0152 25.9748 20.8324L25.6741 21.3236C27.5853 22.4938 29.2247 23.6646 30.7124 24.7608L31.0541 24.2971ZM25.96 20.8239C25.5328 20.5961 25.4047 20.0457 25.6746 19.6259L25.1901 19.3144C24.754 19.9927 24.9396 20.9325 25.6889 21.3321L25.96 20.8239ZM25.6864 19.6057C25.9142 19.1785 26.4646 19.0504 26.8844 19.3203L27.1959 18.8358C26.5176 18.3997 25.5778 18.5853 25.1782 19.3346L25.6864 19.6057ZM26.8859 19.3212C28.4892 20.3379 30.0522 21.393 31.536 22.4863L31.8777 22.0226C30.381 20.9199 28.8067 19.8572 27.1944 18.8348L26.8859 19.3212ZM31.8848 22.4809C35.016 20.0191 36.9016 18.009 37.9524 16.5077C38.4774 15.7578 38.8 15.1263 38.9624 14.622C39.1187 14.1367 39.1477 13.7016 38.9755 13.4042L38.477 13.6927C38.5205 13.7678 38.5593 13.9945 38.4141 14.4455C38.275 14.8775 37.985 15.4568 37.4805 16.1774C36.4726 17.6174 34.6328 19.5877 31.5288 22.0281L31.8848 22.4809ZM38.9763 13.4055C38.8246 13.1401 38.5324 12.9739 38.1929 12.8714C37.8461 12.7667 37.4022 12.7137 36.8766 12.7109C35.8237 12.7052 34.3924 12.9006 32.6409 13.3428C29.1349 14.2279 24.3064 16.112 18.5821 19.417L18.8701 19.9158C24.5577 16.632 29.337 14.7709 32.7819 13.9012C34.506 13.4659 35.886 13.2815 36.8735 13.2868C37.3682 13.2895 37.7518 13.3398 38.0265 13.4228C38.3085 13.5079 38.4318 13.6137 38.4762 13.6914L38.9763 13.4055ZM18.5821 19.417C12.8577 22.722 8.81571 25.9632 6.29862 28.5594C5.04119 29.8563 4.15726 30.9995 3.63561 31.9157C3.37522 32.373 3.19889 32.7845 3.11548 33.1377C3.03384 33.4834 3.03062 33.8195 3.18178 34.084L3.68186 33.7983C3.63695 33.7197 3.60799 33.5582 3.67602 33.2701C3.74227 32.9896 3.89101 32.6312 4.13613 32.2007C4.62552 31.3412 5.47445 30.2369 6.71214 28.9603C9.18529 26.4094 13.1826 23.1995 18.8701 19.9158L18.5821 19.417ZM3.17772 34.0767C3.31091 34.3264 3.59965 34.4915 3.94315 34.5975C4.30028 34.7077 4.77755 34.7731 5.37558 34.7781C6.57327 34.7882 8.29777 34.5563 10.6082 33.9046L10.4519 33.3502C8.17413 33.9927 6.50637 34.2117 5.38043 34.2022C4.81665 34.1974 4.39926 34.1354 4.11297 34.0471C3.81305 33.9546 3.70961 33.85 3.68593 33.8056L3.17772 34.0767ZM10.616 33.9023C11.0823 33.7566 11.5546 34.0125 11.7062 34.4976L12.2559 34.3258C12.0154 33.5561 11.2327 33.1061 10.4442 33.3525L10.616 33.9023ZM11.7062 34.4976C11.8519 34.964 11.596 35.4362 11.1108 35.5878L11.2826 36.1376C12.0524 35.897 12.5023 35.1144 12.2559 34.3258L11.7062 34.4976ZM11.1157 35.5863C8.85749 36.2483 6.96448 36.5551 5.47134 36.5551V37.1311C7.03707 37.1311 8.98718 36.8104 11.2777 36.1391L11.1157 35.5863ZM5.47134 36.5551C3.4764 36.5551 2.23253 35.9804 1.64135 34.972L1.14446 35.2632C1.88659 36.5292 3.38785 37.1311 5.47134 37.1311V36.5551ZM1.64112 34.9716C0.947737 33.7929 1.30949 32.1641 2.61298 30.2089C3.90354 28.2731 6.05473 26.1179 8.7114 23.9691L8.34919 23.5212C5.67253 25.6862 3.47071 27.884 2.13375 29.8894C0.809719 31.8754 0.269444 33.7758 1.14469 35.2636L1.64112 34.9716ZM8.71142 23.5213C6.97128 22.1136 4.72777 20.1208 3.16056 18.0796C2.37649 17.0584 1.77403 16.0407 1.4819 15.0907C1.19109 14.145 1.21387 13.2903 1.64166 12.557L1.14415 12.2668C0.611161 13.1805 0.609431 14.213 0.931373 15.26C1.252 16.3026 1.89954 17.383 2.70372 18.4304C4.31301 20.5264 6.59897 22.5532 8.34918 23.969L8.71142 23.5213ZM1.64237 12.5557C2.16442 11.6506 3.19084 11.107 4.78658 10.9882C6.38414 10.8694 8.50303 11.1827 11.1162 11.9433L11.2772 11.3902C8.63537 10.6214 6.4404 10.2876 4.74384 10.4139C3.04546 10.5402 1.79749 11.1339 1.14344 12.268L1.64237 12.5557ZM11.1269 11.9461C11.5836 12.0603 11.856 12.5524 11.7062 13.0318L12.2559 13.2036C12.4982 12.4281 12.0647 11.5869 11.2666 11.3874L11.1269 11.9461ZM11.7016 13.0479C11.5875 13.5046 11.0954 13.777 10.616 13.6272L10.4442 14.1769C11.2196 14.4192 12.0609 13.9857 12.2604 13.1876L11.7016 13.0479ZM10.6104 13.6255C8.29989 12.9541 6.58482 12.7119 5.39142 12.717C4.79533 12.7195 4.31936 12.7837 3.96058 12.8931C3.61257 12.9992 3.32797 13.1624 3.18488 13.4009L3.67877 13.6973C3.71215 13.6416 3.82951 13.5352 4.12857 13.444C4.41685 13.3561 4.83305 13.2953 5.39385 13.293C6.51423 13.2882 8.1718 13.5167 10.4497 14.1786L10.6104 13.6255ZM3.18266 13.4047C3.01022 13.7022 3.03932 14.1374 3.1962 14.6234C3.35917 15.1283 3.68308 15.761 4.21047 16.5134C5.26618 18.0194 7.16151 20.0393 10.3122 22.5205L10.6686 22.068C7.54479 19.608 5.69498 17.6277 4.68211 16.1828C4.1752 15.4596 3.88396 14.8791 3.74431 14.4465C3.59857 13.9949 3.63758 13.7684 3.68099 13.6935L3.18266 13.4047ZM10.6645 22.5237C11.7946 21.6664 13.0436 20.8075 14.2955 19.986L13.9795 19.5045C12.7215 20.33 11.4607 21.1967 10.3164 22.0648L10.6645 22.5237ZM14.4251 19.7596C14.6401 15.4387 15.2655 10.7792 16.3828 7.20856C16.942 5.4216 17.6185 3.92704 18.4141 2.88493C19.2087 1.84411 20.0942 1.28798 21.0786 1.28798V0.712016C19.8473 0.712016 18.8112 1.41569 17.9563 2.53541C17.1024 3.65384 16.4014 5.22055 15.8331 7.03655C14.6955 10.6718 14.0661 15.385 13.8498 19.7309L14.4251 19.7596Z" fill="white" mask="url(#path-1-outside-1)"/>
<path d="M54.669 30.5533H63.7866V28.1785H57.5493V24.6974H63.4338V22.4848H57.5493V19.1658H63.7866V16.791H54.669V30.5533ZM66.5429 34.0344H69.3278V28.8747H69.4994C70.0335 30.0192 71.2066 30.7154 72.6467 30.7154C75.3076 30.7154 76.9099 28.684 76.9099 25.3078V25.2887C76.9099 21.9412 75.2695 19.8811 72.6467 19.8811C71.1589 19.8811 70.0431 20.5487 69.4994 21.6741H69.3278V20.0528H66.5429V34.0344ZM71.693 28.4074C70.2338 28.4074 69.2992 27.2343 69.2992 25.3078V25.2887C69.2992 23.3622 70.2243 22.1891 71.693 22.1891C73.1713 22.1891 74.0773 23.3622 74.0773 25.2887V25.3078C74.0773 27.2343 73.1618 28.4074 71.693 28.4074ZM80.6103 18.441C81.4687 18.441 82.1745 17.7543 82.1745 16.8959C82.1745 16.0281 81.4687 15.3414 80.6103 15.3414C79.752 15.3414 79.0367 16.0281 79.0367 16.8959C79.0367 17.7543 79.752 18.441 80.6103 18.441ZM79.2084 30.5533H81.9933V20.0528H79.2084V30.5533ZM89.4228 30.7726C92.16 30.7726 93.8004 29.3039 94.0865 27.015L94.096 26.9577H91.521L91.5019 26.9959C91.2539 28.045 90.5768 28.5886 89.4323 28.5886C87.9445 28.5886 87.1148 27.4155 87.1148 25.2887V25.2697C87.1148 23.1715 87.935 22.0079 89.4323 22.0079C90.6245 22.0079 91.3207 22.6755 91.5019 23.696L91.5114 23.7151H94.1056V23.6865C93.8576 21.3403 92.2076 19.8239 89.4228 19.8239C86.1324 19.8239 84.2822 21.8172 84.2822 25.2697V25.2887C84.2822 28.7794 86.142 30.7726 89.4228 30.7726ZM101.592 30.5533H104.473V25.5176H106.828L109.394 30.5533H112.656L109.756 25.0884C111.33 24.4685 112.245 22.9521 112.245 21.1877V21.1686C112.245 18.4601 110.452 16.791 107.324 16.791H101.592V30.5533ZM104.473 23.4194V19.0418H106.971C108.411 19.0418 109.298 19.9002 109.298 21.2259V21.2449C109.298 22.5992 108.45 23.4194 107.009 23.4194H104.473ZM119.15 30.7726C122.221 30.7726 123.576 28.9987 123.9 27.6826L123.919 27.5872H121.325L121.296 27.6444C121.106 28.045 120.428 28.6935 119.208 28.6935C117.729 28.6935 116.804 27.6921 116.776 25.9659H124.005V25.098C124.005 21.9221 122.097 19.8239 119.036 19.8239C115.974 19.8239 114.019 21.9698 114.019 25.3078V25.3173C114.019 28.684 115.955 30.7726 119.15 30.7726ZM119.084 21.9125C120.295 21.9125 121.163 22.6946 121.334 24.2206H116.804C116.976 22.7327 117.872 21.9125 119.084 21.9125ZM129.145 30.7154C130.519 30.7154 131.625 30.1337 132.159 29.1609H132.331V30.5533H135.078V23.3813C135.078 21.14 133.504 19.8239 130.719 19.8239C128.077 19.8239 126.341 21.0446 126.122 22.8853L126.113 22.9712H128.688L128.707 22.933C128.926 22.3131 129.565 21.9602 130.566 21.9602C131.711 21.9602 132.331 22.4752 132.331 23.3813V24.2492L129.794 24.4018C127.181 24.5544 125.722 25.6607 125.722 27.5491V27.5681C125.722 29.4756 127.143 30.7154 129.145 30.7154ZM128.44 27.3965V27.3774C128.44 26.6144 129.021 26.1662 130.214 26.0899L132.331 25.9563V26.7289C132.331 27.8352 131.368 28.684 130.08 28.684C129.117 28.684 128.44 28.1976 128.44 27.3965ZM142.431 30.7726C145.168 30.7726 146.808 29.3039 147.095 27.015L147.104 26.9577H144.529L144.51 26.9959C144.262 28.045 143.585 28.5886 142.44 28.5886C140.953 28.5886 140.123 27.4155 140.123 25.2887V25.2697C140.123 23.1715 140.943 22.0079 142.44 22.0079C143.633 22.0079 144.329 22.6755 144.51 23.696L144.519 23.7151H147.114V23.6865C146.866 21.3403 145.216 19.8239 142.431 19.8239C139.14 19.8239 137.29 21.8172 137.29 25.2697V25.2887C137.29 28.7794 139.15 30.7726 142.431 30.7726ZM153.742 30.5914C154.276 30.5914 154.791 30.5342 155.134 30.4675V28.3979C154.867 28.4265 154.677 28.4456 154.314 28.4456C153.37 28.4456 152.969 28.0259 152.969 27.0817V22.151H155.134V20.0528H152.969V17.5445H150.156V20.0528H148.535V22.151H150.156V27.7207C150.156 29.7617 151.186 30.5914 153.742 30.5914Z" fill="white"/>
</svg>
