<?xml version="1.0" standalone="no"?>
<!DOCTYPE svg PUBLIC "-//W3C//DTD SVG 20010904//EN"
 "http://www.w3.org/TR/2001/REC-SVG-20010904/DTD/svg10.dtd">
<svg version="1.0" xmlns="http://www.w3.org/2000/svg"
 width="512.000000pt" height="512.000000pt" viewBox="0 0 512.000000 512.000000"
 preserveAspectRatio="xMidYMid meet">
<metadata>
Created by potrace 1.14, written by Peter Selinger 2001-2017
</metadata>
<g transform="translate(0.000000,512.000000) scale(0.100000,-0.100000)"
fill="#000000" stroke="none">
<path d="M1184 3688 c12 -35 229 -663 482 -1395 l459 -1333 381 0 380 0 434
1258 c238 691 455 1319 481 1395 l48 137 -328 0 -327 0 -309 -967 c-170 -533
-321 -1010 -337 -1060 -29 -94 -50 -116 -63 -70 -8 24 -626 1972 -651 2050
l-16 47 -328 0 -329 0 23 -62z"/>
</g>
</svg>
