<svg width="156" height="40" viewBox="0 0 156 40" fill="none" xmlns="http://www.w3.org/2000/svg">
<path d="M51.4573 26.4774C54.1771 26.4774 56.0094 25.1533 56.4389 23.1134L53.6188 22.9273C53.3111 23.7647 52.5237 24.2014 51.5074 24.2014C49.9828 24.2014 49.0166 23.1922 49.0166 21.5531V21.5459H56.5033V20.7085C56.5033 16.9723 54.2415 15.1257 51.3356 15.1257C48.1004 15.1257 46.0033 17.4233 46.0033 20.8159C46.0033 24.3016 48.0718 26.4774 51.4573 26.4774ZM49.0166 19.6564C49.081 18.4038 50.0329 17.4018 51.3857 17.4018C52.7098 17.4018 53.626 18.3466 53.6331 19.6564H49.0166ZM63.446 30.6144C66.5881 30.6144 68.8212 29.1829 68.8212 26.3701V15.2689H65.7936V17.1155H65.6791C65.2711 16.2208 64.3765 15.1257 62.537 15.1257C60.1249 15.1257 58.0851 17.001 58.0851 20.7443C58.0851 24.4018 60.0677 26.1052 62.5442 26.1052C64.2977 26.1052 65.2783 25.2249 65.6791 24.3159H65.8079V26.3271C65.8079 27.8373 64.8417 28.4242 63.5176 28.4242C62.172 28.4242 61.492 27.8373 61.2415 27.1717L58.4215 27.551C58.7865 29.2831 60.4828 30.6144 63.446 30.6144ZM63.5104 23.8149C62.0145 23.8149 61.1986 22.6267 61.1986 20.73C61.1986 18.8619 62.0002 17.5521 63.5104 17.5521C64.992 17.5521 65.8223 18.8046 65.8223 20.73C65.8223 22.6697 64.9777 23.8149 63.5104 23.8149ZM76.2005 30.6144C79.3427 30.6144 81.5758 29.1829 81.5758 26.3701V15.2689H78.5482V17.1155H78.4337C78.0257 16.2208 77.131 15.1257 75.2916 15.1257C72.8795 15.1257 70.8396 17.001 70.8396 20.7443C70.8396 24.4018 72.8222 26.1052 75.2987 26.1052C77.0523 26.1052 78.0329 25.2249 78.4337 24.3159H78.5625V26.3271C78.5625 27.8373 77.5962 28.4242 76.2721 28.4242C74.9265 28.4242 74.2466 27.8373 73.9961 27.1717L71.176 27.551C71.5411 29.2831 73.2374 30.6144 76.2005 30.6144ZM76.265 23.8149C74.7691 23.8149 73.9531 22.6267 73.9531 20.73C73.9531 18.8619 74.7547 17.5521 76.265 17.5521C77.7466 17.5521 78.5768 18.8046 78.5768 20.73C78.5768 22.6697 77.7322 23.8149 76.265 23.8149ZM87.0512 19.9069C87.0584 18.4897 87.9244 17.6595 89.1698 17.6595C90.4081 17.6595 91.1381 18.4539 91.131 19.8067V26.2627H94.18V19.2627C94.1872 16.686 92.6698 15.1257 90.3794 15.1257C88.7118 15.1257 87.5952 15.913 87.0942 17.2085H86.9653V11.6043H84.0022V26.2627H87.0512V19.9069ZM101.59 26.4774C104.31 26.4774 106.142 25.1533 106.571 23.1134L103.751 22.9273C103.444 23.7647 102.656 24.2014 101.64 24.2014C100.115 24.2014 99.1491 23.1922 99.1491 21.5531V21.5459H106.636V20.7085C106.636 16.9723 104.374 15.1257 101.468 15.1257C98.2329 15.1257 96.1358 17.4233 96.1358 20.8159C96.1358 24.3016 98.2043 26.4774 101.59 26.4774ZM99.1491 19.6564C99.2135 18.4038 100.165 17.4018 101.518 17.4018C102.842 17.4018 103.758 18.3466 103.766 19.6564H99.1491ZM111.761 26.4703C113.385 26.4703 114.437 25.7617 114.974 24.7382H115.06V26.2627H117.952V18.8476C117.952 16.228 115.733 15.1257 113.285 15.1257C110.651 15.1257 108.919 16.3854 108.497 18.3895L111.317 18.6185C111.524 17.8885 112.176 17.3517 113.271 17.3517C114.309 17.3517 114.903 17.8742 114.903 18.776V18.819C114.903 19.5275 114.151 19.6206 112.24 19.8067C110.064 20.0071 108.11 20.7372 108.11 23.1922C108.11 25.368 109.663 26.4703 111.761 26.4703ZM112.634 24.366C111.696 24.366 111.023 23.9294 111.023 23.0919C111.023 22.2331 111.732 21.8108 112.805 21.6605C113.471 21.5674 114.559 21.41 114.924 21.1666V22.3333C114.924 23.4856 113.972 24.366 112.634 24.366ZM124.368 26.4416C126.143 26.4416 127.067 25.4181 127.489 24.502H127.618V26.2627H130.624V11.6043H127.582V17.1155H127.489C127.081 16.2208 126.201 15.1257 124.361 15.1257C121.949 15.1257 119.909 17.001 119.909 20.7801C119.909 24.459 121.863 26.4416 124.368 26.4416ZM125.335 24.0153C123.839 24.0153 123.023 22.684 123.023 20.7658C123.023 18.8619 123.824 17.5521 125.335 17.5521C126.816 17.5521 127.646 18.8046 127.646 20.7658C127.646 22.7269 126.802 24.0153 125.335 24.0153ZM134.913 26.4488C135.829 26.4488 136.624 25.6829 136.631 24.731C136.624 23.7934 135.829 23.0275 134.913 23.0275C133.968 23.0275 133.188 23.7934 133.195 24.731C133.188 25.6829 133.968 26.4488 134.913 26.4488ZM139.134 26.2627H142.183V15.2689H139.134V26.2627ZM140.666 13.8517C141.575 13.8517 142.319 13.1574 142.319 12.3057C142.319 11.4611 141.575 10.7668 140.666 10.7668C139.764 10.7668 139.02 11.4611 139.02 12.3057C139.02 13.1574 139.764 13.8517 140.666 13.8517ZM149.593 26.4774C152.928 26.4774 155.004 24.1942 155.004 20.8087C155.004 17.4018 152.928 15.1257 149.593 15.1257C146.258 15.1257 144.182 17.4018 144.182 20.8087C144.182 24.1942 146.258 26.4774 149.593 26.4774ZM149.607 24.1155C148.068 24.1155 147.281 22.7054 147.281 20.7873C147.281 18.8691 148.068 17.4519 149.607 17.4519C151.117 17.4519 151.905 18.8691 151.905 20.7873C151.905 22.7054 151.117 24.1155 149.607 24.1155Z" fill="white"/>
<g clip-path="url(#clip0)">
<path d="M18.5629 39.0427C10.8377 39.0528 4.46699 32.9971 4.08241 25.282V25.254C2.67227 25.0764 1.51494 24.053 1.16614 22.6752C0.761383 21.0898 0.21311 18.7218 0.14808 16.4458C0.105892 15.1292 0.865217 13.9181 2.06872 13.3826C3.25047 12.8523 4.93566 12.4184 7.06035 12.0898C8.24884 9.34288 9.65147 6.9547 11.1348 5.15515C13.4457 2.35773 15.9448 0.939392 18.5629 0.939392C21.1809 0.939392 23.6778 2.35773 25.9853 5.15627C27.4619 6.95582 28.8702 9.34063 30.0564 12.082C32.1665 12.4004 33.8495 12.8366 35.0637 13.377C36.2666 13.9104 37.0264 15.1194 36.9855 16.4345C36.9205 18.7229 36.3733 21.0921 35.9686 22.6741C35.6204 24.0546 34.4606 25.0799 33.0478 25.2562V25.282C32.6525 32.996 26.2802 39.0463 18.5561 39.0415L18.5617 39.0427H18.5629Z" fill="white"/>
<path d="M18.5539 3.35004C25.2621 3.35004 30.7011 17.7688 30.7011 24.4782C30.7011 31.1875 25.2632 36.6265 18.5528 36.6265C11.8446 36.6265 6.40558 31.1886 6.40558 24.4782C6.4067 17.7688 11.8457 3.35004 18.5539 3.35004Z" fill="#FCFBFA"/>
<path d="M33.9571 14.9871L29.0014 16.735C29.0014 16.735 29.7683 19.0672 29.775 19.084C29.7828 19.1019 34.7128 18.4482 34.7128 18.4482L33.9571 14.9871ZM3.15069 14.9871L8.10644 16.735C8.10644 16.735 7.34066 19.0672 7.33281 19.084C7.32608 19.1019 2.39723 18.4482 2.39723 18.4482L3.15181 14.9871H3.15069Z" fill="#252526"/>
<path d="M13.4546 14.5733C14.2273 14.5552 14.8944 15.1108 15.0165 15.8739C15.1734 16.7171 15.2777 17.5703 15.3271 18.428C15.3318 18.6681 15.31 18.908 15.262 19.1434C15.2047 18.5676 15.1232 17.9945 15.0176 17.4257C14.8955 16.6625 14.2284 16.107 13.4557 16.1251C11.5945 16.1441 9.73332 16.2854 7.89005 16.5489C8.06496 16.0062 8.2522 15.4613 8.4529 14.9231C10.1117 14.7071 11.7819 14.5903 13.4546 14.5733ZM30.6787 23.9388C26.3037 23.7134 22.5667 22.313 21.7236 21.813C21.0654 21.499 20.2267 20.8319 19.9857 19.1647C19.8242 21.0012 20.1707 22.6741 21.8951 23.5004C22.0218 23.5766 25.3227 25.2102 30.6495 25.4905C30.6925 24.9745 30.7023 24.4561 30.6787 23.9388ZM6.44257 23.9388C10.8175 23.7134 14.5545 22.313 15.3977 21.813C16.0558 21.499 16.8945 20.8319 17.1356 19.1647C17.297 21.0012 16.9506 22.6741 15.2261 23.5004C15.0994 23.5766 11.7986 25.2102 6.47172 25.4905C6.42871 24.9745 6.41897 24.4561 6.44257 23.9388ZM23.6408 14.5733C22.8682 14.5552 22.201 15.1108 22.079 15.8739C21.922 16.7171 21.8189 17.5703 21.7695 18.428C21.7643 18.6682 21.7861 18.9081 21.8346 19.1434C21.8962 18.5256 21.9814 17.9369 22.0779 17.4257C22.2008 16.663 22.8674 16.1079 23.6397 16.1251C25.5021 16.1441 27.3621 16.2854 29.2054 16.5489C29.0302 16.0028 28.8425 15.4607 28.6426 14.9231C26.9841 14.7072 25.3143 14.5904 23.642 14.5733H23.6408Z" fill="#E0E0E0"/>
<path d="M7.92818 13.2593C9.12115 10.3666 10.5518 7.86293 12.0654 6.01965C14.1274 3.51935 16.3092 2.25238 18.5505 2.25238C20.793 2.25238 22.9748 3.51935 25.0356 6.01741C26.5549 7.85844 27.9911 10.3621 29.1729 13.2582L29.2312 13.4062L29.0832 13.3849C28.6616 13.3288 28.3197 13.2885 27.9014 13.2369H27.8488L27.8286 13.1898C26.4865 10.0571 24.1958 5.96584 21.237 4.25711C20.4264 3.7636 19.4993 3.49429 18.5505 3.47674C17.6021 3.49449 16.6754 3.76379 15.8652 4.25711C12.9131 5.96359 10.6292 10.0358 9.27587 13.1853L9.25569 13.2324H9.20412C8.78254 13.2773 8.43945 13.3187 8.02124 13.3804L7.87436 13.4017L7.92818 13.2593ZM30.8177 22.4264C30.4881 22.4174 30.1562 22.4039 29.8288 22.3849H29.7279L29.7145 22.2828C29.4185 19.9799 28.7569 17.2822 27.8375 14.6911L27.7781 14.4971L27.9777 14.524C28.3533 14.5745 28.7166 14.6306 29.0709 14.69L29.1438 14.7012L29.1673 14.7707C30.0531 17.3585 30.6809 20.0281 30.95 22.2884L30.9668 22.4364L30.8177 22.4252V22.4264Z" fill="#56555C"/>
<path d="M29.7346 16.5915C29.5561 15.9812 29.3643 15.3748 29.1595 14.7729L29.137 14.7034L29.0642 14.691C28.7155 14.6316 28.3466 14.5756 27.971 14.5251L27.7781 14.4971L27.8454 14.6877C28.0483 15.2617 28.2389 15.8403 28.4172 16.4211C29.0473 16.4939 29.4039 16.5444 29.7346 16.5915Z" fill="#252526"/>
<path d="M6.24748 22.2368C6.51657 19.9765 7.15005 17.3069 8.0302 14.7191L8.05375 14.6496L8.12663 14.6361C8.47532 14.5778 8.8442 14.5206 9.21981 14.4713L9.41939 14.4444L9.35211 14.6339C8.43496 17.225 7.76896 19.9204 7.47632 22.2245L7.46287 22.3276H7.36196C7.03345 22.3467 6.70045 22.3602 6.37305 22.368H6.22505L6.24748 22.2368Z" fill="#56555C"/>
<path d="M8.12665 14.6361L8.05377 14.6473L8.03134 14.718C7.82645 15.3211 7.63467 15.9285 7.45616 16.5399C8.07283 16.4615 8.2511 16.4704 8.76686 16.4155C8.94849 15.8246 9.14359 15.2225 9.35774 14.6328L9.42501 14.4444L9.22431 14.4713C8.85767 14.5211 8.49175 14.5761 8.12665 14.6361Z" fill="#252526"/>
<path d="M18.5539 37.7174C13.1127 37.7178 8.22474 34.3907 6.22954 29.3285C5.5591 27.6131 5.24919 25.7781 5.31912 23.9377V23.8547H5.40209C5.83376 23.8435 6.12864 23.8323 6.43585 23.8166H6.53227V23.9119C6.29444 28.9194 9.18753 33.5492 13.7925 35.5305C18.3975 37.5119 23.7485 36.429 27.2209 32.8132C28.3212 31.6719 29.1827 30.3225 29.7548 28.8441C30.3648 27.2744 30.6372 25.5948 30.5576 23.9141V23.8177H30.654C31.0835 23.8401 31.3795 23.8491 31.6878 23.8558H31.7708V23.9388C31.8469 25.7766 31.5443 27.6104 30.8816 29.3262C28.891 34.3926 24.0007 37.7231 18.5573 37.7196H18.5539V37.7174Z" fill="#56555C"/>
<path d="M6.57377 25.4917C6.53116 24.9647 6.51995 24.4344 6.54125 23.9051V23.8087H6.44483C6.13537 23.8255 5.83937 23.8367 5.41107 23.848H5.3281V23.9298C5.31016 24.4613 5.32137 24.9927 5.36398 25.5219H5.40322C5.80237 25.5219 6.19256 25.504 6.56368 25.486L6.57377 25.4917ZM31.7809 23.8536H31.6979C31.3851 23.8536 31.0891 23.8367 30.6641 23.8154H30.5677V23.9107C30.5901 24.4355 30.5789 24.9602 30.5374 25.4827L31.7483 25.5354C31.7909 25.0051 31.8022 24.4747 31.7842 23.9433L31.7809 23.8536Z" fill="#252526"/>
<path d="M32.4637 24.1238C29.9311 24.1333 27.4084 23.8091 24.9605 23.1596C23.9066 22.8826 22.8807 22.5093 21.8951 22.0485L21.8716 22.0305C19.8029 21.0416 19.7267 19.0593 19.9195 17.2519C19.9678 16.7956 19.8007 16.1913 19.3197 15.8706C18.8608 15.5644 18.2627 15.5644 17.8038 15.8706C17.3217 16.189 17.1546 16.7922 17.2029 17.2474C17.3957 19.0559 17.315 21.0383 15.2519 22.0272L15.2284 22.0384C14.2423 22.5051 13.2159 22.8815 12.1619 23.1629C9.71402 23.8124 7.19127 24.1366 4.65873 24.1272H4.64752C3.5967 24.1144 2.6864 23.3952 2.43088 22.3759C2.03846 20.8589 1.51485 18.5862 1.45431 16.4536C1.4271 15.6 1.91896 14.8148 2.69885 14.4668C5.54673 13.2032 11.312 12.7278 13.7708 12.7603C14.6285 12.7536 15.4526 13.0945 16.0559 13.7044C16.8426 13.3356 17.6986 13.1381 18.5674 13.1247C19.436 13.1373 20.292 13.3341 21.0789 13.7022C21.6772 13.0962 22.4944 12.7568 23.346 12.7603C24.8237 12.7379 31.1765 13.0126 34.4269 14.459C35.2058 14.804 35.6979 15.5865 35.6715 16.4379C35.6109 18.5738 35.0806 20.8589 34.7005 22.3725C34.445 23.3919 33.5347 24.1111 32.4839 24.1238H32.4637ZM23.6554 14.6675C22.9259 14.6513 22.296 15.1751 22.1788 15.8952C22.0218 16.7362 21.9187 17.5849 21.8682 18.4382C21.857 19.4136 22.2068 20.0807 22.902 20.4227C25.5077 21.5843 28.5349 22.1583 32.1576 22.1763C32.4353 22.1749 32.6775 21.9873 32.7485 21.7188C33.0927 20.3734 33.5569 18.372 33.6107 16.5321C33.6164 16.3558 33.5143 16.1938 33.3528 16.1229C30.8816 15.0117 25.5862 14.6316 23.6554 14.6619V14.6675ZM3.75391 16.1195C3.59285 16.1908 3.49124 16.3527 3.49715 16.5287C3.55097 18.3642 4.01515 20.3711 4.35937 21.7155C4.42888 21.9846 4.67218 22.1729 4.95024 22.174C8.57624 22.1561 11.599 21.582 14.2126 20.4182C14.91 20.0785 15.2587 19.4091 15.2475 18.4303C15.1972 17.5781 15.0931 16.7299 14.9358 15.8908C14.8185 15.1702 14.1879 14.6463 13.458 14.663C12.3334 14.6451 6.55358 14.8727 3.75503 16.1206L3.75391 16.1195Z" fill="#252526"/>
</g>
<defs>
<clipPath id="clip0">
<rect width="37" height="38.1212" fill="white" transform="translate(6.10352e-05 0.939453)"/>
</clipPath>
</defs>
</svg>
