<svg width="147" height="38" viewBox="0 0 147 38" fill="none" xmlns="http://www.w3.org/2000/svg">
<path opacity="0.6" fill-rule="evenodd" clip-rule="evenodd" d="M47.7573 0.165261C47.6331 1.1785 47.5214 2.13666 47.4156 3.04286C46.8119 8.21854 46.4057 11.6997 45.0207 14.0715C42.9746 16.735 39.7752 17.5462 34.5543 18.1346V19.2793C39.6316 19.9246 42.7454 20.6245 44.7853 23.0505C46.7082 25.7603 47.0899 29.8984 47.6895 36.4003L47.7572 37.1331C47.8553 36.3227 47.9459 35.5485 48.0325 34.8086C48.906 27.3472 49.3703 23.3811 52.953 21.0318C55.1201 19.9845 58.1132 19.5713 62.2803 19.0973V18.1805C56.8248 17.5379 53.3886 17.0349 51.1797 15.0809C49.1624 12.6774 48.7364 8.87274 48.0498 2.74111V2.7411C47.9584 1.92442 47.8624 1.06646 47.7573 0.165039V0.165261Z" fill="#B8B8B8"/>
<path d="M6.36543 12.9421C8.42508 12.9421 9.16444 13.7079 9.16444 15.3714C9.16444 17.035 8.37227 17.8272 6.41824 17.8272H3.9097V12.9421H6.36543ZM6.84074 20.9167C10.7488 20.9167 12.9141 18.4609 12.9141 15.3714C12.9141 11.6482 10.9072 9.72061 6.70871 9.72061H0.107269V25.5641H3.9097V20.9167H6.84074Z" fill="white"/>
<path d="M18.1108 25.5641V19.9925C18.1108 17.7744 18.8238 17.035 21.3323 17.035H22.0717V12.9157H21.702C20.0649 12.9157 19.0086 13.6287 18.2165 17.1142H17.926V13.0477H14.5197V25.5641H18.1108Z" fill="white"/>
<path d="M29.6392 25.9337C33.6265 25.9337 36.0558 23.4252 36.0558 19.3059C36.0558 15.1338 33.5473 12.7045 29.6392 12.7045C25.6519 12.7045 23.1698 15.1338 23.1698 19.3059C23.1698 23.4252 25.5727 25.9337 29.6392 25.9337ZM29.6128 15.7147C31.5932 15.7147 32.4646 17.0086 32.4646 19.2795C32.4646 21.5504 31.6196 22.8707 29.6128 22.8707C27.5796 22.8707 26.761 21.5504 26.761 19.2795C26.761 17.0086 27.6324 15.7147 29.6128 15.7147Z" fill="white"/>
<path d="M56.3501 13.2062H60.9183V25.5641H64.7207V13.2062H69.2889V9.72061H56.3501V13.2062Z" fill="white"/>
<path d="M73.9875 23.0819C72.6144 23.0819 72.1655 22.4482 72.1655 21.656C72.1655 20.7846 72.9048 20.2565 74.0667 20.2565H76.6545V20.7582C76.6545 22.1049 75.6246 23.0819 73.9875 23.0819ZM76.8393 25.5641H80.2192V17.6159C80.2192 14.4736 78.6613 12.7309 74.8589 12.7309C71.3997 12.7309 69.6569 14.3416 69.2344 16.6125L72.6144 17.3783C72.852 16.1636 73.5386 15.5827 74.7268 15.5827C76.0999 15.5827 76.6545 16.3221 76.6545 17.6159V18.4873H73.3801C70.0794 18.4873 68.7591 20.0453 68.7591 22.2898C68.7591 24.7455 70.3171 25.8281 72.4295 25.8281C74.5684 25.8281 75.8887 24.5606 76.5224 22.5802H76.8393V25.5641Z" fill="white"/>
<path d="M86.5019 11.2786V8.69079H82.7523V11.2786H86.5019ZM86.4227 25.5641V13.0477H82.8315V25.5641H86.4227Z" fill="white"/>
<path d="M92.7135 8.61157H89.1223V25.5641H92.7135V8.61157Z" fill="white"/>
<path d="M106.11 13.0477H102.07L101.04 17.9856C100.723 19.5436 100.433 21.1543 100.169 22.8179H99.6933C99.4292 21.1807 99.0859 19.6756 98.6898 17.9592L97.5808 13.0477H93.884L97.3696 25.5641H101.938L102.915 20.1773C103.152 18.7778 103.416 17.2463 103.601 15.7675H104.05C104.235 17.2727 104.473 18.7514 104.737 20.1773L105.793 25.5641H110.493L113.952 13.0477H110.414L109.463 17.9592C109.12 19.6756 108.777 21.2071 108.486 22.8179H108.037C107.773 21.1279 107.483 19.5436 107.14 17.9856L106.11 13.0477Z" fill="white"/>
<path d="M118.839 11.2786V8.69079H115.089V11.2786H118.839ZM118.759 25.5641V13.0477H115.168V25.5641H118.759Z" fill="white"/>
<path d="M124.997 18.5929C124.997 17.035 125.974 15.9524 127.506 15.9524C128.826 15.9524 129.407 16.8238 129.407 18.0912V25.5641H132.998V17.0878C132.998 14.368 131.784 12.7045 129.381 12.7045C127.427 12.7045 125.895 13.9719 125.156 16.4013H124.918V13.0477H121.406V25.5641H124.997V18.5929Z" fill="white"/>
<path d="M140.874 22.7651C139.105 22.7651 138.339 21.656 138.339 19.4115C138.339 17.0614 139.131 15.9524 140.847 15.9524C142.432 15.9524 143.409 17.1142 143.409 18.9362V19.9132C143.409 21.656 142.379 22.7651 140.874 22.7651ZM143.409 25.5641H147V8.61157H143.409V16.2164H143.171C142.511 14.0248 141.164 12.7045 139.157 12.7045C136.411 12.7045 134.827 15.0546 134.827 19.4115C134.827 23.6364 136.411 25.9337 139.105 25.9337C141.191 25.9337 142.564 24.4814 143.198 22.2898H143.409V25.5641Z" fill="white"/>
</svg>
