<svg width="178" height="24" viewBox="0 0 178 24" fill="none" xmlns="http://www.w3.org/2000/svg">
<path d="M7.90289 3.95365C7.90289 3.52175 7.73493 3.08985 7.39901 2.65795C7.07909 2.21006 6.91912 1.88214 6.91912 1.67419V1.57821C6.91912 1.24229 7.11908 1.07433 7.51898 1.07433H13.3976C13.7975 1.07433 13.9974 1.24229 13.9974 1.57821V1.67419C13.9974 1.88214 13.8135 2.21006 13.4456 2.65795C13.0777 3.08985 12.8937 3.52175 12.8937 3.95365V10.0722C12.8937 12.9835 12.3658 15.087 11.3101 16.3827C10.2703 17.6624 8.7107 18.3182 6.63119 18.3502C5.46347 18.3662 4.45571 18.2303 3.60791 17.9423C2.7761 17.6544 2.15225 17.2705 1.73635 16.7906C1.32045 16.3107 1.01652 15.8308 0.824567 15.3509C0.648609 14.8551 0.56063 14.3512 0.56063 13.8393C0.56063 13.1355 0.760582 12.5676 1.16049 12.1357C1.56039 11.6878 2.08827 11.4639 2.74411 11.4639C3.41595 11.4639 3.94383 11.6398 4.32774 11.9917C4.72764 12.3277 4.99158 12.7436 5.11955 13.2394C5.26352 13.7193 5.38349 14.2072 5.47946 14.7031C5.57544 15.183 5.71941 15.5989 5.91136 15.9508C6.11931 16.2867 6.41524 16.4547 6.79915 16.4547C7.53498 16.4547 7.90289 15.3669 7.90289 13.1915V3.95365ZM27.2498 15.303C27.2498 15.7508 27.2978 16.0948 27.3938 16.3347C27.5057 16.5587 27.6177 16.6866 27.7297 16.7186C27.8417 16.7346 27.9456 16.7986 28.0416 16.9106C28.1536 17.0066 28.2096 17.1665 28.2096 17.3905C28.2096 17.9663 27.2978 18.2543 25.4742 18.2543C24.6904 18.2543 24.1145 18.1583 23.7466 17.9663C23.3787 17.7744 23.1548 17.4544 23.0748 17.0066C22.4509 17.9023 21.3552 18.3502 19.7876 18.3502C18.5559 18.3502 17.5001 17.9423 16.6203 17.1265C15.7405 16.3107 15.3006 15.207 15.3006 13.8153V9.88024C15.3006 9.44834 15.1327 9.02444 14.7968 8.60854C14.4768 8.17664 14.3169 7.87272 14.3169 7.69676V7.60078C14.3169 7.45682 14.3729 7.32885 14.4848 7.21687C14.5968 7.0889 14.7408 7.01692 14.9167 7.00092L18.8998 6.47305C19.7476 6.37707 20.1715 6.56103 20.1715 7.02492L20.0755 14.3192C20.0595 15.167 20.1475 15.7588 20.3394 16.0948C20.5314 16.4307 20.8433 16.5986 21.2752 16.5986C21.6111 16.5986 21.8911 16.4067 22.115 16.0228C22.355 15.6389 22.4749 15.143 22.4749 14.5351V9.88024C22.4749 9.44834 22.307 9.02444 21.9711 8.60854C21.6511 8.17664 21.4912 7.87272 21.4912 7.69676V7.60078C21.4912 7.45682 21.5472 7.32885 21.6591 7.21687C21.7711 7.0889 21.9151 7.01692 22.091 7.00092L26.0741 6.47305C26.8579 6.37707 27.2498 6.56103 27.2498 7.02492V15.303ZM34.4365 18.3262C32.8848 18.3262 31.5971 18.0783 30.5734 17.5824C29.5656 17.0705 29.0617 16.3747 29.0617 15.4949C29.0617 14.919 29.2377 14.4951 29.5896 14.2232C29.9415 13.9353 30.3974 13.7913 30.9573 13.7913C31.5492 13.7913 32.021 13.9673 32.373 14.3192C32.7409 14.6711 32.9728 15.063 33.0688 15.4949C33.1808 15.9108 33.3407 16.2947 33.5487 16.6466C33.7726 16.9986 34.0686 17.1745 34.4365 17.1745C35.0603 17.1745 35.3723 16.8066 35.3723 16.0708C35.3723 15.5109 35.1563 15.063 34.7244 14.7271C34.3085 14.3752 33.8046 14.1112 33.2128 13.9353C32.6209 13.7433 32.021 13.5354 31.4132 13.3114C30.8213 13.0715 30.3095 12.6876 29.8776 12.1597C29.4617 11.6318 29.2537 10.944 29.2537 10.0962C29.2537 8.99245 29.7336 8.09666 30.6934 7.40883C31.6531 6.70499 32.9088 6.35308 34.4605 6.35308C35.9801 6.35308 37.2198 6.63301 38.1796 7.19288C39.1394 7.73675 39.6192 8.42459 39.6192 9.25639C39.6192 9.70428 39.4433 10.0882 39.0914 10.4081C38.7395 10.728 38.3076 10.888 37.7957 10.888C37.3158 10.888 36.9239 10.776 36.62 10.5521C36.316 10.3121 36.1001 10.0322 35.9721 9.71228C35.8441 9.39236 35.7322 9.07243 35.6362 8.75251C35.5402 8.41659 35.4202 8.13665 35.2763 7.91271C35.1483 7.67276 34.9644 7.55279 34.7244 7.55279C34.2125 7.55279 33.9566 7.9447 33.9566 8.72851C33.9566 9.33637 34.1565 9.83225 34.5564 10.2162C34.9564 10.5841 35.4362 10.872 35.9961 11.08C36.572 11.2719 37.1398 11.4799 37.6997 11.7038C38.2756 11.9278 38.7635 12.2957 39.1634 12.8075C39.5633 13.3034 39.7632 13.9433 39.7632 14.7271C39.7632 15.7828 39.2913 16.6466 38.3475 17.3185C37.4038 17.9903 36.1001 18.3262 34.4365 18.3262ZM45.9839 18.3502C44.7202 18.3502 43.7125 17.9503 42.9606 17.1505C42.2248 16.3347 41.8569 15.183 41.8569 13.6953V8.39259H41.1371C40.9611 8.39259 40.8171 8.33661 40.7052 8.22463C40.5932 8.09666 40.5372 7.9527 40.5372 7.79274V7.19288C40.5372 6.79297 40.7372 6.59302 41.1371 6.59302H41.473C42.2568 6.59302 42.9446 6.36907 43.5365 5.92118C44.1284 5.47329 44.5123 4.88143 44.6882 4.1456C44.8002 3.69771 45.0401 3.47376 45.4081 3.47376H46.0559C46.2639 3.47376 46.4318 3.53774 46.5598 3.66571C46.6878 3.77769 46.7517 3.93765 46.7517 4.1456V6.59302H49.0072C49.1832 6.59302 49.3271 6.64901 49.4391 6.76098C49.5511 6.87295 49.6071 7.01692 49.6071 7.19288V7.79274C49.6071 7.9527 49.5511 8.09666 49.4391 8.22463C49.3271 8.33661 49.1832 8.39259 49.0072 8.39259H46.7517V13.7913C46.7517 14.1272 46.8397 14.3992 47.0157 14.6071C47.2076 14.7991 47.4476 14.8951 47.7355 14.8951C48.3114 14.8951 48.8153 14.6391 49.2472 14.1272C49.4391 13.9193 49.6471 13.8473 49.871 13.9113C50.0949 13.9593 50.2069 14.1032 50.2069 14.3432C50.2069 15.3989 49.831 16.3347 49.0792 17.1505C48.3274 17.9503 47.2956 18.3502 45.9839 18.3502ZM61.6792 3.95365C61.6792 3.52175 61.5112 3.08985 61.1753 2.65795C60.8554 2.21006 60.6954 1.88214 60.6954 1.67419V1.57821C60.6954 1.24229 60.8954 1.07433 61.2953 1.07433H67.1739C67.5738 1.07433 67.7738 1.24229 67.7738 1.57821V1.67419C67.7738 1.88214 67.5898 2.21006 67.2219 2.65795C66.854 3.08985 66.67 3.52175 66.67 3.95365V10.0722C66.67 12.9835 66.1421 15.087 65.0864 16.3827C64.0466 17.6624 62.487 18.3182 60.4075 18.3502C59.2398 18.3662 58.232 18.2303 57.3842 17.9423C56.5524 17.6544 55.9286 17.2705 55.5127 16.7906C55.0968 16.3107 54.7928 15.8308 54.6009 15.3509C54.4249 14.8551 54.3369 14.3512 54.3369 13.8393C54.3369 13.1355 54.5369 12.5676 54.9368 12.1357C55.3367 11.6878 55.8646 11.4639 56.5204 11.4639C57.1923 11.4639 57.7201 11.6398 58.1041 11.9917C58.504 12.3277 58.7679 12.7436 58.8959 13.2394C59.0398 13.7193 59.1598 14.2072 59.2558 14.7031C59.3518 15.183 59.4957 15.5989 59.6877 15.9508C59.8956 16.2867 60.1916 16.4547 60.5755 16.4547C61.3113 16.4547 61.6792 15.3669 61.6792 13.1915V3.95365ZM79.952 15.303C80 15.7029 80.088 16.0308 80.2159 16.2867C80.3599 16.5267 80.4959 16.6866 80.6238 16.7666C80.7518 16.8306 80.8638 16.9186 80.9598 17.0305C81.0717 17.1265 81.1277 17.2465 81.1277 17.3905C81.1277 17.9663 80.128 18.2543 78.1284 18.2543C76.6728 18.2543 75.849 17.9023 75.657 17.1985C75.0332 17.9663 74.0494 18.3502 72.7057 18.3502C71.362 18.3502 70.2663 18.0463 69.4185 17.4384C68.5707 16.8146 68.1468 15.9028 68.1468 14.7031C68.1468 13.5354 68.5627 12.6316 69.3945 11.9917C70.2263 11.3359 71.2421 11.008 72.4418 11.008C73.3536 11.008 74.1214 11.1839 74.7452 11.5358C74.5533 9.69628 74.3933 8.60854 74.2653 8.27262C74.0894 7.82473 73.7855 7.60078 73.3536 7.60078C73.0496 7.60078 72.8017 7.77674 72.6097 8.12866C72.4178 8.46458 72.2738 8.84849 72.1778 9.28038C72.0979 9.69628 71.8979 10.0802 71.578 10.4321C71.2581 10.768 70.8342 10.936 70.3063 10.936C69.7464 10.936 69.2905 10.776 68.9386 10.4561C68.5867 10.1362 68.4107 9.72028 68.4107 9.2084C68.4107 8.53656 68.6587 7.97669 69.1546 7.5288C69.6664 7.0809 70.2743 6.77698 70.9781 6.61701C71.698 6.44106 72.4898 6.35308 73.3536 6.35308C75.0012 6.35308 76.3688 6.79297 77.4566 7.67276C78.5603 8.53656 79.2082 9.69628 79.4001 11.1519L79.952 15.303ZM74.2414 17.0066C74.5293 17.0066 74.7532 16.8386 74.9132 16.5027C75.0732 16.1668 75.1371 15.8148 75.1051 15.4469L75.0092 14.3192C74.8492 13.0395 74.4573 12.3996 73.8334 12.3996C73.5935 12.3996 73.3936 12.5276 73.2336 12.7836C73.0896 13.0395 73.0176 13.3674 73.0176 13.7673C73.0176 14.6791 73.1216 15.4469 73.3296 16.0708C73.5535 16.6946 73.8574 17.0066 74.2414 17.0066ZM93.4405 6.59302C93.8405 6.59302 94.0404 6.76098 94.0404 7.0969V7.19288C94.0404 7.43282 93.7925 7.77674 93.2966 8.22463C92.8007 8.67253 92.4808 9.08843 92.3368 9.47234L89.4335 17.4384C89.2735 17.8863 88.9696 18.1103 88.5217 18.1103H85.9783C85.5784 18.1103 85.2745 17.8863 85.0665 17.4384L81.6593 9.47234C81.5314 9.16841 81.2754 8.7845 80.8915 8.32061C80.5076 7.84072 80.3157 7.46481 80.3157 7.19288V7.0969C80.3157 6.76098 80.5156 6.59302 80.9155 6.59302H87.0581C87.234 6.59302 87.37 6.64101 87.466 6.73699C87.5779 6.83296 87.6339 6.96093 87.6339 7.12089V7.21687C87.6339 7.39283 87.5619 7.60078 87.418 7.84072C87.29 8.08067 87.194 8.29662 87.13 8.48857C87.0821 8.68053 87.13 9.03244 87.274 9.54432L88.9776 14.1512L90.3213 10.2402C90.5132 9.48833 90.5452 8.96846 90.4173 8.68053C90.2893 8.39259 90.0973 8.12066 89.8414 7.86472C89.5855 7.59278 89.4575 7.37683 89.4575 7.21687V7.12089C89.4575 6.76898 89.6574 6.59302 90.0574 6.59302H93.4405ZM105.868 15.303C105.916 15.7029 106.004 16.0308 106.132 16.2867C106.276 16.5267 106.412 16.6866 106.54 16.7666C106.668 16.8306 106.78 16.9186 106.875 17.0305C106.987 17.1265 107.043 17.2465 107.043 17.3905C107.043 17.9663 106.044 18.2543 104.044 18.2543C102.589 18.2543 101.765 17.9023 101.573 17.1985C100.949 17.9663 99.9651 18.3502 98.6214 18.3502C97.2778 18.3502 96.182 18.0463 95.3342 17.4384C94.4864 16.8146 94.0625 15.9028 94.0625 14.7031C94.0625 13.5354 94.4784 12.6316 95.3102 11.9917C96.142 11.3359 97.1578 11.008 98.3575 11.008C99.2693 11.008 100.037 11.1839 100.661 11.5358C100.469 9.69628 100.309 8.60854 100.181 8.27262C100.005 7.82473 99.7012 7.60078 99.2693 7.60078C98.9654 7.60078 98.7174 7.77674 98.5255 8.12866C98.3335 8.46458 98.1895 8.84849 98.0936 9.28038C98.0136 9.69628 97.8136 10.0802 97.4937 10.4321C97.1738 10.768 96.7499 10.936 96.222 10.936C95.6621 10.936 95.2063 10.776 94.8543 10.4561C94.5024 10.1362 94.3265 9.72028 94.3265 9.2084C94.3265 8.53656 94.5744 7.97669 95.0703 7.5288C95.5822 7.0809 96.19 6.77698 96.8939 6.61701C97.6137 6.44106 98.4055 6.35308 99.2693 6.35308C100.917 6.35308 102.285 6.79297 103.372 7.67276C104.476 8.53656 105.124 9.69628 105.316 11.1519L105.868 15.303ZM100.157 17.0066C100.445 17.0066 100.669 16.8386 100.829 16.5027C100.989 16.1668 101.053 15.8148 101.021 15.4469L100.925 14.3192C100.765 13.0395 100.373 12.3996 99.7492 12.3996C99.5092 12.3996 99.3093 12.5276 99.1493 12.7836C99.0054 13.0395 98.9334 13.3674 98.9334 13.7673C98.9334 14.6791 99.0373 15.4469 99.2453 16.0708C99.4692 16.6946 99.7732 17.0066 100.157 17.0066ZM114.624 18.3502C112.528 18.3502 110.769 17.9183 109.345 17.0545C107.937 16.1747 107.234 15.143 107.234 13.9593C107.234 12.6796 107.873 12.0397 109.153 12.0397C109.665 12.0397 110.105 12.1997 110.473 12.5196C110.841 12.8235 111.153 13.1995 111.409 13.6473C111.664 14.0952 111.92 14.5431 112.176 14.991C112.448 15.4389 112.8 15.8228 113.232 16.1428C113.68 16.4467 114.208 16.5986 114.816 16.5986C115.408 16.5986 115.863 16.4547 116.183 16.1668C116.519 15.8788 116.687 15.4789 116.687 14.967C116.687 14.3912 116.519 13.9033 116.183 13.5034C115.847 13.0875 115.408 12.7676 114.864 12.5436C114.32 12.3037 113.72 12.0877 113.064 11.8958C112.408 11.6878 111.752 11.4559 111.097 11.1999C110.457 10.928 109.865 10.6081 109.321 10.2402C108.777 9.85625 108.329 9.32037 107.977 8.63254C107.641 7.9447 107.473 7.12889 107.473 6.18512C107.473 4.5855 108.081 3.2978 109.297 2.32203C110.529 1.34626 112.136 0.858379 114.12 0.858379C116.055 0.858379 117.719 1.29827 119.111 2.17807C120.502 3.05786 121.19 4.08162 121.174 5.24934C121.174 5.85719 120.998 6.33708 120.646 6.689C120.31 7.04091 119.807 7.21687 119.135 7.21687C118.543 7.21687 118.039 7.05691 117.623 6.73699C117.223 6.41706 116.911 6.03315 116.687 5.58526C116.463 5.13737 116.239 4.68947 116.015 4.24158C115.808 3.77769 115.536 3.38578 115.2 3.06586C114.88 2.74593 114.488 2.58597 114.024 2.58597C113.416 2.58597 112.96 2.75393 112.656 3.08985C112.352 3.40977 112.2 3.84167 112.2 4.38554C112.2 5.07338 112.368 5.65724 112.704 6.13713C113.04 6.61701 113.472 6.99293 114 7.26486C114.544 7.5208 115.144 7.75275 115.8 7.9607C116.455 8.16865 117.103 8.40059 117.743 8.65653C118.399 8.91247 118.991 9.2164 119.519 9.56832C120.062 9.90424 120.502 10.3921 120.838 11.032C121.174 11.6558 121.342 12.4156 121.342 13.3114C121.342 14.8791 120.694 16.1108 119.399 17.0066C118.119 17.9023 116.527 18.3502 114.624 18.3502ZM128.699 18.3502C126.827 18.3502 125.316 17.7504 124.164 16.5507C123.012 15.3509 122.436 13.9513 122.436 12.3517C122.436 10.5281 123.028 9.08043 124.212 8.00868C125.396 6.92094 126.835 6.36907 128.531 6.35308C130.019 6.33708 131.258 6.665 132.25 7.33684C133.258 8.00868 133.762 8.92047 133.762 10.0722C133.762 10.5201 133.602 10.896 133.282 11.1999C132.962 11.4879 132.466 11.6158 131.794 11.5838C131.298 11.5518 130.866 11.3919 130.498 11.104C130.131 10.816 129.843 10.4881 129.635 10.1202C129.443 9.73628 129.267 9.35237 129.107 8.96846C128.947 8.58455 128.763 8.26462 128.555 8.00868C128.347 7.75275 128.107 7.63277 127.835 7.64877C127.467 7.66477 127.163 7.88871 126.923 8.32061C126.699 8.75251 126.587 9.28838 126.587 9.92823C126.587 11.4639 126.923 12.6956 127.595 13.6234C128.283 14.5511 129.195 15.015 130.33 15.015C131.306 15.015 132.138 14.6231 132.826 13.8393C133.002 13.6473 133.202 13.5834 133.426 13.6473C133.666 13.7113 133.786 13.8793 133.786 14.1512C133.786 15.319 133.346 16.3107 132.466 17.1265C131.586 17.9423 130.33 18.3502 128.699 18.3502ZM143.33 6.35308C144.018 6.35308 144.562 6.59302 144.962 7.07291C145.378 7.5368 145.586 8.13665 145.586 8.87248C145.586 10.5681 144.898 11.4159 143.522 11.4159C142.962 11.4159 142.539 11.2959 142.251 11.056C141.979 10.8 141.819 10.5201 141.771 10.2162C141.739 9.91223 141.667 9.6403 141.555 9.40036C141.443 9.14442 141.267 9.01645 141.027 9.01645C140.643 9.01645 140.451 9.51233 140.451 10.5041V15.231C140.451 15.5669 140.563 15.8708 140.787 16.1428C141.011 16.4147 141.235 16.6626 141.459 16.8866C141.683 17.1105 141.795 17.3185 141.795 17.5104V17.6064C141.795 17.9423 141.595 18.1103 141.195 18.1103H135.46C135.06 18.1103 134.86 17.9423 134.86 17.6064V17.5104C134.86 17.3025 135.02 16.9826 135.34 16.5507C135.676 16.1028 135.844 15.6629 135.844 15.231V11.1279C135.844 10.792 135.74 10.5121 135.532 10.2881C135.34 10.0482 135.14 9.84025 134.932 9.66429C134.724 9.47234 134.62 9.28038 134.62 9.08843V8.99245C134.62 8.70452 134.82 8.45658 135.22 8.24863L139.035 6.44905C139.371 6.32108 139.603 6.31309 139.731 6.42506C139.875 6.53703 139.947 6.73699 139.947 7.02492V8.7765C140.475 7.16089 141.603 6.35308 143.33 6.35308ZM151.792 4.64948C151.232 5.16136 150.504 5.4173 149.609 5.4173C148.713 5.4173 147.977 5.16136 147.401 4.64948C146.841 4.1376 146.561 3.50575 146.561 2.75393C146.561 2.00211 146.841 1.37826 147.401 0.882373C147.977 0.370494 148.713 0.114555 149.609 0.114555C150.504 0.114555 151.232 0.370494 151.792 0.882373C152.368 1.37826 152.656 2.00211 152.656 2.75393C152.656 3.50575 152.368 4.1376 151.792 4.64948ZM146.729 18.1103C146.329 18.1103 146.129 17.9423 146.129 17.6064V17.5104C146.129 17.3025 146.289 16.9826 146.609 16.5507C146.945 16.1028 147.113 15.6629 147.113 15.231V11.3679C147.113 10.936 146.945 10.5121 146.609 10.0962C146.289 9.66429 146.129 9.36036 146.129 9.18441V9.08843C146.129 8.88048 146.329 8.68053 146.729 8.48857L150.832 6.47305C151.184 6.31309 151.464 6.29709 151.672 6.42506C151.896 6.55303 152.008 6.75298 152.008 7.02492V15.231C152.008 15.6629 152.192 16.1028 152.56 16.5507C152.928 16.9826 153.112 17.3025 153.112 17.5104V17.6064C153.112 17.9423 152.912 18.1103 152.512 18.1103H146.729ZM161.681 6.35308C162.609 6.35308 163.488 6.55303 164.32 6.95293C165.168 7.33684 165.888 7.98469 166.48 8.89647C167.071 9.80826 167.367 10.896 167.367 12.1597C167.367 14.0153 166.808 15.5109 165.688 16.6466C164.568 17.7824 163.232 18.3502 161.681 18.3502C160.817 18.3502 160.097 18.1823 159.521 17.8464V20.1978C159.521 20.6297 159.705 21.0616 160.073 21.4935C160.441 21.9414 160.625 22.2693 160.625 22.4773V22.5732C160.625 22.9092 160.425 23.0771 160.025 23.0771H154.386C153.987 23.0771 153.787 22.9092 153.787 22.5732V22.4773C153.787 22.2693 153.947 21.9414 154.267 21.4935C154.602 21.0616 154.77 20.6297 154.77 20.1978V11.1519C154.77 10.752 154.562 10.3761 154.147 10.0242C153.747 9.67229 153.547 9.38436 153.547 9.16041V9.01645C153.547 8.72851 153.747 8.48057 154.147 8.27262L157.698 6.52104C158.098 6.36108 158.378 6.33708 158.538 6.44905C158.713 6.54503 158.801 6.73699 158.801 7.02492V7.5048C159.393 6.73699 160.353 6.35308 161.681 6.35308ZM161.273 17.0785C162.169 17.0785 162.617 16.2467 162.617 14.5831C162.617 13.6713 162.561 12.7276 162.449 11.7518C162.353 10.776 162.137 9.84825 161.801 8.96846C161.465 8.07267 161.049 7.62478 160.553 7.62478C159.865 7.62478 159.521 8.15265 159.521 9.2084V13.6713C159.521 14.6951 159.697 15.5189 160.049 16.1428C160.401 16.7666 160.809 17.0785 161.273 17.0785ZM173.524 18.3502C172.26 18.3502 171.253 17.9503 170.501 17.1505C169.765 16.3347 169.397 15.183 169.397 13.6953V8.39259H168.677C168.501 8.39259 168.357 8.33661 168.245 8.22463C168.133 8.09666 168.077 7.9527 168.077 7.79274V7.19288C168.077 6.79297 168.277 6.59302 168.677 6.59302H169.013C169.797 6.59302 170.485 6.36907 171.077 5.92118C171.668 5.47329 172.052 4.88143 172.228 4.1456C172.34 3.69771 172.58 3.47376 172.948 3.47376H173.596C173.804 3.47376 173.972 3.53774 174.1 3.66571C174.228 3.77769 174.292 3.93765 174.292 4.1456V6.59302H176.547C176.723 6.59302 176.867 6.64901 176.979 6.76098C177.091 6.87295 177.147 7.01692 177.147 7.19288V7.79274C177.147 7.9527 177.091 8.09666 176.979 8.22463C176.867 8.33661 176.723 8.39259 176.547 8.39259H174.292V13.7913C174.292 14.1272 174.38 14.3992 174.556 14.6071C174.748 14.7991 174.988 14.8951 175.276 14.8951C175.851 14.8951 176.355 14.6391 176.787 14.1272C176.979 13.9193 177.187 13.8473 177.411 13.9113C177.635 13.9593 177.747 14.1032 177.747 14.3432C177.747 15.3989 177.371 16.3347 176.619 17.1505C175.867 17.9503 174.836 18.3502 173.524 18.3502Z" fill="white"/>
</svg>
