<svg width="126" height="43" viewBox="0 0 126 43" fill="none" xmlns="http://www.w3.org/2000/svg">
<path d="M2.29031 39.0005C2.14587 39.0005 2.01587 38.9499 1.90032 38.8488C1.7992 38.7333 1.74865 38.6033 1.74865 38.4588V24.3756C1.74865 24.2167 1.7992 24.0867 1.90032 23.9856C2.01587 23.8845 2.14587 23.8339 2.29031 23.8339H5.15029C5.30918 23.8339 5.43918 23.8845 5.54029 23.9856C5.6414 24.0867 5.69195 24.2167 5.69195 24.3756V35.7288H12.2569C12.4158 35.7288 12.5458 35.7866 12.6469 35.9022C12.748 36.0033 12.7986 36.1333 12.7986 36.2922V38.4588C12.7986 38.6033 12.748 38.7333 12.6469 38.8488C12.5458 38.9499 12.4158 39.0005 12.2569 39.0005H2.29031ZM15.2183 39.0005C15.0738 39.0005 14.9438 38.9499 14.8283 38.8488C14.7272 38.7333 14.6766 38.6033 14.6766 38.4588V24.3756C14.6766 24.2167 14.7272 24.0867 14.8283 23.9856C14.9438 23.8845 15.0738 23.8339 15.2183 23.8339H25.3365C25.4954 23.8339 25.6254 23.8845 25.7265 23.9856C25.8276 24.0867 25.8782 24.2167 25.8782 24.3756V26.4123C25.8782 26.5567 25.8276 26.6867 25.7265 26.8022C25.6254 26.9034 25.4954 26.9539 25.3365 26.9539H18.4249V29.8789H24.8599C25.0188 29.8789 25.1488 29.9367 25.2499 30.0522C25.351 30.1533 25.4015 30.2833 25.4015 30.4422V32.3272C25.4015 32.4716 25.351 32.6016 25.2499 32.7172C25.1488 32.8183 25.0188 32.8689 24.8599 32.8689H18.4249V35.8805H25.5099C25.6687 35.8805 25.7987 35.9311 25.8999 36.0322C26.001 36.1333 26.0515 36.2633 26.0515 36.4222V38.4588C26.0515 38.6033 26.001 38.7333 25.8999 38.8488C25.7987 38.9499 25.6687 39.0005 25.5099 39.0005H15.2183ZM34.6491 39.2172C32.5691 39.2172 30.9441 38.7116 29.7741 37.7005C28.6041 36.675 27.983 35.2233 27.9108 33.3455C27.8963 32.9266 27.8891 32.2622 27.8891 31.3522C27.8891 30.4422 27.8963 29.7778 27.9108 29.3589C27.983 27.5245 28.6113 26.1089 29.7958 25.1123C30.9946 24.1156 32.6124 23.6173 34.6491 23.6173C36.0213 23.6173 37.2129 23.8412 38.224 24.2889C39.2496 24.7367 40.0296 25.3073 40.564 26.0006C41.1129 26.6939 41.4018 27.4089 41.4307 28.1456C41.4307 28.2756 41.3801 28.3839 41.279 28.4706C41.1923 28.5572 41.084 28.6006 40.954 28.6006H37.7907C37.6463 28.6006 37.5307 28.5789 37.444 28.5356C37.3574 28.4922 37.2852 28.4128 37.2274 28.2972C37.0396 27.8784 36.7435 27.5172 36.339 27.2139C35.9346 26.8961 35.3713 26.7372 34.6491 26.7372C32.9302 26.7372 32.0274 27.6472 31.9407 29.4672C31.9263 29.8717 31.9191 30.5 31.9191 31.3522C31.9191 32.19 31.9263 32.8183 31.9407 33.2372C32.0274 35.1439 32.9519 36.0972 34.7141 36.0972C35.5663 36.0972 36.2452 35.8805 36.7507 35.4472C37.2707 34.9994 37.5307 34.3205 37.5307 33.4105V32.9989H35.4941C35.3352 32.9989 35.2052 32.9483 35.1041 32.8472C35.0029 32.7316 34.9524 32.5944 34.9524 32.4355V30.8322C34.9524 30.6733 35.0029 30.5433 35.1041 30.4422C35.2052 30.3267 35.3352 30.2689 35.4941 30.2689H40.954C41.1129 30.2689 41.2429 30.3267 41.344 30.4422C41.4451 30.5433 41.4957 30.6733 41.4957 30.8322V33.3022C41.4957 34.53 41.214 35.5916 40.6507 36.4872C40.0874 37.3683 39.2857 38.0472 38.2457 38.5238C37.2202 38.986 36.0213 39.2172 34.6491 39.2172ZM66.0068 39.0005C65.8623 39.0005 65.7323 38.9499 65.6168 38.8488C65.5156 38.7333 65.4651 38.6033 65.4651 38.4588V24.3756C65.4651 24.2167 65.5156 24.0867 65.6168 23.9856C65.7323 23.8845 65.8623 23.8339 66.0068 23.8339H68.3034C68.6645 23.8339 68.9101 23.9712 69.0401 24.2456L74.3267 32.5655V24.3756C74.3267 24.2167 74.3772 24.0867 74.4784 23.9856C74.5939 23.8845 74.7239 23.8339 74.8683 23.8339H77.4683C77.6272 23.8339 77.7572 23.8845 77.8583 23.9856C77.9594 24.0867 78.01 24.2167 78.01 24.3756V38.4372C78.01 38.596 77.9594 38.7333 77.8583 38.8488C77.7572 38.9499 77.6272 39.0005 77.4683 39.0005H75.15C74.8322 39.0005 74.5939 38.8633 74.435 38.5888L69.1484 30.5722V38.4588C69.1484 38.6033 69.0978 38.7333 68.9967 38.8488C68.8956 38.9499 68.7656 39.0005 68.6067 39.0005H66.0068ZM81.5795 39.0005C81.4351 39.0005 81.3051 38.9499 81.1895 38.8488C81.0884 38.7333 81.0379 38.6033 81.0379 38.4588V24.3756C81.0379 24.2167 81.0884 24.0867 81.1895 23.9856C81.3051 23.8845 81.4351 23.8339 81.5795 23.8339H87.2128C89.3362 23.8339 90.9828 24.3395 92.1528 25.3506C93.3228 26.3617 93.9367 27.8278 93.9944 29.7489C94.0089 30.1678 94.0161 30.7239 94.0161 31.4172C94.0161 32.1105 94.0089 32.6594 93.9944 33.0639C93.9222 35.0716 93.3228 36.5666 92.1961 37.5488C91.0839 38.5166 89.4589 39.0005 87.3212 39.0005H81.5795ZM87.2128 35.8805C88.1662 35.8805 88.8667 35.6566 89.3145 35.2089C89.7623 34.7466 90.0006 34.0172 90.0295 33.0205C90.0584 32.6016 90.0728 32.06 90.0728 31.3955C90.0728 30.7311 90.0584 30.1967 90.0295 29.7922C90.0006 28.8245 89.7406 28.1095 89.2495 27.6472C88.7728 27.185 88.0578 26.9539 87.1045 26.9539H84.9378V35.8805H87.2128Z" fill="white"/>
<path d="M100.874 22.389H122.184C124.081 22.389 125.618 23.9268 125.618 25.8237V36.6185C125.618 38.0939 124.422 39.2899 122.947 39.2899H100.111C98.6357 39.2899 97.4397 38.0939 97.4397 36.6185V25.8237C97.4397 23.9268 98.9775 22.389 100.874 22.389Z" fill="#B9B9B9" stroke="#3C3C3C" stroke-width="0.763267"/>
<rect x="99.4023" y="21.7354" width="24.2541" height="13.6298" rx="2.67143" fill="white" stroke="#3C3C3C" stroke-width="0.763267"/>
<path d="M122.729 35.2219L125.019 38.275" stroke="#3C3C3C" stroke-width="0.667859"/>
<path d="M100.493 35.2219L98.2031 38.275" stroke="#3C3C3C" stroke-width="0.667859"/>
<path d="M106.466 26.4047V31.1987H108.153C109.499 31.1987 110.196 30.3648 110.196 28.7535C110.196 27.222 109.485 26.4047 108.153 26.4047H106.466ZM107.685 27.3848H107.967C108.635 27.3848 108.954 27.8366 108.954 28.7768C108.954 29.7801 108.655 30.2187 107.967 30.2187H107.685V27.3848ZM114.117 30.2187H112.167V29.2386H113.994V28.3416H112.167V27.3848H114.117V26.4047H110.947V31.1987H114.117V30.2187ZM116.758 30.119H116.695L115.904 26.4047H114.575L115.934 31.1987H117.426L118.781 26.4047H117.572L116.758 30.119Z" fill="#3C3C3C"/>
<path d="M103.851 29.8091H104.963V30.9213H103.851V29.8091Z" fill="#3C3C3C"/>
<path d="M47.8819 22.4991H59.3309C61.2278 22.4991 62.7656 24.0369 62.7656 25.9338V36.6196C62.7656 38.095 61.5695 39.291 60.0941 39.291H47.1186C45.6432 39.291 44.4472 38.095 44.4472 36.6196V25.9338C44.4472 24.0369 45.9849 22.4991 47.8819 22.4991Z" fill="#B9B9B9" stroke="#3C3C3C" stroke-width="0.763267"/>
<rect x="46.7368" y="21.7356" width="13.7388" height="13.7388" rx="2.67143" fill="white" stroke="#3C3C3C" stroke-width="0.763267"/>
<path d="M59.7124 35.0926L62.0022 38.1456" stroke="#3C3C3C" stroke-width="0.667859"/>
<path d="M47.5004 35.0926L45.2106 38.1456" stroke="#3C3C3C" stroke-width="0.667859"/>
<path d="M55.7024 30.8163H53.1522V29.5347H55.5416V28.3617H53.1522V27.1105H55.7024V25.8288H51.5577V32.0979H55.7024V30.8163Z" fill="#3C3C3C"/>
<path d="M2.29046 18.419C2.14602 18.419 2.01602 18.3685 1.90047 18.2673C1.79936 18.1518 1.7488 18.0218 1.7488 17.8773V3.79412C1.7488 3.63523 1.79936 3.50523 1.90047 3.40412C2.01602 3.30301 2.14602 3.25246 2.29046 3.25246H5.02044C5.17933 3.25246 5.30933 3.30301 5.41044 3.40412C5.51155 3.50523 5.56211 3.63523 5.56211 3.79412V8.60408L9.57041 3.66412C9.74374 3.38968 10.0254 3.25246 10.4154 3.25246H13.5354C13.6654 3.25246 13.7737 3.30301 13.8604 3.40412C13.947 3.49079 13.9904 3.5919 13.9904 3.70745C13.9904 3.80856 13.9687 3.89523 13.9254 3.96745L8.72542 10.5107L14.3154 17.704C14.3732 17.7618 14.402 17.8485 14.402 17.964C14.402 18.0796 14.3587 18.1879 14.272 18.289C14.1854 18.3757 14.077 18.419 13.947 18.419H10.7187C10.3721 18.419 10.0832 18.2746 9.85207 17.9857L5.56211 12.6341V17.8773C5.56211 18.0362 5.51155 18.1662 5.41044 18.2673C5.30933 18.3685 5.17933 18.419 5.02044 18.419H2.29046ZM16.6572 18.419C16.5128 18.419 16.3828 18.3685 16.2672 18.2673C16.1661 18.1518 16.1156 18.0218 16.1156 17.8773V3.79412C16.1156 3.63523 16.1661 3.50523 16.2672 3.40412C16.3828 3.30301 16.5128 3.25246 16.6572 3.25246H26.7755C26.9344 3.25246 27.0644 3.30301 27.1655 3.40412C27.2666 3.50523 27.3171 3.63523 27.3171 3.79412V5.83077C27.3171 5.97521 27.2666 6.10521 27.1655 6.22077C27.0644 6.32188 26.9344 6.37243 26.7755 6.37243H19.8639V9.29741H26.2988C26.4577 9.29741 26.5877 9.35519 26.6888 9.47074C26.7899 9.57185 26.8405 9.70185 26.8405 9.86074V11.7457C26.8405 11.8902 26.7899 12.0202 26.6888 12.1357C26.5877 12.2368 26.4577 12.2874 26.2988 12.2874H19.8639V15.299H26.9488C27.1077 15.299 27.2377 15.3496 27.3388 15.4507C27.4399 15.5518 27.4905 15.6818 27.4905 15.8407V17.8773C27.4905 18.0218 27.4399 18.1518 27.3388 18.2673C27.2377 18.3685 27.1077 18.419 26.9488 18.419H16.6572ZM34.395 18.419C34.2505 18.419 34.1205 18.3685 34.005 18.2673C33.9039 18.1518 33.8533 18.0218 33.8533 17.8773V13.219L28.8267 3.94578C28.7833 3.81578 28.7617 3.73634 28.7617 3.70745C28.7617 3.5919 28.805 3.49079 28.8917 3.40412C28.9928 3.30301 29.1083 3.25246 29.2383 3.25246H31.9467C32.2355 3.25246 32.4883 3.40412 32.705 3.70745L35.8033 9.29741L38.9233 3.70745C39.0966 3.40412 39.3494 3.25246 39.6816 3.25246H42.3899C42.5199 3.25246 42.6282 3.30301 42.7149 3.40412C42.8016 3.49079 42.8449 3.5919 42.8449 3.70745C42.8449 3.77967 42.8305 3.85912 42.8016 3.94578L37.7749 13.219V17.8773C37.7749 18.0362 37.7172 18.1662 37.6016 18.2673C37.5005 18.3685 37.3705 18.419 37.2116 18.419H34.395ZM71.9479 18.6357C69.9113 18.6357 68.308 18.1373 67.138 17.1407C65.968 16.144 65.3469 14.6779 65.2746 12.7424C65.2602 12.3235 65.253 11.7024 65.253 10.8791C65.253 10.0413 65.2602 9.41296 65.2746 8.99408C65.3469 7.08743 65.9752 5.62133 67.1596 4.59578C68.3585 3.55579 69.9546 3.03579 71.9479 3.03579C73.9412 3.03579 75.5373 3.55579 76.7362 4.59578C77.9351 5.62133 78.5634 7.08743 78.6212 8.99408C78.6501 9.83185 78.6645 10.4602 78.6645 10.8791C78.6645 11.2835 78.6501 11.9046 78.6212 12.7424C78.549 14.6779 77.9279 16.144 76.7579 17.1407C75.5879 18.1373 73.9846 18.6357 71.9479 18.6357ZM71.9479 15.5157C72.7424 15.5157 73.3707 15.2774 73.8329 14.8007C74.3096 14.324 74.5623 13.5946 74.5912 12.6124C74.6201 11.7746 74.6346 11.1824 74.6346 10.8357C74.6346 10.4602 74.6201 9.86796 74.5912 9.05908C74.5623 8.07686 74.3096 7.34742 73.8329 6.87076C73.3562 6.3941 72.7279 6.15577 71.9479 6.15577C71.1679 6.15577 70.5396 6.3941 70.0629 6.87076C69.6007 7.34742 69.3479 8.07686 69.3046 9.05908C69.2902 9.46352 69.2829 10.0557 69.2829 10.8357C69.2829 11.6013 69.2902 12.1935 69.3046 12.6124C69.3479 13.5946 69.6007 14.324 70.0629 14.8007C70.5252 15.2774 71.1535 15.5157 71.9479 15.5157ZM79.992 18.419C79.8764 18.419 79.7681 18.3757 79.667 18.289C79.5803 18.1879 79.537 18.0796 79.537 17.964C79.537 17.8773 79.5442 17.8123 79.5586 17.769L84.6502 3.85912C84.6936 3.68579 84.7875 3.54134 84.9319 3.42579C85.0764 3.31023 85.2641 3.25246 85.4952 3.25246H88.7019C88.933 3.25246 89.1208 3.31023 89.2652 3.42579C89.4097 3.54134 89.5035 3.68579 89.5469 3.85912L94.6168 17.769L94.6602 17.964C94.6602 18.0796 94.6096 18.1879 94.5085 18.289C94.4218 18.3757 94.3135 18.419 94.1835 18.419H91.5185C91.1719 18.419 90.9408 18.2673 90.8252 17.964L89.9802 15.754H84.1953L83.3719 17.964C83.2564 18.2673 83.018 18.419 82.6569 18.419H79.992ZM89.1135 12.6341L87.0986 6.91409L85.0836 12.6341H89.1135ZM96.9096 18.419C96.7651 18.419 96.6351 18.3685 96.5196 18.2673C96.4185 18.1518 96.3679 18.0218 96.3679 17.8773V3.79412C96.3679 3.63523 96.4185 3.50523 96.5196 3.40412C96.6351 3.30301 96.7651 3.25246 96.9096 3.25246H102.803C104.695 3.25246 106.168 3.68579 107.223 4.55245C108.292 5.40466 108.826 6.61799 108.826 8.19242C108.826 9.20352 108.588 10.063 108.111 10.7707C107.635 11.4785 106.977 12.0202 106.14 12.3957L109.108 17.7257C109.151 17.8123 109.173 17.8918 109.173 17.964C109.173 18.0796 109.122 18.1879 109.021 18.289C108.934 18.3757 108.833 18.419 108.718 18.419H105.836C105.417 18.419 105.121 18.224 104.948 17.834L102.478 13.0674H100.268V17.8773C100.268 18.0362 100.21 18.1662 100.095 18.2673C99.9935 18.3685 99.8635 18.419 99.7046 18.419H96.9096ZM102.76 9.99074C103.424 9.99074 103.93 9.83185 104.276 9.51407C104.623 9.18185 104.796 8.72686 104.796 8.14908C104.796 7.57131 104.623 7.11632 104.276 6.7841C103.944 6.43743 103.438 6.2641 102.76 6.2641H100.268V9.99074H102.76ZM111.89 18.419C111.746 18.419 111.616 18.3685 111.5 18.2673C111.399 18.1518 111.348 18.0218 111.348 17.8773V3.79412C111.348 3.63523 111.399 3.50523 111.5 3.40412C111.616 3.30301 111.746 3.25246 111.89 3.25246H117.523C119.647 3.25246 121.293 3.75801 122.463 4.76911C123.633 5.78021 124.247 7.24631 124.305 9.16741C124.319 9.5863 124.327 10.1424 124.327 10.8357C124.327 11.5291 124.319 12.0779 124.305 12.4824C124.233 14.4901 123.633 15.9851 122.507 16.9674C121.394 17.9351 119.769 18.419 117.632 18.419H111.89ZM117.523 15.299C118.477 15.299 119.177 15.0751 119.625 14.6274C120.073 14.1651 120.311 13.4357 120.34 12.4391C120.369 12.0202 120.383 11.4785 120.383 10.8141C120.383 10.1496 120.369 9.61518 120.34 9.21074C120.311 8.24297 120.051 7.52798 119.56 7.06576C119.083 6.60354 118.368 6.37243 117.415 6.37243H115.248V15.299H117.523Z" fill="white"/>
<path d="M47.8476 1.69316H59.2966C61.1935 1.69316 62.7313 3.23093 62.7313 5.12786V15.8136C62.7313 17.289 61.5352 18.485 60.0598 18.485H47.0843C45.6089 18.485 44.4129 17.289 44.4129 15.8136V5.12786C44.4129 3.23093 45.9506 1.69316 47.8476 1.69316Z" fill="#B9B9B9" stroke="#3C3C3C" stroke-width="0.763267"/>
<rect x="46.7025" y="0.929668" width="13.7388" height="13.7388" rx="2.67143" fill="white" stroke="#3C3C3C" stroke-width="0.763267"/>
<path d="M59.6781 14.2866L61.9679 17.3397" stroke="#3C3C3C" stroke-width="0.667859"/>
<path d="M47.4661 14.2866L45.1763 17.3397" stroke="#3C3C3C" stroke-width="0.667859"/>
<path d="M51.388 11.3445C51.3287 11.3445 51.2753 11.3237 51.2279 11.2822C51.1863 11.2347 51.1656 11.1813 51.1656 11.122V5.33863C51.1656 5.27338 51.1863 5.22 51.2279 5.17848C51.2753 5.13695 51.3287 5.11619 51.388 5.11619H54.1017C54.8491 5.11619 55.4038 5.27042 55.7656 5.57886C56.1333 5.88138 56.3172 6.31439 56.3172 6.8779C56.3172 7.17448 56.2401 7.42658 56.0859 7.63419C55.9376 7.83587 55.7686 7.98416 55.5787 8.07906C55.8219 8.19177 56.0266 8.37268 56.1927 8.62181C56.3588 8.87094 56.4418 9.14973 56.4418 9.45818C56.4418 10.0513 56.2461 10.514 55.8546 10.8462C55.4631 11.1784 54.9055 11.3445 54.1818 11.3445H51.388ZM53.9238 7.5897C54.1611 7.5897 54.342 7.53038 54.4665 7.41175C54.5911 7.28719 54.6534 7.12406 54.6534 6.92239C54.6534 6.72664 54.5911 6.56945 54.4665 6.45082C54.342 6.33219 54.1611 6.27287 53.9238 6.27287H52.7671V7.5897H53.9238ZM54.0039 10.1878C54.2471 10.1878 54.4369 10.1166 54.5733 9.97423C54.7097 9.83187 54.778 9.65986 54.778 9.45818C54.778 9.24464 54.7097 9.06965 54.5733 8.93323C54.4369 8.79087 54.2471 8.71969 54.0039 8.71969H52.7671V10.1878H54.0039Z" fill="#3C3C3C"/>
</svg>
