<svg xmlns="http://www.w3.org/2000/svg" width="219" height="19" fill="none" viewBox="0 0 219 19">
  <path fill="#fff" fill-rule="evenodd" d="M48.61.443a.192.192 0 01.122-.056h.014a.205.205 0 01.192.178c.905 4.691 3.51 7.654 8.462 8.477a.192.192 0 01.178.15.218.218 0 01-.178.165c-4.951.81-7.557 3.772-8.462 8.463a.22.22 0 01-.206.192.206.206 0 01-.178-.192c-.92-4.691-3.525-7.654-8.477-8.463a.22.22 0 01-.178-.164.192.192 0 01.178-.151c4.952-.823 7.558-3.786 8.477-8.477a.192.192 0 01.055-.122zm.087 5.937a.062.062 0 01.04-.018h.004a.066.066 0 01.061.058c.292 1.51 1.13 2.464 2.725 2.729a.062.062 0 01.057.048.07.07 0 01-.057.053c-1.594.26-2.433 1.214-2.725 2.725a.07.07 0 01-.066.061.066.066 0 01-.057-.061c-.296-1.51-1.135-2.464-2.73-2.725a.071.071 0 01-.057-.053.062.062 0 01.058-.048c1.594-.265 2.433-1.22 2.729-2.73a.061.061 0 01.018-.039z" clip-rule="evenodd"/>
  <path fill="#fff" d="M73.612 8.987a6.573 6.573 0 01-1.852 4.719 6.555 6.555 0 01-4.677 1.975h-3.36a1.29 1.29 0 01-1.29-1.29V3.9a1.29 1.29 0 011.29-1.29h3.236a6.611 6.611 0 016.653 6.378zm-6.53 4.115a3.976 3.976 0 003.992-3.978 3.991 3.991 0 00-3.991-3.99H64.97v7.968h2.112zM84.296 13.143a1.262 1.262 0 011.261 1.262 1.275 1.275 0 01-1.261 1.275h-5.61a1.289 1.289 0 01-1.29-1.289V3.9a1.29 1.29 0 011.29-1.29h5.61a1.276 1.276 0 010 2.551h-4.362v2.744h2.743a1.26 1.26 0 011.262 1.275 1.262 1.262 0 01-1.262 1.262h-2.743v2.743h4.362v-.041zM98.588 11.88a3.525 3.525 0 01-1.07 2.483 4.635 4.635 0 01-3.25 1.29h-.59a4.526 4.526 0 01-3.662-1.797 1.275 1.275 0 01-.07-1.303 1.207 1.207 0 011.112-.672 1.275 1.275 0 011.042.535 1.962 1.962 0 001.578.686h.576c.54.02 1.067-.172 1.467-.535.195-.178.313-.424.33-.686 0-.48-.453-.933-1.111-1.139l-2.647-.781a3.84 3.84 0 01-2.922-3.58 4.114 4.114 0 014.32-3.772h.576a4.512 4.512 0 013.676 1.797 1.275 1.275 0 01.069 1.371 1.207 1.207 0 01-1.111.673 1.276 1.276 0 01-1.043-.535 1.975 1.975 0 00-1.59-.686h-.577c-.96 0-1.783.562-1.783 1.22 0 .659.453.947 1.111 1.139l2.647.795a3.84 3.84 0 012.922 3.498zM112.194 3.885a1.273 1.273 0 01-1.276 1.275h-2.359v9.245a1.276 1.276 0 01-1.261 1.275 1.278 1.278 0 01-1.276-1.275V5.16h-2.359a1.274 1.274 0 01-.902-2.177c.239-.24.563-.374.902-.374h7.255a1.274 1.274 0 011.276 1.276zM125.443 16.613a1.295 1.295 0 01-1.138.7 1.276 1.276 0 01-1.015-.508l-3.662-4.855h-1.084v2.455a1.273 1.273 0 01-1.262 1.276 1.276 1.276 0 01-1.275-1.276V3.885a1.276 1.276 0 011.275-1.276h3.237a4.745 4.745 0 014.773 4.636 4.686 4.686 0 01-2.743 4.307l2.743 3.73a1.289 1.289 0 01.151 1.331zM122.7 7.286a2.115 2.115 0 00-2.112-2.125h-2.085v4.238h2.085a2.112 2.112 0 002.153-2.113h-.041zM137.883 3.884v7.256a4.535 4.535 0 01-4.457 4.54 4.623 4.623 0 01-4.609-4.65V3.884a1.277 1.277 0 011.276-1.275 1.276 1.276 0 011.262 1.275v7.174a2.04 2.04 0 001.81 2.043 1.988 1.988 0 001.523-.507 1.99 1.99 0 00.658-1.481V3.857a1.273 1.273 0 011.766-1.172 1.27 1.27 0 01.683.706c.062.157.092.325.088.493zM152.45 13.582a1.296 1.296 0 01-.549.973 6.54 6.54 0 01-8.558-1.083 6.555 6.555 0 010-8.627 6.54 6.54 0 018.558-1.125 1.274 1.274 0 01.316 1.756 1.274 1.274 0 01-1.756.343 4.003 4.003 0 00-6.198 3.34c0 .965.35 1.899.986 2.626a3.98 3.98 0 005.212.672 1.262 1.262 0 011.564.11c.142.126.255.283.329.458.073.176.106.367.096.557zM166.069 3.885a1.276 1.276 0 01-1.275 1.275h-2.359v10.877a1.277 1.277 0 01-1.262 1.276 1.276 1.276 0 01-1.276-1.276V5.16h-2.359a1.275 1.275 0 010-2.55h7.256a1.276 1.276 0 011.275 1.275zM178.962 2.253v8.887a4.564 4.564 0 01-4.457 4.54 4.635 4.635 0 01-4.622-4.65V3.886a1.276 1.276 0 011.275-1.276 1.275 1.275 0 011.262 1.276v7.173a2.046 2.046 0 001.811 2.044 2.026 2.026 0 001.536-.508 2.033 2.033 0 00.644-1.481V2.225a1.277 1.277 0 112.551.028zM190.853 13.636a1.372 1.372 0 01.124 1.372 1.28 1.28 0 01-1.139.713 1.274 1.274 0 01-1.015-.507l-2.441-3.223h-1.07v2.455a1.276 1.276 0 01-1.275 1.275 1.274 1.274 0 01-1.262-1.275V3.926a1.273 1.273 0 011.262-1.276h3.25a4.731 4.731 0 014.76 4.636 4.666 4.666 0 01-2.743 4.307l1.549 2.043zm-1.371-6.35a2.112 2.112 0 00-2.126-2.126h-2.071v4.238h2.071a2.111 2.111 0 002.153-2.112h-.027zM204.034 3.898v10.493a1.285 1.285 0 01-.796 1.19 1.287 1.287 0 01-.493.099h-5.61a1.277 1.277 0 010-2.551h4.362v-2.743h-2.743a1.264 1.264 0 01-1.262-1.262 1.251 1.251 0 01.365-.901 1.258 1.258 0 01.897-.375h2.743V5.105h-4.362a1.277 1.277 0 010-2.551h5.61a1.296 1.296 0 01.932.397 1.287 1.287 0 01.357.947zM218.998 8.987a6.529 6.529 0 01-1.865 4.719 6.505 6.505 0 01-4.663 1.975h-3.374a1.29 1.29 0 01-1.276-1.29V3.9a1.289 1.289 0 011.276-1.29h3.25a6.612 6.612 0 016.652 6.378zm-6.528 4.115a3.99 3.99 0 003.991-3.978 3.993 3.993 0 00-3.991-3.99h-2.113v7.968h2.113zM11.205 13.58a1.235 1.235 0 01-.535.975 6.543 6.543 0 01-8.558-1.084 6.515 6.515 0 010-8.627 6.529 6.529 0 018.545-1.125 1.275 1.275 0 01.329 1.756 1.275 1.275 0 01-1.756.343 4.005 4.005 0 00-5.212.713 3.991 3.991 0 000 5.253 4.005 4.005 0 005.226.672 1.261 1.261 0 011.563.11 1.248 1.248 0 01.398 1.015zM23.303 11.88a3.528 3.528 0 01-1.07 2.483 4.65 4.65 0 01-3.265 1.29h-.59a4.499 4.499 0 01-3.648-1.797 1.248 1.248 0 01-.082-1.303 1.235 1.235 0 011.125-.672 1.288 1.288 0 011.042.535 1.96 1.96 0 001.577.686h.576c.54.02 1.067-.172 1.468-.535.19-.179.304-.425.316-.686 0-.48-.44-.933-1.098-1.139l-2.66-.781a3.854 3.854 0 01-2.908-3.58 4.114 4.114 0 014.32-3.772h.562a4.499 4.499 0 013.677 1.797 1.249 1.249 0 01.082 1.371 1.22 1.22 0 01-1.125.673 1.372 1.372 0 01-1.042-.535 1.962 1.962 0 00-1.592-.686h-.562c-.96 0-1.783.562-1.783 1.22a1.37 1.37 0 001.097 1.139l2.661.795a3.84 3.84 0 012.922 3.498zM35.373 11.88a3.526 3.526 0 01-1.07 2.483 4.65 4.65 0 01-3.264 1.29h-.59a4.5 4.5 0 01-3.648-1.797 1.249 1.249 0 01-.083-1.303 1.234 1.234 0 011.125-.672 1.371 1.371 0 011.042.535 1.947 1.947 0 001.578.686h.576c.54.02 1.067-.172 1.467-.535.19-.179.304-.425.316-.686 0-.48-.44-.933-1.098-1.139l-2.66-.781a3.854 3.854 0 01-2.908-3.58 4.115 4.115 0 014.32-3.772h.563a4.499 4.499 0 013.675 1.797 1.248 1.248 0 01.083 1.371 1.22 1.22 0 01-1.125.673 1.37 1.37 0 01-1.042-.535 1.963 1.963 0 00-1.591-.686h-.563c-.973 0-1.783.562-1.783 1.22a1.372 1.372 0 001.098 1.139l2.66.795a3.84 3.84 0 012.922 3.498z"/>
</svg>
