<svg width="123" height="44" viewBox="0 0 123 44" fill="none" xmlns="http://www.w3.org/2000/svg">
<path d="M0.0483437 19.3171V0.161425H8.22716V2.74421H2.79255V8.36715H7.52766V10.9499H2.79255V16.5729H8.22716V19.3171H0.0483437Z" fill="white"/>
<path d="M11.109 19.3171V0.161425H13.7456L17.8888 11.7032H17.9427V0.161425H20.6869V19.3171H18.1041L13.9071 7.80216H13.8532V19.3171H11.109Z" fill="white"/>
<path d="M24.2203 4.6813C24.2203 3.91005 24.3548 3.22848 24.6239 2.63659C24.8929 2.0447 25.2516 1.55146 25.7 1.15687C26.1305 0.780217 26.6148 0.493241 27.1529 0.295945C27.7089 0.0986483 28.2649 0 28.8209 0C29.3769 0 29.924 0.0986483 30.4621 0.295945C31.0181 0.493241 31.5203 0.780217 31.9687 1.15687C32.3991 1.55146 32.7489 2.0447 33.0179 2.63659C33.287 3.22848 33.4215 3.91005 33.4215 4.6813V5.64984H30.6773V4.6813C30.6773 4.01766 30.489 3.53339 30.1123 3.22848C29.7536 2.90563 29.3231 2.74421 28.8209 2.74421C28.3187 2.74421 27.8793 2.90563 27.5026 3.22848C27.1439 3.53339 26.9645 4.01766 26.9645 4.6813V14.7972C26.9645 15.4608 27.1439 15.9541 27.5026 16.2769C27.8793 16.5818 28.3187 16.7343 28.8209 16.7343C29.3231 16.7343 29.7536 16.5818 30.1123 16.2769C30.489 15.9541 30.6773 15.4608 30.6773 14.7972V11.1921H28.4981V8.77071H33.4215V14.7972C33.4215 15.6043 33.287 16.2949 33.0179 16.8688C32.7489 17.4428 32.3991 17.9181 31.9687 18.2947C31.5203 18.6893 31.0181 18.9853 30.4621 19.1826C29.924 19.3799 29.3769 19.4785 28.8209 19.4785C28.2649 19.4785 27.7089 19.3799 27.1529 19.1826C26.6148 18.9853 26.1305 18.6893 25.7 18.2947C25.2516 17.9181 24.8929 17.4428 24.6239 16.8688C24.3548 16.2949 24.2203 15.6043 24.2203 14.7972V4.6813Z" fill="white"/>
<path d="M37.1284 19.3171V0.161425H39.8726V19.3171H37.1284Z" fill="white"/>
<path d="M43.6419 19.3171V0.161425H46.2785L50.4217 11.7032H50.4755V0.161425H53.2197V19.3171H50.6369L46.4399 7.80216H46.3861V19.3171H43.6419Z" fill="white"/>
<path d="M56.9146 19.3171V0.161425H65.0934V2.74421H59.6588V8.36715H64.3939V10.9499H59.6588V16.5729H65.0934V19.3171H56.9146Z" fill="white"/>
<path d="M68.0829 19.3171V0.161425H76.2617V2.74421H70.8271V8.36715H75.5622V10.9499H70.8271V16.5729H76.2617V19.3171H68.0829Z" fill="white"/>
<path d="M81.9954 2.74421V8.7169H83.5558C84.0401 8.7169 84.4257 8.65412 84.7127 8.52857C84.9997 8.38508 85.2239 8.18779 85.3853 7.93668C85.5288 7.68558 85.6275 7.38067 85.6813 7.02195C85.7351 6.64529 85.762 6.21483 85.762 5.73055C85.762 5.24628 85.7351 4.82479 85.6813 4.46606C85.6275 4.08941 85.5198 3.76656 85.3584 3.49752C85.0176 2.99531 84.3719 2.74421 83.4213 2.74421H81.9954ZM79.2512 19.3171V0.161425H83.6635C86.8919 0.161425 88.5062 2.03574 88.5062 5.78436C88.5062 6.91433 88.3268 7.87391 87.9681 8.66309C87.6273 9.45227 87.0175 10.089 86.1386 10.5733L89.0981 19.3171H86.1924L83.6366 11.1383H81.9954V19.3171H79.2512Z" fill="white"/>
<path d="M91.9978 19.3171V0.161425H94.742V19.3171H91.9978Z" fill="white"/>
<path d="M98.5113 19.3171V0.161425H101.148L105.291 11.7032H105.345V0.161425H108.089V19.3171H105.506L101.309 7.80216H101.256V19.3171H98.5113Z" fill="white"/>
<path d="M111.623 4.6813C111.623 3.91005 111.757 3.22848 112.026 2.63659C112.295 2.0447 112.654 1.55146 113.102 1.15687C113.533 0.780217 114.017 0.493241 114.555 0.295945C115.111 0.0986483 115.667 0 116.223 0C116.779 0 117.326 0.0986483 117.864 0.295945C118.42 0.493241 118.923 0.780217 119.371 1.15687C119.801 1.55146 120.151 2.0447 120.42 2.63659C120.689 3.22848 120.824 3.91005 120.824 4.6813V5.64984H118.08V4.6813C118.08 4.01766 117.891 3.53339 117.515 3.22848C117.156 2.90563 116.725 2.74421 116.223 2.74421C115.721 2.74421 115.282 2.90563 114.905 3.22848C114.546 3.53339 114.367 4.01766 114.367 4.6813V14.7972C114.367 15.4608 114.546 15.9541 114.905 16.2769C115.282 16.5818 115.721 16.7343 116.223 16.7343C116.725 16.7343 117.156 16.5818 117.515 16.2769C117.891 15.9541 118.08 15.4608 118.08 14.7972V11.1921H115.9V8.77071H120.824V14.7972C120.824 15.6043 120.689 16.2949 120.42 16.8688C120.151 17.4428 119.801 17.9181 119.371 18.2947C118.923 18.6893 118.42 18.9853 117.864 19.1826C117.326 19.3799 116.779 19.4785 116.223 19.4785C115.667 19.4785 115.111 19.3799 114.555 19.1826C114.017 18.9853 113.533 18.6893 113.102 18.2947C112.654 17.9181 112.295 17.4428 112.026 16.8688C111.757 16.2949 111.623 15.6043 111.623 14.7972V4.6813Z" fill="white"/>
<path d="M0 43.3171V24.1614H2.63659L6.16102 34.3042H6.21482L9.71234 24.1614H12.3758V43.3171H9.63163V31.6676H9.57782L6.86052 39.9003H5.48842L2.79802 31.6676H2.74421V43.3171H0Z" fill="white"/>
<path d="M21.2989 36.618L19.9537 29.6767H19.8999L18.5547 36.618H21.2989ZM14.5191 43.3171L18.7969 24.1614H21.0837L25.3614 43.3171H22.6172L21.8101 39.2008H18.0705L17.2633 43.3171H14.5191Z" fill="white"/>
<path d="M27.4122 43.3171V24.1614H30.0488L34.192 35.7032H34.2458V24.1614H36.9901V43.3171H34.4073L30.2103 31.8022H30.1564V43.3171H27.4122Z" fill="white"/>
<path d="M45.8236 36.618L44.4784 29.6767H44.4246L43.0794 36.618H45.8236ZM39.0438 43.3171L43.3215 24.1614H45.6084L49.8861 43.3171H47.1419L46.3348 39.2008H42.5951L41.788 43.3171H39.0438Z" fill="white"/>
<path d="M51.8831 28.6813C51.8831 27.91 52.0176 27.2285 52.2867 26.6366C52.5557 26.0447 52.9144 25.5515 53.3628 25.1569C53.7933 24.7802 54.2776 24.4932 54.8156 24.2959C55.3717 24.0986 55.9277 24 56.4837 24C57.0397 24 57.5868 24.0986 58.1248 24.2959C58.6808 24.4932 59.1831 24.7802 59.6315 25.1569C60.0619 25.5515 60.4117 26.0447 60.6807 26.6366C60.9498 27.2285 61.0843 27.91 61.0843 28.6813V29.6498H58.3401V28.6813C58.3401 28.0177 58.1517 27.5334 57.7751 27.2285C57.4164 26.9056 56.9859 26.7442 56.4837 26.7442C55.9815 26.7442 55.542 26.9056 55.1654 27.2285C54.8067 27.5334 54.6273 28.0177 54.6273 28.6813V38.7972C54.6273 39.4608 54.8067 39.9541 55.1654 40.2769C55.542 40.5818 55.9815 40.7343 56.4837 40.7343C56.9859 40.7343 57.4164 40.5818 57.7751 40.2769C58.1517 39.9541 58.3401 39.4608 58.3401 38.7972V35.1921H56.1608V32.7707H61.0843V38.7972C61.0843 39.6043 60.9498 40.2949 60.6807 40.8688C60.4117 41.4428 60.0619 41.9181 59.6315 42.2947C59.1831 42.6893 58.6808 42.9853 58.1248 43.1826C57.5868 43.3798 57.0397 43.4785 56.4837 43.4785C55.9277 43.4785 55.3717 43.3798 54.8156 43.1826C54.2776 42.9853 53.7933 42.6893 53.3628 42.2947C52.9144 41.9181 52.5557 41.4428 52.2867 40.8688C52.0176 40.2949 51.8831 39.6043 51.8831 38.7972V28.6813Z" fill="white"/>
<path d="M64.3069 43.3171V24.1614H72.4857V26.7442H67.0511V32.3671H71.7862V34.9499H67.0511V40.5729H72.4857V43.3171H64.3069Z" fill="white"/>
<path d="M75.0716 43.3171V24.1614H77.7082L81.2326 34.3042H81.2865L84.784 24.1614H87.4475V43.3171H84.7033V31.6676H84.6495L81.9321 39.9003H80.56L77.8696 31.6676H77.8158V43.3171H75.0716Z" fill="white"/>
<path d="M90.8283 43.3171V24.1614H99.0071V26.7442H93.5725V32.3671H98.3076V34.9499H93.5725V40.5729H99.0071V43.3171H90.8283Z" fill="white"/>
<path d="M101.485 43.3171V24.1614H104.122L108.265 35.7032H108.319V24.1614H111.063V43.3171H108.481L104.283 31.8022H104.23V43.3171H101.485Z" fill="white"/>
<path d="M116.157 43.3171V26.7442H112.983V24.1614H122.076V26.7442H118.901V43.3171H116.157Z" fill="white"/>
</svg>
