<svg width="123" height="45" viewBox="0 0 123 45" fill="none" xmlns="http://www.w3.org/2000/svg">
<path d="M0.695945 20V0.844351H8.87476V3.42713H3.44015V9.05007H8.17526V11.6329H3.44015V17.2558H8.87476V20H0.695945ZM11.7566 20V0.844351H14.3932L18.5364 12.3862H18.5903V0.844351H21.3345V20H18.7517L14.5547 8.48509H14.5009V20H11.7566ZM24.8679 5.36422C24.8679 4.59297 25.0024 3.91141 25.2715 3.31952C25.5405 2.72763 25.8992 2.23439 26.3476 1.8398C26.7781 1.46314 27.2624 1.17617 27.8005 0.978871C28.3565 0.781574 28.9125 0.682926 29.4685 0.682926C30.0245 0.682926 30.5716 0.781574 31.1097 0.978871C31.6657 1.17617 32.1679 1.46314 32.6163 1.8398C33.0467 2.23439 33.3965 2.72763 33.6655 3.31952C33.9346 3.91141 34.0691 4.59297 34.0691 5.36422V6.33277H31.3249V5.36422C31.3249 4.70059 31.1366 4.21632 30.7599 3.91141C30.4012 3.58856 29.9707 3.42713 29.4685 3.42713C28.9663 3.42713 28.5269 3.58856 28.1502 3.91141C27.7915 4.21632 27.6121 4.70059 27.6121 5.36422V15.4801C27.6121 16.1438 27.7915 16.637 28.1502 16.9598C28.5269 17.2648 28.9663 17.4172 29.4685 17.4172C29.9707 17.4172 30.4012 17.2648 30.7599 16.9598C31.1366 16.637 31.3249 16.1438 31.3249 15.4801V11.875H29.1457V9.45363H34.0691V15.4801C34.0691 16.2872 33.9346 16.9778 33.6655 17.5517C33.3965 18.1257 33.0467 18.601 32.6163 18.9776C32.1679 19.3722 31.6657 19.6682 31.1097 19.8655C30.5716 20.0628 30.0245 20.1614 29.4685 20.1614C28.9125 20.1614 28.3565 20.0628 27.8005 19.8655C27.2624 19.6682 26.7781 19.3722 26.3476 18.9776C25.8992 18.601 25.5405 18.1257 25.2715 17.5517C25.0024 16.9778 24.8679 16.2872 24.8679 15.4801V5.36422ZM37.776 20V0.844351H40.5202V20H37.776ZM44.2895 20V0.844351H46.9261L51.0693 12.3862H51.1231V0.844351H53.8673V20H51.2845L47.0875 8.48509H47.0337V20H44.2895ZM57.5622 20V0.844351H65.741V3.42713H60.3064V9.05007H65.0415V11.6329H60.3064V17.2558H65.741V20H57.5622ZM68.7305 20V0.844351H76.9093V3.42713H71.4747V9.05007H76.2098V11.6329H71.4747V17.2558H76.9093V20H68.7305ZM82.643 3.42713V9.39982H84.2034C84.6877 9.39982 85.0733 9.33705 85.3603 9.21149C85.6473 9.06801 85.8715 8.87071 86.0329 8.61961C86.1764 8.3685 86.275 8.06359 86.3289 7.70487C86.3827 7.32821 86.4096 6.89775 86.4096 6.41348C86.4096 5.92921 86.3827 5.50771 86.3289 5.14899C86.275 4.77233 86.1674 4.44949 86.006 4.18045C85.6652 3.67824 85.0195 3.42713 84.0689 3.42713H82.643ZM79.8988 20V0.844351H84.3111C87.5395 0.844351 89.1538 2.71866 89.1538 6.46729C89.1538 7.59725 88.9744 8.55683 88.6157 9.34601C88.2749 10.1352 87.6651 10.7719 86.7862 11.2562L89.7457 20H86.84L84.2842 11.8212H82.643V20H79.8988ZM92.6454 20V0.844351H95.3896V20H92.6454ZM99.1589 20V0.844351H101.796L105.939 12.3862H105.993V0.844351H108.737V20H106.154L101.957 8.48509H101.903V20H99.1589ZM112.27 5.36422C112.27 4.59297 112.405 3.91141 112.674 3.31952C112.943 2.72763 113.302 2.23439 113.75 1.8398C114.18 1.46314 114.665 1.17617 115.203 0.978871C115.759 0.781574 116.315 0.682926 116.871 0.682926C117.427 0.682926 117.974 0.781574 118.512 0.978871C119.068 1.17617 119.57 1.46314 120.019 1.8398C120.449 2.23439 120.799 2.72763 121.068 3.31952C121.337 3.91141 121.471 4.59297 121.471 5.36422V6.33277H118.727V5.36422C118.727 4.70059 118.539 4.21632 118.162 3.91141C117.803 3.58856 117.373 3.42713 116.871 3.42713C116.369 3.42713 115.929 3.58856 115.552 3.91141C115.194 4.21632 115.014 4.70059 115.014 5.36422V15.4801C115.014 16.1438 115.194 16.637 115.552 16.9598C115.929 17.2648 116.369 17.4172 116.871 17.4172C117.373 17.4172 117.803 17.2648 118.162 16.9598C118.539 16.637 118.727 16.1438 118.727 15.4801V11.875H116.548V9.45363H121.471V15.4801C121.471 16.2872 121.337 16.9778 121.068 17.5517C120.799 18.1257 120.449 18.601 120.019 18.9776C119.57 19.3722 119.068 19.6682 118.512 19.8655C117.974 20.0628 117.427 20.1614 116.871 20.1614C116.315 20.1614 115.759 20.0628 115.203 19.8655C114.665 19.6682 114.18 19.3722 113.75 18.9776C113.302 18.601 112.943 18.1257 112.674 17.5517C112.405 16.9778 112.27 16.2872 112.27 15.4801V5.36422ZM0.647601 44V24.8444H3.28419L6.80862 34.9872H6.86243L10.3599 24.8444H13.0234V44H10.2792V32.3506H10.2254L7.50812 40.5832H6.13602L3.44562 32.3506H3.39181V44H0.647601ZM21.9465 37.3009L20.6013 30.3597H20.5475L19.2023 37.3009H21.9465ZM15.1667 44L19.4445 24.8444H21.7313L26.009 44H23.2648L22.4577 39.8837H18.7181L17.9109 44H15.1667ZM28.0598 44V24.8444H30.6964L34.8396 36.3862H34.8935V24.8444H37.6377V44H35.0549L30.8579 32.4851H30.804V44H28.0598ZM46.4712 37.3009L45.126 30.3597H45.0722L43.727 37.3009H46.4712ZM39.6914 44L43.9691 24.8444H46.256L50.5337 44H47.7895L46.9824 39.8837H43.2427L42.4356 44H39.6914ZM52.5307 29.3642C52.5307 28.593 52.6652 27.9114 52.9343 27.3195C53.2033 26.7276 53.562 26.2344 54.0104 25.8398C54.4409 25.4631 54.9252 25.1762 55.4632 24.9789C56.0193 24.7816 56.5753 24.6829 57.1313 24.6829C57.6873 24.6829 58.2344 24.7816 58.7724 24.9789C59.3285 25.1762 59.8307 25.4631 60.2791 25.8398C60.7095 26.2344 61.0593 26.7276 61.3283 27.3195C61.5974 27.9114 61.7319 28.593 61.7319 29.3642V30.3328H58.9877V29.3642C58.9877 28.7006 58.7993 28.2163 58.4227 27.9114C58.064 27.5886 57.6335 27.4271 57.1313 27.4271C56.6291 27.4271 56.1897 27.5886 55.813 27.9114C55.4543 28.2163 55.2749 28.7006 55.2749 29.3642V39.4801C55.2749 40.1438 55.4543 40.637 55.813 40.9598C56.1897 41.2648 56.6291 41.4172 57.1313 41.4172C57.6335 41.4172 58.064 41.2648 58.4227 40.9598C58.7993 40.637 58.9877 40.1438 58.9877 39.4801V35.875H56.8084V33.4536H61.7319V39.4801C61.7319 40.2872 61.5974 40.9778 61.3283 41.5517C61.0593 42.1257 60.7095 42.601 60.2791 42.9776C59.8307 43.3722 59.3285 43.6682 58.7724 43.8655C58.2344 44.0628 57.6873 44.1614 57.1313 44.1614C56.5753 44.1614 56.0193 44.0628 55.4632 43.8655C54.9252 43.6682 54.4409 43.3722 54.0104 42.9776C53.562 42.601 53.2033 42.1257 52.9343 41.5517C52.6652 40.9778 52.5307 40.2872 52.5307 39.4801V29.3642ZM64.9545 44V24.8444H73.1333V27.4271H67.6987V33.0501H72.4338V35.6329H67.6987V41.2558H73.1333V44H64.9545ZM75.7192 44V24.8444H78.3558L81.8802 34.9872H81.9341L85.4316 24.8444H88.0951V44H85.3509V32.3506H85.2971L82.5797 40.5832H81.2076L78.5172 32.3506H78.4634V44H75.7192ZM91.4759 44V24.8444H99.6547V27.4271H94.2201V33.0501H98.9552V35.6329H94.2201V41.2558H99.6547V44H91.4759ZM102.133 44V24.8444H104.77L108.913 36.3862H108.967V24.8444H111.711V44H109.128L104.931 32.4851H104.877V44H102.133ZM116.805 44V27.4271H113.63V24.8444H122.724V27.4271H119.549V44H116.805Z" fill="white"/>
</svg>
