<svg xmlns="http://www.w3.org/2000/svg" width="170" height="28" fill="none" viewBox="0 0 170 28">
  <path stroke="#fff" stroke-linecap="round" stroke-width="1.742" d="M51.612 27l2.8-2.704a1.161 1.161 0 011.613 0l1.992 1.924c.45.435 1.164.435 1.614 0l1.978-1.91a1.161 1.161 0 011.628.013l1.856 1.856a1.161 1.161 0 001.642 0l1.842-1.842a1.161 1.161 0 011.642 0l1.842 1.842a1.161 1.161 0 001.642 0l1.842-1.842a1.161 1.161 0 011.642 0l1.841 1.842a1.161 1.161 0 001.643 0l1.841-1.842a1.161 1.161 0 011.643 0l1.841 1.842a1.161 1.161 0 001.643 0l1.841-1.842a1.161 1.161 0 011.642 0l1.842 1.842a1.161 1.161 0 001.642 0l1.842-1.842a1.161 1.161 0 011.642 0l1.842 1.842a1.161 1.161 0 001.642 0l2.663-2.663" opacity=".7"/>
  <path fill="#fff" d="M11.924 5.091H1.63c-.204 0-.34.137-.34.341v2.432c0 .204.136.34.34.34h3.386V20.66c0 .205.137.341.341.341h2.841c.205 0 .341-.136.341-.34V8.204h3.386c.205 0 .341-.137.341-.341V5.432c0-.204-.136-.34-.34-.34zm11.869 4.773h-2.796a.416.416 0 00-.409.272L18.088 17l-2.5-6.864a.416.416 0 00-.409-.272h-2.75c-.25 0-.363.136-.273.386l4.296 10.773-1.614 3.909c-.136.25.023.386.273.386h2.659c.182 0 .34-.09.41-.273l5.885-14.795c.091-.25-.022-.386-.272-.386zm8.168-.25c-1.318 0-2.386.613-3.182 1.522l-.068-.931c-.023-.205-.136-.341-.341-.341h-2.477c-.205 0-.341.136-.341.34v14.773c0 .205.136.341.34.341h2.728c.204 0 .34-.136.34-.34v-4.933c.75.75 1.75 1.25 3 1.25 3.092 0 5.364-2.59 5.364-5.84s-2.272-5.841-5.363-5.841zm-.432 8.568c-1.432 0-2.5-1.273-2.5-2.75s1.068-2.727 2.5-2.727c1.455 0 2.523 1.181 2.523 2.727 0 1.568-1.068 2.75-2.523 2.75zm17.953-2.932c0-3.068-2.068-5.636-5.295-5.636-3.25 0-5.66 2.568-5.66 5.84 0 3.273 2.41 5.841 5.91 5.841a5.804 5.804 0 004.136-1.704c.182-.182.182-.341.045-.5l-1.182-1.136c-.159-.16-.295-.182-.5-.046-.795.5-1.431.66-2.159.66-1.545 0-2.545-.66-2.863-1.91h6.75c.704 0 .818-.477.818-1.409zm-5.273-2.773c1.114 0 2.046.66 2.25 2.023h-4.59c.25-1.364 1.204-2.023 2.34-2.023zm9.433-3.272c0-1.228 1-2 2.454-2 1.25 0 2.16.5 3.228 1.432.159.136.318.113.477-.046l.932-1.09c.136-.183.136-.319 0-.478-1.205-1.295-2.841-2.114-4.682-2.114-2.614 0-4.796 1.682-4.796 4.25 0 5.182 7.819 4.205 7.819 7.5 0 1.341-1.205 2.318-2.887 2.318-1.523 0-2.636-.704-3.659-1.659-.159-.159-.34-.159-.477-.023l-1.023 1.091c-.159.137-.159.296-.045.455 1.022 1.295 2.909 2.454 5.181 2.454 2.796 0 5.341-1.818 5.341-4.568 0-5.454-7.863-4.272-7.863-7.522zm15.027 9.886c-1.977 0-3.364-1.568-3.364-3.636 0-2.091 1.387-3.66 3.364-3.66 1.364 0 2.068.637 2.727 1.205.182.16.341.182.5.023l1-.955c.136-.136.16-.318.023-.477-1.046-1.204-2.546-1.977-4.273-1.977-3.204 0-5.636 2.568-5.636 5.84 0 3.273 2.432 5.841 5.636 5.841a5.686 5.686 0 004.341-1.977c.136-.159.114-.34-.023-.477l-1-.955c-.159-.159-.318-.159-.5 0-.636.614-1.386 1.205-2.795 1.205zm12.68-9.045c-.318-.25-.818-.432-1.41-.432-1.272 0-2.181.682-2.795 1.682l-.09-1.091c-.023-.205-.137-.341-.341-.341h-1.591c-.205 0-.341.136-.341.34V20.66c0 .205.136.341.34.341h1.705c.205 0 .341-.136.341-.34v-6.433c0-1.386.977-2.431 2.386-2.431.432 0 .682.068.91.136.227.045.363.023.454-.205l.523-1.25c.09-.181.068-.295-.091-.431zm2.47-2.568c.774 0 1.387-.614 1.387-1.387s-.613-1.386-1.386-1.386c-.773 0-1.386.613-1.386 1.386 0 .773.613 1.386 1.386 1.386zm-1.18 2.727v10.454c0 .205.135.341.34.341h1.704c.205 0 .341-.136.341-.34V10.204c0-.205-.136-.341-.34-.341h-1.705c-.205 0-.34.136-.34.34zm10.48-.591c-1.568 0-2.795.75-3.659 1.818l-.068-1.227c-.023-.205-.136-.341-.341-.341h-1.546c-.204 0-.34.136-.34.34V20.66c0 .046 0 .091.022.137v4.181c0 .205.137.341.341.341h1.705c.204 0 .34-.136.34-.34v-5.342c.842.978 2.023 1.66 3.546 1.66 3.136 0 5.41-2.591 5.41-5.841s-2.274-5.841-5.41-5.841zm-.25 9.5c-1.954 0-3.364-1.682-3.364-3.682 0-1.977 1.41-3.636 3.364-3.636 1.932 0 3.364 1.545 3.364 3.636 0 2.09-1.432 3.682-3.364 3.682zm12.734-9.25h-1.591V6.796c0-.205-.136-.341-.341-.341h-1.704c-.205 0-.341.136-.341.34v3.069h-1.591c-.204 0-.34.136-.34.34V11.5c0 .205.136.341.34.341h1.591v8.818c0 .205.136.341.341.341h1.704c.205 0 .341-.136.341-.34V11.84h1.591c.205 0 .341-.136.341-.34v-1.296c0-.205-.136-.341-.341-.341z"/>
  <path fill="#fff" d="M120.421 18.677c-.141-.141-.282-.12-.423 0-.985.824-2.152 1.367-3.579 1.367-2.876 0-5.209-2.332-5.209-5.41 0-3.097 2.333-5.43 5.209-5.43 1.427 0 2.594.544 3.579 1.368.141.12.282.141.423 0l.804-.844c.141-.141.121-.282-.02-.423-1.267-1.126-2.896-1.93-4.786-1.93-4.002 0-7.12 3.217-7.12 7.26 0 4.022 3.118 7.24 7.12 7.24 1.89 0 3.519-.805 4.786-1.951.141-.121.161-.282.02-.423l-.804-.824zm6.649 3.197c2.836 0 5.028-2.252 5.028-5.168 0-2.916-2.192-5.168-5.028-5.168-2.815 0-5.007 2.252-5.007 5.168 0 2.916 2.192 5.168 5.007 5.168zm0-1.649c-1.83 0-3.278-1.468-3.278-3.52 0-2.05 1.448-3.518 3.278-3.518 1.85 0 3.278 1.468 3.278 3.519s-1.428 3.52-3.278 3.52zm14.771-8.466h-1.206c-.181 0-.302.12-.302.301v5.893c0 .643-.945 2.292-2.715 2.292-1.327 0-2.232-.864-2.232-2.594v-5.59c0-.182-.121-.302-.302-.302h-1.206c-.181 0-.302.12-.302.301v5.792c0 2.635 1.428 4.022 3.66 4.022 1.388 0 2.413-.744 3.097-1.75l.08 1.187c.021.181.121.302.302.302h1.126c.181 0 .302-.12.302-.302v-9.25c0-.182-.121-.302-.302-.302zm7.734.14c-.282-.22-.724-.361-1.227-.361-1.106 0-1.91.583-2.453 1.427l-.081-.905c-.02-.18-.12-.301-.301-.301h-1.107c-.18 0-.301.12-.301.301v9.251c0 .181.121.302.301.302h1.207c.181 0 .302-.12.302-.302V15.38c0-1.267.925-2.192 2.152-2.192.402 0 .603.08.784.12.201.04.322.02.402-.16l.382-.906c.081-.16.061-.261-.06-.341zm2.757 2.414c0-.925.864-1.267 1.568-1.267.885 0 1.468.342 2.233.965.181.14.321.181.442.02l.463-.583c.1-.14.14-.282.02-.422-.825-.966-2.112-1.489-3.218-1.489-1.77 0-3.238 1.107-3.238 2.776 0 3.298 5.229 2.554 5.229 4.706 0 .844-.744 1.287-1.77 1.287-1.126 0-2.111-.664-2.695-1.147-.181-.14-.301-.18-.422-.02l-.543.704c-.101.12-.101.241.02.382.704.825 2.031 1.65 3.68 1.65 1.73 0 3.5-1.087 3.5-2.836 0-3.52-5.269-2.675-5.269-4.726zm11.401-2.776c-2.855 0-4.867 2.273-4.867 5.169 0 2.896 2.072 5.168 5.028 5.168 1.468 0 2.755-.543 3.68-1.508.161-.16.141-.302 0-.462l-.523-.483c-.16-.14-.281-.1-.422.02-.664.523-1.428.905-2.534.905-1.951 0-3.197-1.207-3.459-2.936h7.119c.523 0 .604-.342.604-1.046 0-2.554-1.79-4.827-4.626-4.827zm0 1.57c1.69 0 2.936 1.266 3.037 2.996h-6.134c.201-1.77 1.408-2.997 3.097-2.997z" opacity=".7"/>
</svg>
