<svg width="190" height="21" viewBox="0 0 190 21" fill="none" xmlns="http://www.w3.org/2000/svg">
<path d="M8.46021 13.5607H3.27321V9.80168H8.12421C8.31321 9.80168 8.43921 9.67568 8.43921 9.48668V7.57568C8.43921 7.38668 8.31321 7.26068 8.12421 7.26068H3.27321V3.94268H8.43921C8.62821 3.94268 8.75421 3.81668 8.75421 3.62768V1.71668C8.75421 1.52768 8.62821 1.40168 8.43921 1.40168H0.711211C0.522211 1.40168 0.396211 1.52768 0.396211 1.71668V15.7867C0.396211 15.9757 0.522211 16.1017 0.711211 16.1017H8.46021C8.64921 16.1017 8.77521 15.9757 8.77521 15.7867V13.8757C8.77521 13.6867 8.64921 13.5607 8.46021 13.5607ZM16.7952 5.58068C15.3042 5.58068 14.2122 6.39968 13.5402 7.49168V7.47068L13.4562 6.12668C13.4352 5.93768 13.3302 5.81168 13.1412 5.81168H11.0832C10.8942 5.81168 10.7682 5.93768 10.7682 6.12668V15.7867C10.7682 15.9757 10.8942 16.1017 11.0832 16.1017H13.2252C13.4142 16.1017 13.5402 15.9757 13.5402 15.7867V10.1587C13.5402 9.67568 14.2542 8.14268 15.8082 8.14268C16.8162 8.14268 17.7402 8.73068 17.7402 10.4317V15.7867C17.7402 15.9757 17.8662 16.1017 18.0552 16.1017H20.1972C20.3862 16.1017 20.5122 15.9757 20.5122 15.7867V9.92768C20.5122 7.17668 18.8952 5.58068 16.7952 5.58068ZM27.593 5.81168H26.123V2.97668C26.123 2.78768 25.997 2.66168 25.808 2.66168H23.666C23.477 2.66168 23.351 2.78768 23.351 2.97668V5.81168H21.881C21.692 5.81168 21.566 5.93768 21.566 6.12668V7.76468C21.566 7.95368 21.692 8.07968 21.881 8.07968H23.351V15.7867C23.351 15.9757 23.477 16.1017 23.666 16.1017H25.808C25.997 16.1017 26.123 15.9757 26.123 15.7867V8.07968H27.593C27.782 8.07968 27.908 7.95368 27.908 7.76468V6.12668C27.908 5.93768 27.782 5.81168 27.593 5.81168ZM38.9288 10.7467C38.9288 7.95368 37.0178 5.58068 34.0358 5.58068C31.0538 5.58068 28.8488 7.95368 28.8488 10.9777C28.8488 14.0017 31.0538 16.3747 34.2668 16.3747C35.7578 16.3747 37.1018 15.7867 38.0888 14.7997C38.2568 14.6317 38.2568 14.4847 38.1098 14.3377L37.1858 13.4347C37.0388 13.2877 36.9128 13.2877 36.7238 13.4137C36.0098 13.9177 35.3588 14.1277 34.5398 14.1277C32.9228 14.1277 31.8728 13.3507 31.5998 11.9857H38.1938C38.8237 11.9857 38.9288 11.5657 38.9288 10.7467ZM34.0568 7.93268C35.2958 7.93268 36.2828 8.73068 36.4718 10.1797H31.5578C31.7888 8.73068 32.7968 7.93268 34.0568 7.93268ZM47.2666 6.06368C46.9726 5.81168 46.4686 5.58068 45.8806 5.58068C44.6416 5.58068 43.8016 6.27368 43.2556 7.26068L43.1716 6.12668C43.1506 5.93768 43.0456 5.81168 42.8566 5.81168H40.8196C40.6306 5.81168 40.5046 5.93768 40.5046 6.12668V15.7867C40.5046 15.9757 40.6306 16.1017 40.8196 16.1017H42.9616C43.1506 16.1017 43.2766 15.9757 43.2766 15.7867V10.3267C43.2766 9.06668 44.1166 8.10068 45.4186 8.10068C45.8176 8.10068 46.0696 8.18468 46.2796 8.24768C46.4896 8.31068 46.6576 8.26868 46.7416 8.03768L47.3716 6.48368C47.4346 6.33668 47.4346 6.18968 47.2666 6.06368ZM54.0926 5.58068C52.7906 5.58068 51.7406 6.21068 50.9636 7.09268L50.9006 6.12668C50.8796 5.93768 50.7746 5.81168 50.5856 5.81168H48.6536C48.4646 5.81168 48.3386 5.93768 48.3386 6.12668V19.7767C48.3386 19.9657 48.4646 20.0917 48.6536 20.0917H50.7956C50.9846 20.0917 51.1106 19.9657 51.1106 19.7767V15.0727C51.8456 15.8497 52.8326 16.3747 54.0926 16.3747C56.9696 16.3747 59.0696 13.9807 59.0696 10.9777C59.0696 7.97468 56.9696 5.58068 54.0926 5.58068ZM53.7566 13.8547C52.2446 13.8547 51.1316 12.5107 51.1316 10.9567C51.1316 9.40268 52.2446 8.10068 53.7566 8.10068C55.2896 8.10068 56.4026 9.31868 56.4026 10.9567C56.4026 12.6157 55.2896 13.8547 53.7566 13.8547ZM67.4052 6.06368C67.1112 5.81168 66.6072 5.58068 66.0192 5.58068C64.7802 5.58068 63.9402 6.27368 63.3942 7.26068L63.3102 6.12668C63.2892 5.93768 63.1842 5.81168 62.9952 5.81168H60.9582C60.7692 5.81168 60.6432 5.93768 60.6432 6.12668V15.7867C60.6432 15.9757 60.7692 16.1017 60.9582 16.1017H63.1002C63.2892 16.1017 63.4152 15.9757 63.4152 15.7867V10.3267C63.4152 9.06668 64.2552 8.10068 65.5572 8.10068C65.9562 8.10068 66.2082 8.18468 66.4182 8.24768C66.6282 8.31068 66.7962 8.26868 66.8802 8.03768L67.5102 6.48368C67.5732 6.33668 67.5732 6.18968 67.4052 6.06368ZM69.9052 3.85868C70.7452 3.85868 71.4172 3.16568 71.4172 2.32568C71.4172 1.48568 70.7452 0.792684 69.9052 0.792684C69.0442 0.792684 68.3722 1.48568 68.3722 2.32568C68.3722 3.16568 69.0442 3.85868 69.9052 3.85868ZM68.5192 6.12668V15.7867C68.5192 15.9757 68.6452 16.1017 68.8342 16.1017H70.9762C71.1652 16.1017 71.2912 15.9757 71.2912 15.7867V6.12668C71.2912 5.93768 71.1652 5.81168 70.9762 5.81168H68.8342C68.6452 5.81168 68.5192 5.93768 68.5192 6.12668ZM75.714 8.68868C75.714 8.16368 76.197 7.80668 76.848 7.80668C77.583 7.80668 78.066 8.07968 78.864 8.60468C79.053 8.75168 79.2 8.79368 79.326 8.62568L80.124 7.57568C80.229 7.44968 80.271 7.28168 80.145 7.13468C79.284 6.12668 77.94 5.58068 76.617 5.58068C74.769 5.58068 73.047 6.73568 73.047 8.70968C73.047 12.1747 78.024 11.5447 78.024 13.1827C78.024 13.8337 77.373 14.0437 76.701 14.0437C75.882 14.0437 74.979 13.6447 74.139 13.0987C73.95 12.9517 73.803 12.9097 73.677 13.0777L72.858 14.2327C72.774 14.3587 72.732 14.5057 72.858 14.6527C73.593 15.5137 75.021 16.3747 76.785 16.3747C78.675 16.3747 80.712 15.2197 80.712 13.2247C80.712 9.44468 75.714 10.3687 75.714 8.68868ZM91.9414 10.7467C91.9414 7.95368 90.0304 5.58068 87.0484 5.58068C84.0664 5.58068 81.8614 7.95368 81.8614 10.9777C81.8614 14.0017 84.0664 16.3747 87.2794 16.3747C88.7704 16.3747 90.1144 15.7867 91.1014 14.7997C91.2694 14.6317 91.2694 14.4847 91.1224 14.3377L90.1984 13.4347C90.0514 13.2877 89.9254 13.2877 89.7364 13.4137C89.0224 13.9177 88.3714 14.1277 87.5524 14.1277C85.9354 14.1277 84.8854 13.3507 84.6124 11.9857H91.2064C91.8364 11.9857 91.9414 11.5657 91.9414 10.7467ZM87.0694 7.93268C88.3084 7.93268 89.2954 8.73068 89.4844 10.1797H84.5704C84.8014 8.73068 85.8094 7.93268 87.0694 7.93268ZM99.8963 12.7837L98.7623 14.3377C98.6573 14.4847 98.6363 14.6317 98.7623 14.7787C99.4763 15.6187 100.799 16.2907 102.584 16.2907C105.608 16.2907 107.687 14.6107 107.687 10.5997V1.71668C107.687 1.52768 107.561 1.40168 107.372 1.40168H105.125C104.936 1.40168 104.81 1.52768 104.81 1.71668V10.4947C104.81 12.6367 103.907 13.5187 102.5 13.5187C101.45 13.5187 100.82 13.0567 100.358 12.7627C100.19 12.6367 100.001 12.6367 99.8963 12.7837ZM119.881 5.81168H117.949C117.76 5.81168 117.655 5.93768 117.634 6.12668L117.571 7.09268C116.794 6.21068 115.744 5.58068 114.442 5.58068C111.565 5.58068 109.465 7.97468 109.465 10.9777C109.465 13.9807 111.565 16.3747 114.442 16.3747C115.786 16.3747 116.815 15.7657 117.55 14.9047L117.634 15.7867C117.655 15.9757 117.76 16.1017 117.949 16.1017H119.881C120.07 16.1017 120.196 15.9757 120.196 15.7867V6.12668C120.196 5.93768 120.07 5.81168 119.881 5.81168ZM114.778 13.8547C113.245 13.8547 112.132 12.6157 112.132 10.9567C112.132 9.31868 113.245 8.10068 114.778 8.10068C116.29 8.10068 117.403 9.40268 117.403 10.9567C117.403 12.5107 116.29 13.8547 114.778 13.8547ZM134.916 5.58068C133.236 5.58068 132.018 6.37868 131.283 7.49168C130.632 6.25268 129.477 5.58068 128.112 5.58068C126.621 5.58068 125.529 6.39968 124.857 7.49168V7.47068L124.773 6.12668C124.752 5.93768 124.647 5.81168 124.458 5.81168H122.4C122.211 5.81168 122.085 5.93768 122.085 6.12668V15.7867C122.085 15.9757 122.211 16.1017 122.4 16.1017H124.542C124.731 16.1017 124.857 15.9757 124.857 15.7867V10.1587C124.857 9.67568 125.571 8.14268 127.125 8.14268C128.133 8.14268 129.057 8.73068 129.057 10.4317V15.7867C129.057 15.9757 129.183 16.1017 129.372 16.1017H131.514C131.703 16.1017 131.829 15.9757 131.829 15.7867V10.1167C131.829 9.38168 132.543 8.14268 134.097 8.14268C135.084 8.14268 136.008 8.73068 136.008 10.4317V15.7867C136.008 15.9757 136.134 16.1017 136.323 16.1017H138.465C138.654 16.1017 138.78 15.9757 138.78 15.7867V9.92768C138.78 7.17668 137.163 5.58068 134.916 5.58068ZM143.185 8.68868C143.185 8.16368 143.668 7.80668 144.319 7.80668C145.054 7.80668 145.537 8.07968 146.335 8.60468C146.524 8.75168 146.671 8.79368 146.797 8.62568L147.595 7.57568C147.7 7.44968 147.742 7.28168 147.616 7.13468C146.755 6.12668 145.411 5.58068 144.088 5.58068C142.24 5.58068 140.518 6.73568 140.518 8.70968C140.518 12.1747 145.495 11.5447 145.495 13.1827C145.495 13.8337 144.844 14.0437 144.172 14.0437C143.353 14.0437 142.45 13.6447 141.61 13.0987C141.421 12.9517 141.274 12.9097 141.148 13.0777L140.329 14.2327C140.245 14.3587 140.203 14.5057 140.329 14.6527C141.064 15.5137 142.492 16.3747 144.256 16.3747C146.146 16.3747 148.183 15.2197 148.183 13.2247C148.183 9.44468 143.185 10.3687 143.185 8.68868ZM154.844 5.81168H153.374V2.97668C153.374 2.78768 153.248 2.66168 153.059 2.66168H150.917C150.728 2.66168 150.602 2.78768 150.602 2.97668V5.81168H149.132C148.943 5.81168 148.817 5.93768 148.817 6.12668V7.76468C148.817 7.95368 148.943 8.07968 149.132 8.07968H150.602V15.7867C150.602 15.9757 150.728 16.1017 150.917 16.1017H153.059C153.248 16.1017 153.374 15.9757 153.374 15.7867V8.07968H154.844C155.033 8.07968 155.159 7.95368 155.159 7.76468V6.12668C155.159 5.93768 155.033 5.81168 154.844 5.81168ZM166.516 5.81168H164.584C164.395 5.81168 164.29 5.93768 164.269 6.12668L164.206 7.09268C163.429 6.21068 162.379 5.58068 161.077 5.58068C158.2 5.58068 156.1 7.97468 156.1 10.9777C156.1 13.9807 158.2 16.3747 161.077 16.3747C162.421 16.3747 163.45 15.7657 164.185 14.9047L164.269 15.7867C164.29 15.9757 164.395 16.1017 164.584 16.1017H166.516C166.705 16.1017 166.831 15.9757 166.831 15.7867V6.12668C166.831 5.93768 166.705 5.81168 166.516 5.81168ZM161.413 13.8547C159.88 13.8547 158.767 12.6157 158.767 10.9567C158.767 9.31868 159.88 8.10068 161.413 8.10068C162.925 8.10068 164.038 9.40268 164.038 10.9567C164.038 12.5107 162.925 13.8547 161.413 13.8547ZM173.717 13.8127C172.163 13.8127 171.071 12.5947 171.071 10.9777C171.071 9.36068 172.163 8.14268 173.717 8.14268C174.662 8.14268 175.271 8.54168 175.859 9.06668C176.027 9.21368 176.174 9.23468 176.321 9.08768L177.602 7.84868C177.728 7.72268 177.749 7.55468 177.623 7.40768C176.657 6.29468 175.25 5.58068 173.654 5.58068C170.693 5.58068 168.404 7.95368 168.404 10.9777C168.404 14.0017 170.693 16.3747 173.654 16.3747C175.292 16.3747 176.72 15.6607 177.686 14.5477C177.812 14.4007 177.791 14.2327 177.665 14.1067L176.384 12.8887C176.237 12.7417 176.09 12.7417 175.922 12.8887C175.334 13.4137 174.704 13.8127 173.717 13.8127ZM189.362 15.7237L185.12 10.0747L188.753 6.18968C188.942 6.00068 188.858 5.81168 188.585 5.81168H186.17C186.023 5.81168 185.897 5.85368 185.792 5.97968L182.012 10.0537V1.08668C182.012 0.897684 181.886 0.771684 181.697 0.771684H179.555C179.366 0.771684 179.24 0.897684 179.24 1.08668V15.7867C179.24 15.9757 179.366 16.1017 179.555 16.1017H181.697C181.886 16.1017 182.012 15.9757 182.012 15.7867V13.3927L183.44 11.8807L186.485 15.9127C186.59 16.0597 186.695 16.1017 186.863 16.1017H189.173C189.425 16.1017 189.509 15.9337 189.362 15.7237Z" fill="white"/>
</svg>
